<?xml version="1.0" encoding="UTF-8"?>
<!DOCTYPE svg PUBLIC "-//W3C//DTD SVG 1.1//EN" "http://www.w3.org/Graphics/SVG/1.1/DTD/svg11.dtd">
<!-- Creator: CorelDRAW 2021.5 -->
<svg xmlns="http://www.w3.org/2000/svg" xml:space="preserve" width="38.8056mm" height="38.8056mm" version="1.1" style="shape-rendering:geometricPrecision; text-rendering:geometricPrecision; image-rendering:optimizeQuality; fill-rule:evenodd; clip-rule:evenodd"
viewBox="0 0 692.41 692.41"
 xmlns:xlink="http://www.w3.org/1999/xlink"
 xmlns:xodm="http://www.corel.com/coreldraw/odm/2003">
 <defs>
  <style type="text/css">
   <![CDATA[
    .str0 {stroke:black;stroke-width:12.59;stroke-miterlimit:2.61313}
    .str1 {stroke:black;stroke-width:6.3;stroke-miterlimit:2.61313}
    .fil1 {fill:none}
    .fil3 {fill:white}
    .fil0 {fill:white}
    .fil2 {fill:black;fill-rule:nonzero}
   ]]>
  </style>
 </defs>
 <g id="Layer_x0020_1">
  <metadata id="CorelCorpID_0Corel-Layer"/>
  <g id="_2401200620560">
   <rect class="fil0 str0" x="6.3" y="6.3" width="679.82" height="679.82" rx="45.32" ry="45.32"/>
   <g>
    <circle class="fil1 str1" cx="346.21" cy="346.21" r="283.26"/>
    <path class="fil1 str1" d="M575.77 180.26c21.19,29.26 36.91,62.73 45.7,98.92 -8.27,43 -29.56,88.26 -28.86,102.54 4.27,87.12 -1.07,50.75 -21.05,95.53 -38.65,86.62 -64.14,-118.65 -64.09,-119.57 2.24,-44.14 -178.72,-66.25 -134.65,-124.33 57.42,-75.69 145.71,-81.79 202.95,-53.08z"/>
    <path class="fil1 str1" d="M433.66 615.69c-27.55,8.93 -56.93,13.78 -87.45,13.78 -21.1,0 -41.65,-2.32 -61.44,-6.7 -0.23,-19.17 2.46,-34.9 45.44,-41.42 35.79,-5.43 32.12,39.93 68.53,5.72 5.88,-5.53 27.98,2.7 34.92,28.62z"/>
    <path class="fil1 str1" d="M130.96 530.33c-42.39,-49.52 -68.01,-113.82 -68.01,-184.12 0,-28.11 4.11,-55.25 11.74,-80.88 19.86,1.09 2.29,9.48 38.96,55.08 16.25,20.2 37.77,60.05 10.7,82.9 -54.91,46.37 6.93,65.31 6.93,120.12 0,2.39 -0.11,4.69 -0.32,6.9z"/>
   </g>
   <polygon class="fil2" points="196.06,265.08 330.21,265.08 330.21,299.75 246.37,299.75 246.37,325.59 324.09,325.59 324.09,358.67 246.37,358.67 246.37,390.62 332.71,390.62 332.71,427.33 196.06,427.33 "/>
   <polygon id="_1" class="fil2" points="359.71,265.08 493.86,265.08 493.86,299.75 410.02,299.75 410.02,325.59 487.74,325.59 487.74,358.67 410.02,358.67 410.02,390.62 496.35,390.62 496.35,427.33 359.71,427.33 "/>
   <g>
    <path id="_2" class="fil3" d="M196.06 255.64l134.15 0c5.21,0 9.44,4.23 9.44,9.44l0 34.67c0,5.21 -4.23,9.44 -9.44,9.44l-74.4 0 0 6.95 68.28 0c5.21,0 9.44,4.23 9.44,9.44l0 33.08c0,5.21 -4.23,9.44 -9.44,9.44l-68.28 0 0 13.07 76.9 0c5.21,0 9.44,4.23 9.44,9.44l0 36.71c0,5.21 -4.23,9.44 -9.44,9.44l-136.64 0c-5.21,0 -9.44,-4.23 -9.44,-9.44l0 -162.25c0,-5.21 4.23,-9.44 9.44,-9.44zm0 9.44l134.15 0 0 34.67 -83.84 0 0 25.83 77.73 0 0 33.08 -77.73 0 0 31.95 86.34 0 0 36.71 -136.64 0 0 -162.25z"/>
   </g>
   <g>
    <path id="_3" class="fil3" d="M359.71 255.64l134.15 0c5.21,0 9.44,4.23 9.44,9.44l0 34.67c0,5.21 -4.23,9.44 -9.44,9.44l-74.4 0 0 6.95 68.28 0c5.21,0 9.44,4.23 9.44,9.44l0 33.08c0,5.21 -4.23,9.44 -9.44,9.44l-68.28 0 0 13.07 76.9 0c5.21,0 9.44,4.23 9.44,9.44l0 36.71c0,5.21 -4.23,9.44 -9.44,9.44l-136.64 0c-5.21,0 -9.44,-4.23 -9.44,-9.44l0 -162.25c0,-5.21 4.23,-9.44 9.44,-9.44zm0 9.44l134.15 0 0 34.67 -83.84 0 0 25.83 77.73 0 0 33.08 -77.73 0 0 31.95 86.34 0 0 36.71 -136.64 0 0 -162.25z"/>
   </g>
  </g>
 </g>
</svg>
