<?xml version="1.0" encoding="UTF-8"?>
<!DOCTYPE svg PUBLIC "-//W3C//DTD SVG 1.1//EN" "http://www.w3.org/Graphics/SVG/1.1/DTD/svg11.dtd">
<!-- Creator: CorelDRAW 2021.5 -->
<svg xmlns="http://www.w3.org/2000/svg" xml:space="preserve" width="32.4556mm" height="32.4556mm" version="1.1" style="shape-rendering:geometricPrecision; text-rendering:geometricPrecision; image-rendering:optimizeQuality; fill-rule:evenodd; clip-rule:evenodd"
viewBox="0 0 18351.96 18351.96"
 xmlns:xlink="http://www.w3.org/1999/xlink"
 xmlns:xodm="http://www.corel.com/coreldraw/odm/2003">
 <defs>
  <style type="text/css">
   <![CDATA[
    .str0 {stroke:black;stroke-width:398.98;stroke-miterlimit:2.61313}
    .fil0 {fill:none}
   ]]>
  </style>
 </defs>
 <g id="Layer_x0020_1">
  <metadata id="CorelCorpID_0Corel-Layer"/>
  <g id="_2305851416208">
   <circle class="fil0 str0" cx="9175.98" cy="9175.98" r="8976.49"/>
   <path class="fil0 str0" d="M16450.7 3916.97c671.53,927.28 1169.74,1987.95 1448.23,3134.62 -262.2,1362.79 -936.83,2796.82 -914.61,3249.63 135.42,2760.69 -34.04,1608.36 -667.12,3027.24 -1224.7,2744.86 -2032.5,-3760 -2031.09,-3789.24 70.96,-1398.92 -5663.47,-2099.4 -4266.99,-3940.04 1819.73,-2398.52 4617.51,-2591.85 6431.58,-1682.21z"/>
   <path class="fil0 str0" d="M11947.41 17715.78c-872.94,283.12 -1804.18,436.7 -2771.43,436.7 -668.7,0 -1320.04,-73.68 -1947.01,-212.33 -7.35,-607.46 77.92,-1106.02 1440.03,-1312.58 1134.18,-172.01 1017.75,1265.3 2171.66,181.34 186.43,-175.12 886.68,85.5 1106.75,906.87z"/>
   <path class="fil0 str0" d="M2354.81 15010.73c-1343.45,-1569.18 -2155.32,-3606.99 -2155.32,-5834.75 0,-890.75 130.39,-1750.85 372.01,-2563.12 629.4,34.66 72.55,300.48 1234.66,1745.43 514.95,640.26 1196.88,1902.85 339.1,2627.13 -1740,1469.43 219.62,2069.6 219.62,3806.6 0,75.6 -3.45,148.49 -10.06,218.72z"/>
  </g>
 </g>
</svg>
