<?xml version="1.0" encoding="UTF-8"?>
<!DOCTYPE svg PUBLIC "-//W3C//DTD SVG 1.1//EN" "http://www.w3.org/Graphics/SVG/1.1/DTD/svg11.dtd">
<!-- Creator: CorelDRAW 2021.5 -->
<svg xmlns="http://www.w3.org/2000/svg" xml:space="preserve" width="28.3614mm" height="33.2974mm" version="1.1" style="shape-rendering:geometricPrecision; text-rendering:geometricPrecision; image-rendering:optimizeQuality; fill-rule:evenodd; clip-rule:evenodd"
viewBox="0 0 3331.3 3911.08"
 xmlns:xlink="http://www.w3.org/1999/xlink"
 xmlns:xodm="http://www.corel.com/coreldraw/odm/2003">
 <defs>
  <style type="text/css">
   <![CDATA[
    .fil0 {fill:black;fill-rule:nonzero}
   ]]>
  </style>
 </defs>
 <g id="Layer_x0020_1">
  <metadata id="CorelCorpID_0Corel-Layer"/>
  <g id="Linux_Platform.svg">
   <g>
    <g>
     <g>
      <path class="fil0" d="M3246.24 3190.43c-103.38,-42.31 -188.38,-109.35 -182.4,-237.07 5.99,-127.71 -91.39,-212.33 -91.39,-212.33 0,0 85.02,-279.76 5.99,-510.85 -79.03,-231.48 -340.43,-601.85 -540.78,-881.61 -200.35,-279.78 -30.33,-602.25 -212.32,-1015.32 -182.79,-413.08 -656.52,-389.13 -911.95,-212.73 -255.43,176.01 -176.41,613.83 -164.43,820.56 12.37,206.34 5.59,353.61 -17.96,407.09 -23.95,53.48 -188.38,249.44 -298.13,413.47 -109.35,164.03 -188.37,504.46 -267.79,644.56 -79.03,139.68 -24.35,267.4 -24.35,267.4 0,0 -54.68,17.96 -97.37,109.75 -42.71,91 -127.71,133.3 -279.78,163.63 -152.06,30.33 -152.06,128.11 -115.74,237.47 36.72,109.35 0,170.42 -42.3,309.7 -42.71,139.28 170.01,182.39 376.75,206.34 206.74,24.74 437.82,158.44 632.58,182.39 194.37,24.34 255.03,-133.7 255.03,-133.7 0,0 218.71,-49.09 449.8,-54.68 231.08,-5.99 449.79,48.69 449.79,48.69 0,0 42.7,97.39 121.72,139.69 79.03,42.7 249.44,48.69 358.79,-66.66 109.75,-115.73 401.5,-261.4 565.53,-352.8 164.43,-91 134.1,-230.69 30.74,-272.99zm-1422.4 -2680.78c104.16,0 188.37,103.36 188.37,230.68 0,90.6 -42.3,168.42 -103.76,206.34 -15.56,-6.79 -32.32,-13.97 -49.88,-21.55 37.12,-18.36 63.45,-65.45 63.45,-120.92 0,-71.84 -44.29,-130.11 -99.37,-130.11 -54.28,0 -98.98,58.27 -98.98,130.11 0,26.73 6.39,52.28 17.16,73.04 -32.32,-12.77 -62.25,-24.75 -85.8,-33.92 -12.77,-31.14 -19.96,-66.26 -19.96,-103.38 0,-126.91 84.21,-230.28 188.78,-230.28zm-13.58 486.5c52.28,17.96 110.15,51.89 104.17,85.42 -5.99,33.92 -33.53,33.92 -104.17,77.03 -70.64,42.7 -223.49,137.69 -272.59,143.68 -49.09,5.98 -76.62,-21.55 -128.9,-55.08 -52.28,-33.93 -150.07,-113.75 -125.33,-156.46 0,0 76.23,-58.27 109.75,-89 33.93,-30.73 119.74,-104.16 171.62,-94.59 52.28,9.19 193.16,70.64 245.44,89zm-470.14 -450.18c82.22,0 148.87,97.78 148.87,218.71 0,22.35 -2,42.71 -6.38,62.66 -19.96,6.78 -40.31,17.96 -60.27,34.72 -9.98,8.37 -18.76,15.96 -27.54,23.55 13.18,-24.35 18.36,-59.07 12.38,-95.79 -11.18,-65.86 -55.08,-114.15 -98.58,-107.36 -43.51,7.58 -69.84,66.65 -58.67,133.29 11.18,66.26 55.08,114.55 98.18,107.36 2.4,-0.4 4.79,-1.2 7.19,-1.99 -21.15,20.34 -40.71,37.9 -60.67,52.68 -60.27,-27.94 -104.16,-110.95 -104.16,-209.14 1.19,-120.92 67.84,-218.71 149.65,-218.71zm-160.44 3071.89c-19.56,87 -121.32,150.46 -121.32,150.46 -92.59,29.13 -349.62,-82.61 -466.16,-131.31 -116.53,-48.29 -412.67,-63.45 -451.78,-106.56 -38.71,-43.91 19.56,-141.28 34.32,-233.07 14.38,-92.59 -29.13,-150.46 -14.76,-213.92 14.76,-63.06 203.94,-63.06 276.58,-106.57 73.04,-43.89 87.4,-170.01 145.67,-203.93 58.27,-34.33 164.83,87 208.72,155.64 43.51,67.44 208.74,359.19 276.58,432.23 68.64,72.24 131.71,169.62 112.15,257.02zm1075.18 -847.29c-17.56,85.8 -17.56,395.51 -17.56,395.51 0,0 -188.38,261.02 -480.52,303.71 -291.74,42.71 -437.82,11.98 -437.82,11.98l-164.03 -187.98c0,0 127.31,-18.36 109.35,-146.07 -18.36,-127.71 -389.12,-304.11 -455.78,-462.17 -66.65,-157.64 -11.97,-425.44 73.05,-559.54 85.01,-133.7 139.28,-425.05 224.69,-522.82 85.01,-96.99 151.66,-303.71 121.32,-395.12 0,0 182.39,219.11 309.7,182.79 127.71,-36.72 413.88,-249.44 455.78,-212.72 42.31,36.72 407.09,838.92 443.41,1094.34 36.72,255.03 -24.35,449.79 -24.35,449.79 0,0 -139.28,-36.72 -157.24,48.3zm933.11 572.71c-56.67,52.28 -372.77,179.59 -467.36,279.38 -94.18,98.57 -217.11,179.2 -292.54,155.64 -75.82,-23.94 -141.68,-127.71 -108.56,-278.96 32.74,-150.86 61.47,-316.09 56.67,-410.68 -4.78,-94.58 -23.94,-222.3 0,-241.05 23.55,-18.36 61.07,-9.19 61.07,-9.19 0,0 -18.36,179.2 89.8,226.7 108.56,46.69 264.2,-18.76 311.7,-66.66 47.49,-47.09 80.61,-117.73 80.61,-117.73 0,0 47.1,23.95 42.31,99.37 -4.79,75.43 32.72,184.39 104.16,221.9 70.25,37.52 178.81,89.8 122.13,141.28z"/>
     </g>
     <g>
     </g>
     <g>
     </g>
     <g>
     </g>
     <g>
     </g>
     <g>
     </g>
     <g>
     </g>
     <g>
     </g>
     <g>
     </g>
     <g>
     </g>
     <g>
     </g>
     <g>
     </g>
     <g>
     </g>
     <g>
     </g>
     <g>
     </g>
     <g>
     </g>
    </g>
    <g>
    </g>
    <g>
    </g>
    <g>
    </g>
    <g>
    </g>
    <g>
    </g>
    <g>
    </g>
    <g>
    </g>
    <g>
    </g>
    <g>
    </g>
    <g>
    </g>
    <g>
    </g>
    <g>
    </g>
    <g>
    </g>
    <g>
    </g>
    <g>
    </g>
   </g>
  </g>
 </g>
</svg>
