<?xml version="1.0" encoding="UTF-8"?>
<!DOCTYPE svg PUBLIC "-//W3C//DTD SVG 1.1//EN" "http://www.w3.org/Graphics/SVG/1.1/DTD/svg11.dtd">
<!-- Creator: CorelDRAW 2021.5 -->
<svg xmlns="http://www.w3.org/2000/svg" xml:space="preserve" width="1.52778in" height="1.52778in" version="1.1" style="shape-rendering:geometricPrecision; text-rendering:geometricPrecision; image-rendering:optimizeQuality; fill-rule:evenodd; clip-rule:evenodd"
viewBox="0 0 2312.82 2312.82"
 xmlns:xlink="http://www.w3.org/1999/xlink"
 xmlns:xodm="http://www.corel.com/coreldraw/odm/2003">
 <defs>
  <style type="text/css">
   <![CDATA[
    .str0 {stroke:black;stroke-width:42.05;stroke-miterlimit:2.61313}
    .fil1 {fill:black}
    .fil3 {fill:white}
    .fil0 {fill:white}
    .fil2 {fill:black;fill-rule:nonzero}
   ]]>
  </style>
 </defs>
 <g id="Layer_x0020_1">
  <metadata id="CorelCorpID_0Corel-Layer"/>
  <g id="_2382233278928">
   <rect class="fil0 str0" x="21.03" y="21.03" width="2270.77" height="2270.77" rx="151.39" ry="151.39"/>
   <path class="fil1" d="M154.84 1459.81c19.73,-7.2 -16.08,0.16 4.92,-0.08l8.3 -1.57c21.19,-11.76 7.85,-5.55 27.55,-5.56 5.71,0 17.76,-8.24 18.88,-9.65 -0.09,-0.08 -6.23,2.13 -3.3,-13.59 -11.8,-34.4 -31.31,-50.71 -42.78,-115 -23.73,-133.04 18.13,-265.87 128.76,-330.39 22.65,-13.21 11.48,-10.28 26.34,-52.9 39.22,-112.56 138.15,-200.11 257.48,-214.57 23.81,-2.88 61.43,2.03 79.79,-2.15 13.65,-15.12 23.29,-47.65 33.73,-67.4 11.69,-22.13 25.06,-43.23 38.53,-62.59l45.81 -55.29c16.16,-17.43 34.02,-31.57 53.88,-47.24 197.55,-155.86 488.35,-130.88 655.41,46.55 37.05,39.35 111.39,136.76 120.25,185.31l-72.77 -0.41c-10.51,-1.29 -7.66,-3.9 -16.59,-7.99 -48,-21.94 -66.51,63.43 -12,62.69 18.87,-0.26 13.08,-9.88 42.17,-9.46 109.25,1.58 85.41,8.38 144.65,-53.9 13.34,-14.02 41.86,-36.81 49.4,-52.25 10.65,-21.84 5.17,-158.29 5.47,-193.52 26.96,-16.63 62.18,-34.72 53.8,-89.74 -13.96,-91.61 -144.46,-89.33 -156.07,1.34 -2.78,21.66 2.82,41.64 12.8,56.97 10.11,15.54 24.09,23.84 40.99,30.43 -1.9,41.41 -0.55,85.81 -0.54,127.53 0.02,40.16 8.77,42.48 -40.98,84.04 -13.09,-54.9 -87.27,-151.43 -127.8,-192.22 -9.46,-9.52 -18.61,-16.55 -27.64,-25.87l-30.71 -25.53c-131.83,-105.5 -335.12,-143.11 -511.09,-88.14 -56.99,17.8 -100.56,44.16 -144.21,72.33 -63.36,40.88 -116.91,102.9 -157.68,165.93 -14.33,22.17 -23.38,46.99 -38.18,70.34 -112.22,8.68 -187.65,39.28 -248.82,97.88 -15.14,14.51 -29.2,26.6 -42.94,44.45 -27.21,35.37 -47,68.4 -62.78,111.73 -13.51,37.1 -8.81,28.11 -36.18,50.52 -32.64,26.74 -56.88,52.27 -79.6,92.29 -61.3,107.95 -72.03,238.59 -25.74,355.75 8.49,21.49 20.64,41.23 29.49,60.92zm1557.11 -1111.47c-37.88,14.16 -23.21,84.47 23.89,66.51 42.82,-16.32 20.12,-82.97 -23.89,-66.51zm350.16 618.55c4.85,16.12 52.46,59.06 77.05,155.85 16.75,65.94 17.69,143.76 -0.7,209.55 -30.34,108.54 -109.94,205.91 -213.92,252.25 -66.88,29.81 -112.19,38.49 -195.33,38.57l-348.65 0.33c-34.38,0.06 -86.06,-8.63 -91.1,27.69 -6.64,47.79 53.32,36.88 82.67,36.9 39.17,0.03 78.4,-0.2 117.56,0.05l0.05 100.24c-25.14,-0.21 -50.45,-0.24 -75.56,0.07 -21.78,0.26 -16.56,2 -29.48,-9.36 -27.92,-24.56 -67.52,11.88 -45.22,42.28 19.5,26.57 55.29,-3.46 55.83,-3.61 25.73,-6.9 206.29,5.16 228.25,-4.85 18.48,-8.42 23.74,-20.84 43.81,-34.96 12.97,8.42 20.54,19.5 33.2,28.48 17.95,12.75 26.58,10.43 51.15,10.61 8.73,7.69 22.22,24.51 44.24,13.52 14.21,-7.09 24.63,-26.83 12.81,-45.08 -8.21,-12.69 -27.94,-20.22 -45.03,-7.31 -12.46,9.42 -3.1,10.25 -23.19,10.33 -35.11,0.14 -36.94,-27.69 -60.73,-37.77 -41.05,-17.4 -34.25,38.09 -93.95,37.63 -22.56,-0.18 -45.37,-0.24 -67.92,0.06l0.17 -100.35c199.96,1.6 375.99,22.53 530.49,-108.34 4.8,-4.07 9.52,-7 14.13,-11.38 97.26,-92.59 159.76,-204.84 152.84,-364.46 -2.52,-58.21 -15.97,-113.61 -36.1,-160.3 -16.31,-37.85 -38.08,-75.85 -63.56,-108.08l-8.01 -9.25c-3.93,-3.7 -0.69,-1.39 -5.49,-4.52 -4.54,18.17 1.35,-0.6 -5.96,11.74 -2.45,4.12 -1.58,2.01 -3.26,7.5l-1.32 4.66c-1.77,9.16 1.51,7.88 3.87,14.81 -9.89,-0.01 -5.43,-1.67 -11.87,2.35 -0.48,0.3 -1.11,0.88 -1.51,1.23l-2.28 3.21c-0.24,0.33 -0.74,2.29 -0.9,1.86 -0.16,-0.44 -0.6,1.27 -0.83,1.93 -0.57,-0.5 -1.32,-1.25 -1.67,-1.57 -14.49,-12.89 -11.62,-4.88 -14.58,-2.53zm-113.59 -480.85c-54.95,2.44 -87.9,-7.36 -116.51,30.75 -22.39,29.84 -14.05,90.84 -14.04,133.39 0.01,41.2 -19.57,39.02 -42.92,65.44 -29.38,33.27 -89.19,78.24 -87.6,96.99 1,11.92 19.47,41.12 49.65,5.61l104.24 -101c32.54,-30.69 23.34,-60.13 23.29,-123.41 -0.05,-55.57 -6.32,-66.96 86.7,-60.93 12.09,17.61 29.48,67.5 92.11,57.63 40.26,-6.34 71.87,-37.77 71.25,-83.86 -1.16,-87 -115.72,-110.24 -153.58,-46.2 -4.63,7.83 -8.21,18.94 -12.59,25.58zm70 -16.93c-48.4,13.27 -29.73,89.77 24.6,75.78 48.68,-12.54 25.55,-89.54 -24.6,-75.78zm43.59 497.78c2.96,-2.35 0.09,-10.36 14.58,2.53 0.36,0.32 1.1,1.07 1.67,1.57 0.24,-0.66 0.67,-2.37 0.83,-1.93 0.16,0.44 0.66,-1.53 0.9,-1.86l2.28 -3.21c0.4,-0.35 1.03,-0.93 1.51,-1.23 6.44,-4.02 1.97,-2.37 11.87,-2.35 -2.36,-6.93 -5.64,-5.65 -3.87,-14.81l1.32 -4.66c1.68,-5.49 0.81,-3.37 3.26,-7.5 7.31,-12.33 1.42,6.44 5.96,-11.74 -9.21,-20.36 -58.15,-60.89 -80.56,-78 -21.19,-16.16 -73.18,-47.41 -104.42,-54.86 4.45,-7.48 7.81,-8.9 15.62,-16.41 21,-20.24 35.68,-13.07 82.64,-12.8 25.41,73.13 135.29,53.25 133.19,-25.22 -1.48,-55.13 -63.79,-86.16 -107.97,-56.79 -13.39,8.9 -17.77,20.43 -27.72,35.08 -110.4,2.63 -74.85,-6.91 -149.72,57.47 -7.43,6.39 -15.4,13.2 -21.95,20.29 -18.35,19.87 -13.05,40.53 15.38,47.06 139.67,32.06 189.02,122.39 205.21,129.36zm6.36 -253.25c-26.83,13.4 -7.63,58.14 23.27,43.08 26.72,-13.02 6.64,-58.01 -23.27,-43.08zm-1913.64 746.17c5.13,2.44 -4.3,-6.19 3.11,2.81 1.56,1.9 2.93,4.14 4.28,6.19 69.09,105.33 185.93,176.28 315.61,183.02 23.73,1.23 151.59,3.78 166.57,-2.81 20.68,-9.09 23.03,-38.28 6.8,-53.15 -22.65,-20.75 -144.95,7.07 -241.7,-19.96 -138.9,-38.81 -178.42,-128.45 -198.31,-146.54 -2.93,15.72 3.21,13.51 3.3,13.59 -1.12,1.41 -13.17,9.65 -18.88,9.65 -19.7,0.01 -6.36,-6.2 -27.55,5.56l-8.3 1.57c-21,0.24 14.81,-7.12 -4.92,0.08zm830.93 133.37c-15.7,7.4 -17.74,29.81 -24.3,49.51l-104.18 334.57c-5.83,23.75 12.17,39.68 35.13,32.35 17.23,-5.5 18.71,-28.76 25.12,-48.69 6.28,-19.55 11.23,-37.13 17.53,-55.59l88.05 -277.68c5.98,-25.65 -12.15,-46.36 -37.36,-34.47zm189.39 210.17c-11.65,8.96 -27.7,26.91 -39.62,38.42l-79.67 77.87c-17.65,19.18 -3.63,47.16 23.06,40.42 10.14,-2.56 107.16,-99.22 122.88,-113.85 10.25,-9.54 34.92,-27.01 36.31,-43.59 1.94,-23.02 -58.87,-71.06 -73.74,-84.51 -13.57,-12.28 -69.12,-72.34 -82.79,-74.78 -21.87,-3.9 -38.26,21.96 -23.71,40.57 10.19,13.03 29.47,25.12 40.55,38.41 14.62,17.55 22.35,21.7 39.25,39.41 9.45,9.91 32.22,31.52 37.46,41.63zm-471.86 0.17c7.94,-15.01 27.82,-26.18 39.89,-39.21l79.1 -78.31c22.67,-22.9 3.24,-46.27 -17.69,-43.48 -13.89,1.84 -73.8,66.35 -84.52,76.18 -25.84,23.67 -37.23,31.99 -60.43,57.62 -6.34,7 -17.42,12.38 -16.99,26.48 0.6,19.69 63.15,66.57 75.77,83.06 9.62,12.56 71.33,74.71 83.66,77.21 26.64,5.39 35.71,-22.27 23.18,-40.48l-121.96 -119.06z"/>
   <polygon class="fil2" points="334.01,885.43 508.99,885.43 631.11,1275.5 751.46,885.43 921.38,885.43 720.17,1427.39 538.76,1427.39 "/>
   <polygon id="_1" class="fil2" points="975.76,885.43 1423.85,885.43 1423.85,1001.24 1143.79,1001.24 1143.79,1087.53 1403.42,1087.53 1403.42,1198.04 1143.79,1198.04 1143.79,1304.77 1432.18,1304.77 1432.18,1427.39 975.76,1427.39 "/>
   <polygon id="_2" class="fil2" points="1522.38,885.43 1970.48,885.43 1970.48,1001.24 1690.42,1001.24 1690.42,1087.53 1950.04,1087.53 1950.04,1198.04 1690.42,1198.04 1690.42,1304.77 1978.8,1304.77 1978.8,1427.39 1522.38,1427.39 "/>
   <g>
    <path id="_3" class="fil3" d="M334.01 853.89l174.97 0c14.8,0 27.23,10.2 30.62,23.96l91.3 291.62 90.49 -293.28c4.15,-13.52 16.61,-22.22 30.06,-22.22l0 -0.08 169.93 0c17.42,0 31.54,14.13 31.54,31.54 0,4.84 -1.09,9.42 -3.04,13.52l-200.27 539.4c-4.71,12.64 -16.7,20.46 -29.45,20.46l0 0.11 -181.41 0c-14.28,0 -26.34,-9.49 -30.23,-22.52l-203.97 -539.89c-6.12,-16.26 2.1,-34.41 18.36,-40.53 3.65,-1.38 7.4,-2.03 11.09,-2.02l0 -0.07zm0 31.54l174.97 0 122.12 390.07 120.35 -390.07 169.93 0 -201.22 541.96 -181.41 0 -204.75 -541.96z"/>
   </g>
   <g>
    <path id="_4" class="fil3" d="M975.76 853.89l448.1 0c17.42,0 31.54,14.13 31.54,31.54l0 115.81c0,17.42 -14.13,31.54 -31.54,31.54l-248.52 0 0 23.21 228.08 0c17.42,0 31.54,14.13 31.54,31.54l0 110.51c0,17.42 -14.13,31.54 -31.54,31.54l-228.08 0 0 43.65 256.85 0c17.42,0 31.54,14.13 31.54,31.54l0 122.62c0,17.42 -14.13,31.54 -31.54,31.54l-456.42 0c-17.42,0 -31.54,-14.13 -31.54,-31.54l0 -541.96c0,-17.42 14.13,-31.54 31.54,-31.54zm0 31.54l448.1 0 0 115.81 -280.06 0 0 86.29 259.62 0 0 110.51 -259.62 0 0 106.73 288.39 0 0 122.62 -456.42 0 0 -541.96z"/>
   </g>
   <g>
    <path id="_5" class="fil3" d="M1522.38 853.89l448.1 0c17.42,0 31.54,14.13 31.54,31.54l0 115.81c0,17.42 -14.13,31.54 -31.54,31.54l-248.52 0 0 23.21 228.08 0c17.42,0 31.54,14.13 31.54,31.54l0 110.51c0,17.42 -14.13,31.54 -31.54,31.54l-228.08 0 0 43.65 256.85 0c17.42,0 31.54,14.13 31.54,31.54l0 122.62c0,17.42 -14.13,31.54 -31.54,31.54l-456.42 0c-17.42,0 -31.54,-14.13 -31.54,-31.54l0 -541.96c0,-17.42 14.13,-31.54 31.54,-31.54zm0 31.54l448.1 0 0 115.81 -280.06 0 0 86.29 259.62 0 0 110.51 -259.62 0 0 106.73 288.39 0 0 122.62 -456.42 0 0 -541.96z"/>
   </g>
  </g>
 </g>
</svg>
