<?xml version="1.0" encoding="UTF-8"?>
<!DOCTYPE svg PUBLIC "-//W3C//DTD SVG 1.1//EN" "http://www.w3.org/Graphics/SVG/1.1/DTD/svg11.dtd">
<!-- Creator: CorelDRAW 2021.5 -->
<svg xmlns="http://www.w3.org/2000/svg" xml:space="preserve" width="159.808mm" height="39.1584mm" version="1.1" style="shape-rendering:geometricPrecision; text-rendering:geometricPrecision; image-rendering:optimizeQuality; fill-rule:evenodd; clip-rule:evenodd"
viewBox="0 0 11120.31 2724.85"
 xmlns:xlink="http://www.w3.org/1999/xlink"
 xmlns:xodm="http://www.corel.com/coreldraw/odm/2003">
 <defs>
  <style type="text/css">
   <![CDATA[
    .str0 {stroke:black;stroke-width:73.64;stroke-miterlimit:2.61313}
    .str2 {stroke:white;stroke-width:12.27;stroke-miterlimit:2.61313}
    .str1 {stroke:black;stroke-width:73.64;stroke-linecap:round;stroke-miterlimit:2.61313}
    .fil1 {fill:none}
    .fil2 {fill:black}
    .fil3 {fill:white}
    .fil0 {fill:white}
    .fil4 {fill:black;fill-rule:nonzero}
   ]]>
  </style>
 </defs>
 <g id="Layer_x0020_1">
  <metadata id="CorelCorpID_0Corel-Layer"/>
  <path class="fil0 str0" d="M213.57 36.82l2297.71 0c97.21,0 176.75,79.54 176.75,176.75l0 2474.45 -2474.45 0c-97.21,0 -176.75,-79.54 -176.75,-176.75l0 -2297.71c0,-97.21 79.54,-176.75 176.75,-176.75z"/>
  <line class="fil1 str1" x1="2246.16" y1="2688.01" x2="11083.48" y2= "2688.01" />
  <g id="_2237715774720">
   <path id="body" class="fil2" d="M2141.81 1395.42c-49.1,507.47 -209.56,1137.75 -733.76,1137.75 -498.57,0 -681.68,-570.15 -748.45,-1062.52 -105.44,147.4 -152.2,363.46 -140.69,490.55 7.33,76.69 -177.21,114.47 -214.48,15.76 -22.5,-255.03 109.62,-736.89 323.99,-847.14 -5.57,-107.47 -6.6,-198.95 -6.6,-263.14 0,-372.81 344.96,-675.02 770.92,-675.02 425.54,0 770.71,302.21 770.71,675.02 0,54.01 -0.09,127.33 -2.53,213.24 241.31,59.18 498.59,805.86 -136.13,902.83 -37.26,98.71 52.58,-138.89 59.92,-215.58 156.23,-71.32 186.5,-226.58 57.09,-371.75z"/>
   <path id="face" class="fil3" d="M1387.69 1188.02c-334.71,0 -606,-192.65 -606,-430.16 0,-237.45 271.29,-430.11 606,-430.11 334.75,0 606.19,192.65 606.19,430.11 0,237.51 -271.44,430.16 -606.19,430.16l0 0z"/>
   <circle id="eye" class="fil2" cx="1143.82" cy="813.91" r="48.62"/>
   <circle id="eye_0" class="fil2" cx="1662.44" cy="813.91" r="48.62"/>
   <path id="Coffee-2346113.svg" class="fil0 str2" d="M1185.7 1965.03c-90.75,26.92 -133.97,100.1 -9.07,141.16 203.38,66.88 386.3,61.81 568.97,23.49 122.53,-25.7 168.86,-68.03 135.89,-119.83 62.38,61.08 -13.12,108.15 -122.45,137.15 -179.12,47.52 -440.4,40.45 -601.74,-20.72 -134.05,-50.83 -89.44,-129.88 28.36,-161.26l0.04 0zm397.16 -706.62c-48.29,26.35 -46.66,50.78 -36.69,68.88 1.06,-23.53 4.29,-32.56 49.64,-60.22 43.44,-26.44 27.13,-54.3 14.51,-70.32 6.49,24.84 10.62,40.85 -27.5,61.65l0.04 0zm26.8 207.31c-69.25,37.79 -103.21,69.13 -116.28,102.67 -39.92,-4.91 -93.69,-0.54 -150.97,16.79 -43.07,13.03 -99.2,47.92 -88.42,71.94 -61.74,148.64 -10.5,321.99 142.39,379.6 -82.54,-65.82 -177.44,-133.23 -131.36,-353.49 66.56,48.22 137.65,49.23 210.33,50.38 80.25,1.27 167.8,-6.66 228.47,-43.31 89.85,146.18 -47.43,294.05 -171.72,358.36 93.56,-39.1 184.46,-71.58 221.4,-195.63 20.63,-69.33 12.87,-139.07 -29.37,-219.48 -0.65,26.35 -5.6,33.91 -50.34,59.65 61.28,-41.39 -38.86,-87.11 -158.4,-91.69 3.51,-7.27 8.05,-14.42 13.97,-21.73 25.95,1.02 52.42,2.73 78.9,4.5 -19.73,-9.12 -49.06,-12.71 -74.73,-14.47 20.35,-22.92 54.79,-42.98 113.83,-78.9 126.25,-76.85 78.85,-157.74 42.13,-204.32 18.83,72.15 30.85,118.73 -79.88,179.12l0.04 0zm-118.24 113.21c-2.49,7.61 -3.92,15.04 -4.5,22.31 -60.71,1.11 -123.47,13.28 -170.74,42.25 46.29,-18.63 109.99,-29.25 170.53,-30.39 0.95,19.08 7.52,36.77 16.35,52.79 0.94,-20.51 2.45,-37.22 7.64,-52.75 49.48,1.14 94.87,8.99 124.24,24.39 61.33,32.16 29.99,60.06 -19.32,71.99 -37.46,5.8 -84.98,8.54 -143.24,7.72 -189.86,-2.69 -215.77,-63.65 -185.17,-88.09 51.15,-40.77 124.04,-50.62 204.16,-50.17l0.04 -0.04zm103.77 -238.56c-82.04,44.74 -79.3,86.25 -62.31,117.01 1.84,-39.96 7.27,-55.36 84.37,-102.26 73.83,-44.95 46.13,-92.21 24.63,-119.47 11.04,42.17 18.06,69.42 -46.7,104.72zm120.98 641.49c60.22,-51.76 175.64,-141 74.64,-214.25 -43.55,-31.58 -1.84,-82.45 51.52,-52.99 55.36,30.52 78.81,86.61 23.9,156.03 -42.98,54.3 -98.96,83.63 -150.07,111.25l0 -0.04z"/>
  </g>
  <polygon class="fil4" points="402.24,1046.05 606.53,1046.05 749.11,1501.46 889.63,1046.05 1088.02,1046.05 853.09,1678.8 641.3,1678.8 "/>
  <polygon id="_1" class="fil4" points="1151.5,1046.05 1674.67,1046.05 1674.67,1181.26 1347.69,1181.26 1347.69,1282 1650.81,1282 1650.81,1411.03 1347.69,1411.03 1347.69,1535.64 1684.39,1535.64 1684.39,1678.8 1151.5,1678.8 "/>
  <polygon id="_2" class="fil4" points="1789.71,1046.05 2312.87,1046.05 2312.87,1181.26 1985.89,1181.26 1985.89,1282 2289.01,1282 2289.01,1411.03 1985.89,1411.03 1985.89,1535.64 2322.6,1535.64 2322.6,1678.8 1789.71,1678.8 "/>
  <g>
   <path id="_3" class="fil3" d="M402.24 1009.22l204.29 0c17.28,0 31.79,11.91 35.75,27.97l106.59 340.48 105.65 -342.42c4.85,-15.79 19.39,-25.94 35.1,-25.94l0 -0.1 198.39 0c20.33,0 36.82,16.49 36.82,36.82 0,5.65 -1.27,11 -3.55,15.79l-233.82 629.77c-5.5,14.76 -19.5,23.89 -34.38,23.89l0 0.13 -211.8 0c-16.67,0 -30.76,-11.08 -35.29,-26.29l-238.14 -630.35c-7.15,-18.98 2.46,-40.18 21.44,-47.32 4.27,-1.61 8.64,-2.37 12.94,-2.36l0 -0.08zm0 36.82l204.29 0 142.58 455.41 140.51 -455.41 198.39 0 -234.93 632.75 -211.8 0 -239.05 -632.75z"/>
  </g>
  <g>
   <path id="_4" class="fil3" d="M1151.5 1009.22l523.17 0c20.33,0 36.82,16.49 36.82,36.82l0 135.21c0,20.33 -16.49,36.82 -36.82,36.82l-290.16 0 0 27.1 266.3 0c20.33,0 36.82,16.49 36.82,36.82l0 129.02c0,20.33 -16.49,36.82 -36.82,36.82l-266.3 0 0 50.96 299.88 0c20.33,0 36.82,16.49 36.82,36.82l0 143.16c0,20.33 -16.49,36.82 -36.82,36.82l-532.89 0c-20.33,0 -36.82,-16.49 -36.82,-36.82l0 -632.75c0,-20.33 16.49,-36.82 36.82,-36.82zm0 36.82l523.17 0 0 135.21 -326.98 0 0 100.75 303.12 0 0 129.02 -303.12 0 0 124.61 336.7 0 0 143.16 -532.89 0 0 -632.75z"/>
  </g>
  <g>
   <path id="_5" class="fil3" d="M1789.71 1009.22l523.17 0c20.33,0 36.82,16.49 36.82,36.82l0 135.21c0,20.33 -16.49,36.82 -36.82,36.82l-290.16 0 0 27.1 266.3 0c20.33,0 36.82,16.49 36.82,36.82l0 129.02c0,20.33 -16.49,36.82 -36.82,36.82l-266.3 0 0 50.96 299.88 0c20.33,0 36.82,16.49 36.82,36.82l0 143.16c0,20.33 -16.49,36.82 -36.82,36.82l-532.89 0c-20.33,0 -36.82,-16.49 -36.82,-36.82l0 -632.75c0,-20.33 16.49,-36.82 36.82,-36.82zm0 36.82l523.17 0 0 135.21 -326.98 0 0 100.75 303.12 0 0 129.02 -303.12 0 0 124.61 336.7 0 0 143.16 -532.89 0 0 -632.75z"/>
  </g>
 </g>
</svg>
