<?xml version="1.0" encoding="UTF-8"?>
<!DOCTYPE svg PUBLIC "-//W3C//DTD SVG 1.1//EN" "http://www.w3.org/Graphics/SVG/1.1/DTD/svg11.dtd">
<!-- Creator: CorelDRAW 2021.5 -->
<svg xmlns="http://www.w3.org/2000/svg" xml:space="preserve" width="6.29167in" height="1.54167in" version="1.1" style="shape-rendering:geometricPrecision; text-rendering:geometricPrecision; image-rendering:optimizeQuality; fill-rule:evenodd; clip-rule:evenodd"
viewBox="0 0 4347.74 1065.34"
 xmlns:xlink="http://www.w3.org/1999/xlink"
 xmlns:xodm="http://www.corel.com/coreldraw/odm/2003">
 <defs>
  <style type="text/css">
   <![CDATA[
    .str0 {stroke:black;stroke-width:28.79;stroke-miterlimit:2.61313}
    .str1 {stroke:black;stroke-width:28.79;stroke-linecap:round;stroke-miterlimit:2.61313}
    .fil1 {fill:none}
    .fil4 {fill:black}
    .fil3 {fill:white}
    .fil0 {fill:white}
    .fil2 {fill:black;fill-rule:nonzero}
   ]]>
  </style>
 </defs>
 <g id="Layer_x0020_1">
  <metadata id="CorelCorpID_0Corel-Layer"/>
  <path class="fil0 str0" d="M83.5 14.4l898.34 0c38.01,0 69.1,31.1 69.1,69.1l0 967.44 -967.44 0c-38.01,0 -69.1,-31.1 -69.1,-69.1l0 -898.34c0,-38.01 31.1,-69.1 69.1,-69.1z"/>
  <line class="fil1 str1" x1="878.19" y1="1050.94" x2="4333.35" y2= "1050.94" />
  <polygon class="fil2" points="157.27,408.98 237.14,408.98 292.88,587.03 347.82,408.98 425.39,408.98 333.54,656.37 250.73,656.37 "/>
  <polygon id="_1" class="fil2" points="450.21,408.98 654.75,408.98 654.75,461.84 526.91,461.84 526.91,501.23 645.42,501.23 645.42,551.67 526.91,551.67 526.91,600.39 658.55,600.39 658.55,656.37 450.21,656.37 "/>
  <polygon id="_2" class="fil2" points="699.73,408.98 904.27,408.98 904.27,461.84 776.43,461.84 776.43,501.23 894.94,501.23 894.94,551.67 776.43,551.67 776.43,600.39 908.07,600.39 908.07,656.37 699.73,656.37 "/>
  <g>
   <path id="_3" class="fil3" d="M157.27 394.58l79.87 0c6.76,0 12.43,4.66 13.98,10.94l41.67 133.12 41.31 -133.88c1.9,-6.17 7.58,-10.14 13.72,-10.14l0 -0.04 77.57 0c7.95,0 14.4,6.45 14.4,14.4 0,2.21 -0.5,4.3 -1.39,6.17l-91.42 246.22c-2.15,5.77 -7.62,9.34 -13.44,9.34l0 0.05 -82.81 0c-6.52,0 -12.03,-4.33 -13.8,-10.28l-93.11 -246.45c-2.79,-7.42 0.96,-15.71 8.38,-18.5 1.67,-0.63 3.38,-0.93 5.06,-0.92l0 -0.03zm0 14.4l79.87 0 55.75 178.05 54.94 -178.05 77.57 0 -91.85 247.39 -82.81 0 -93.46 -247.39z"/>
  </g>
  <g>
   <path id="_4" class="fil3" d="M450.21 394.58l204.55 0c7.95,0 14.4,6.45 14.4,14.4l0 52.86c0,7.95 -6.45,14.4 -14.4,14.4l-113.44 0 0 10.59 104.11 0c7.95,0 14.4,6.45 14.4,14.4l0 50.45c0,7.95 -6.45,14.4 -14.4,14.4l-104.11 0 0 19.92 117.24 0c7.95,0 14.4,6.45 14.4,14.4l0 55.97c0,7.95 -6.45,14.4 -14.4,14.4l-208.35 0c-7.95,0 -14.4,-6.45 -14.4,-14.4l0 -247.39c0,-7.95 6.45,-14.4 14.4,-14.4zm0 14.4l204.55 0 0 52.86 -127.84 0 0 39.39 118.51 0 0 50.45 -118.51 0 0 48.72 131.64 0 0 55.97 -208.35 0 0 -247.39z"/>
  </g>
  <g>
   <path id="_5" class="fil3" d="M699.73 394.58l204.55 0c7.95,0 14.4,6.45 14.4,14.4l0 52.86c0,7.95 -6.45,14.4 -14.4,14.4l-113.44 0 0 10.59 104.11 0c7.95,0 14.4,6.45 14.4,14.4l0 50.45c0,7.95 -6.45,14.4 -14.4,14.4l-104.11 0 0 19.92 117.24 0c7.95,0 14.4,6.45 14.4,14.4l0 55.97c0,7.95 -6.45,14.4 -14.4,14.4l-208.35 0c-7.95,0 -14.4,-6.45 -14.4,-14.4l0 -247.39c0,-7.95 6.45,-14.4 14.4,-14.4zm0 14.4l204.55 0 0 52.86 -127.84 0 0 39.39 118.51 0 0 50.45 -118.51 0 0 48.72 131.64 0 0 55.97 -208.35 0 0 -247.39z"/>
  </g>
  <path class="fil4" d="M75.48 671.16c9.01,-3.29 -7.34,0.07 2.24,-0.04l3.79 -0.72c9.67,-5.37 3.58,-2.54 12.58,-2.54 2.61,0 8.11,-3.76 8.62,-4.4 -0.04,-0.04 -2.84,0.97 -1.5,-6.2 -5.39,-15.7 -14.29,-23.15 -19.53,-52.49 -10.83,-60.73 8.28,-121.36 58.78,-150.82 10.34,-6.03 5.24,-4.69 12.02,-24.15 17.9,-51.38 63.06,-91.35 117.53,-97.95 10.87,-1.32 28.04,0.93 36.42,-0.98 6.23,-6.9 10.63,-21.75 15.4,-30.77 5.34,-10.1 11.44,-19.74 17.59,-28.57l20.91 -25.24c7.38,-7.96 15.53,-14.41 24.6,-21.56 90.18,-71.15 222.92,-59.74 299.18,21.25 16.91,17.96 50.85,62.43 54.89,84.59l-33.22 -0.19c-4.8,-0.59 -3.5,-1.78 -7.57,-3.65 -21.91,-10.02 -30.36,28.96 -5.48,28.62 8.61,-0.12 5.97,-4.51 19.25,-4.32 49.87,0.72 38.99,3.83 66.03,-24.6 6.09,-6.4 19.11,-16.8 22.55,-23.85 4.86,-9.97 2.36,-72.25 2.49,-88.34 12.31,-7.59 28.38,-15.85 24.56,-40.96 -6.37,-41.82 -65.94,-40.78 -71.24,0.61 -1.27,9.89 1.29,19.01 5.84,26.01 4.62,7.1 11,10.88 18.71,13.89 -0.87,18.9 -0.25,39.17 -0.24,58.21 0.01,18.33 4,19.39 -18.71,38.36 -5.98,-25.06 -39.84,-69.12 -58.34,-87.74 -4.32,-4.34 -8.49,-7.56 -12.62,-11.81l-14.02 -11.66c-60.18,-48.16 -152.97,-65.32 -233.3,-40.23 -26.01,8.12 -45.9,20.16 -65.83,33.02 -28.92,18.66 -53.36,46.97 -71.98,75.74 -6.54,10.12 -10.67,21.45 -17.43,32.11 -51.23,3.96 -85.66,17.93 -113.58,44.68 -6.91,6.62 -13.33,12.14 -19.6,20.29 -12.42,16.15 -21.45,31.22 -28.66,51 -6.17,16.93 -4.02,12.83 -16.51,23.06 -14.9,12.2 -25.96,23.86 -36.34,42.13 -27.98,49.28 -32.88,108.91 -11.75,162.39 3.88,9.81 9.42,18.82 13.46,27.81zm710.78 -507.36c-17.29,6.46 -10.6,38.56 10.91,30.36 19.55,-7.45 9.18,-37.87 -10.91,-30.36zm159.84 282.35c2.21,7.36 23.95,26.96 35.17,71.14 7.65,30.1 8.07,65.62 -0.32,95.66 -13.85,49.55 -50.18,93.99 -97.65,115.14 -30.53,13.61 -51.21,17.57 -89.16,17.61l-159.15 0.15c-15.69,0.03 -39.28,-3.94 -41.59,12.64 -3.03,21.81 24.34,16.84 37.74,16.85 17.88,0.01 35.79,-0.09 53.66,0.02l0.02 45.76c-11.48,-0.1 -23.03,-0.11 -34.49,0.03 -9.94,0.12 -7.56,0.91 -13.46,-4.27 -12.74,-11.21 -30.82,5.42 -20.64,19.3 8.9,12.13 25.24,-1.58 25.48,-1.65 11.74,-3.15 94.17,2.36 104.19,-2.21 8.44,-3.84 10.84,-9.51 20,-15.96 5.92,3.84 9.38,8.9 15.15,13 8.19,5.82 12.13,4.76 23.35,4.85 3.99,3.51 10.15,11.19 20.19,6.17 6.49,-3.24 11.24,-12.25 5.85,-20.58 -3.75,-5.79 -12.75,-9.23 -20.55,-3.34 -5.69,4.3 -1.41,4.68 -10.59,4.72 -16.03,0.07 -16.86,-12.64 -27.72,-17.24 -18.74,-7.94 -15.64,17.39 -42.88,17.18 -10.3,-0.08 -20.71,-0.11 -31,0.03l0.08 -45.81c91.28,0.73 171.63,10.29 242.15,-49.46 2.19,-1.86 4.35,-3.19 6.45,-5.19 44.39,-42.26 72.93,-93.5 69.77,-166.36 -1.15,-26.57 -7.29,-51.86 -16.48,-73.17 -7.45,-17.28 -17.38,-34.62 -29.01,-49.34l-3.66 -4.22c-1.79,-1.69 -0.31,-0.63 -2.51,-2.06 -2.07,8.3 0.61,-0.27 -2.72,5.36 -1.12,1.88 -0.72,0.92 -1.49,3.42l-0.6 2.13c-0.81,4.18 0.69,3.6 1.77,6.76 -4.52,-0.01 -2.48,-0.76 -5.42,1.07 -0.22,0.14 -0.51,0.4 -0.69,0.56l-1.04 1.47c-0.11,0.15 -0.34,1.05 -0.41,0.85 -0.07,-0.2 -0.27,0.58 -0.38,0.88 -0.26,-0.23 -0.6,-0.57 -0.76,-0.72 -6.61,-5.88 -5.31,-2.23 -6.65,-1.15zm-51.85 -219.5c-25.08,1.12 -40.13,-3.36 -53.18,14.04 -10.22,13.62 -6.42,41.46 -6.41,60.89 0.01,18.8 -8.93,17.81 -19.59,29.87 -13.41,15.19 -40.71,35.71 -39.99,44.27 0.46,5.44 8.89,18.77 22.67,2.56l47.58 -46.11c14.85,-14.01 10.65,-27.45 10.63,-56.33 -0.02,-25.36 -2.88,-30.57 39.58,-27.81 5.52,8.04 13.46,30.81 42.05,26.31 18.38,-2.89 32.8,-17.24 32.52,-38.28 -0.53,-39.71 -52.82,-50.32 -70.1,-21.09 -2.11,3.57 -3.75,8.65 -5.75,11.68zm31.95 -7.73c-22.09,6.06 -13.57,40.98 11.23,34.59 22.22,-5.72 11.66,-40.87 -11.23,-34.59zm19.9 227.22c1.35,-1.07 0.04,-4.73 6.65,1.15 0.16,0.15 0.5,0.49 0.76,0.72 0.11,-0.3 0.31,-1.08 0.38,-0.88 0.07,0.2 0.3,-0.7 0.41,-0.85l1.04 -1.47c0.18,-0.16 0.47,-0.42 0.69,-0.56 2.94,-1.84 0.9,-1.08 5.42,-1.07 -1.08,-3.16 -2.58,-2.58 -1.77,-6.76l0.6 -2.13c0.77,-2.51 0.37,-1.54 1.49,-3.42 3.34,-5.63 0.65,2.94 2.72,-5.36 -4.21,-9.29 -26.54,-27.79 -36.77,-35.6 -9.67,-7.38 -33.41,-21.64 -47.66,-25.04 2.03,-3.41 3.57,-4.06 7.13,-7.49 9.59,-9.24 16.29,-5.97 37.72,-5.84 11.6,33.38 61.76,24.31 60.8,-11.51 -0.68,-25.17 -29.12,-39.33 -49.28,-25.92 -6.11,4.06 -8.11,9.33 -12.65,16.01 -50.4,1.2 -34.17,-3.16 -68.34,26.23 -3.39,2.92 -7.03,6.03 -10.02,9.26 -8.38,9.07 -5.96,18.5 7.02,21.48 63.76,14.64 86.28,55.87 93.67,59.05zm2.9 -115.6c-12.25,6.12 -3.49,26.54 10.62,19.66 12.2,-5.94 3.03,-26.48 -10.62,-19.66zm-873.53 340.61c2.34,1.12 -1.96,-2.83 1.42,1.28 0.71,0.87 1.34,1.89 1.95,2.83 31.54,48.08 84.87,80.47 144.07,83.54 10.83,0.56 69.2,1.72 76.04,-1.28 9.44,-4.15 10.51,-17.47 3.1,-24.26 -10.34,-9.47 -66.17,3.23 -110.33,-9.11 -63.4,-17.72 -81.44,-58.63 -90.53,-66.89 -1.34,7.18 1.46,6.17 1.5,6.2 -0.51,0.64 -6.01,4.4 -8.62,4.4 -8.99,0 -2.9,-2.83 -12.58,2.54l-3.79 0.72c-9.58,0.11 6.76,-3.25 -2.24,0.04zm379.3 60.88c-7.17,3.38 -8.1,13.61 -11.09,22.6l-47.55 152.72c-2.66,10.84 5.56,18.11 16.04,14.76 7.87,-2.51 8.54,-13.13 11.47,-22.22 2.87,-8.92 5.13,-16.95 8,-25.38l40.19 -126.76c2.73,-11.71 -5.54,-21.16 -17.05,-15.73zm86.45 95.94c-5.32,4.09 -12.65,12.28 -18.08,17.54l-36.37 35.55c-8.06,8.75 -1.66,21.53 10.53,18.45 4.63,-1.17 48.91,-45.29 56.09,-51.97 4.68,-4.36 15.94,-12.33 16.58,-19.9 0.88,-10.51 -26.87,-32.43 -33.66,-38.58 -6.19,-5.61 -31.55,-33.02 -37.79,-34.14 -9.98,-1.78 -17.47,10.03 -10.82,18.52 4.65,5.95 13.45,11.46 18.51,17.53 6.67,8.01 10.2,9.91 17.92,17.99 4.31,4.52 14.71,14.39 17.1,19zm-215.39 0.08c3.63,-6.85 12.7,-11.95 18.21,-17.9l36.11 -35.75c10.35,-10.45 1.48,-21.12 -8.07,-19.85 -6.34,0.84 -33.69,30.29 -38.58,34.77 -11.8,10.8 -17,14.6 -27.59,26.3 -2.89,3.19 -7.95,5.65 -7.76,12.09 0.27,8.99 28.83,30.39 34.59,37.91 4.39,5.74 32.56,34.11 38.19,35.25 12.16,2.46 16.3,-10.17 10.58,-18.48l-55.67 -54.35z"/>
 </g>
</svg>
