<?xml version="1.0" encoding="UTF-8"?>
<!DOCTYPE svg PUBLIC "-//W3C//DTD SVG 1.1//EN" "http://www.w3.org/Graphics/SVG/1.1/DTD/svg11.dtd">
<!-- Creator: CorelDRAW 2021.5 -->
<svg xmlns="http://www.w3.org/2000/svg" xml:space="preserve" width="159.808mm" height="39.1584mm" version="1.1" style="shape-rendering:geometricPrecision; text-rendering:geometricPrecision; image-rendering:optimizeQuality; fill-rule:evenodd; clip-rule:evenodd"
viewBox="0 0 11120.31 2724.85"
 xmlns:xlink="http://www.w3.org/1999/xlink"
 xmlns:xodm="http://www.corel.com/coreldraw/odm/2003">
 <defs>
  <style type="text/css">
   <![CDATA[
    .str0 {stroke:black;stroke-width:73.64;stroke-miterlimit:2.61313}
    .str1 {stroke:black;stroke-width:36.82;stroke-miterlimit:2.61313}
    .str2 {stroke:black;stroke-width:73.64;stroke-linecap:round;stroke-miterlimit:2.61313}
    .fil1 {fill:none}
    .fil3 {fill:white}
    .fil0 {fill:white}
    .fil2 {fill:black;fill-rule:nonzero}
   ]]>
  </style>
 </defs>
 <g id="Layer_x0020_1">
  <metadata id="CorelCorpID_0Corel-Layer"/>
  <path class="fil0 str0" d="M213.57 36.82l2297.71 0c97.21,0 176.75,79.54 176.75,176.75l0 2474.45 -2474.45 0c-97.21,0 -176.75,-79.54 -176.75,-176.75l0 -2297.71c0,-97.21 79.54,-176.75 176.75,-176.75z"/>
  <g id="_2306016753856">
   <circle class="fil1 str1" cx="1362.42" cy="1362.42" r="1104.67"/>
   <path class="fil1 str1" d="M2257.67 715.24c82.64,114.11 143.95,244.64 178.22,385.75 -32.27,167.71 -115.29,344.18 -112.55,399.91 16.67,339.74 -4.19,197.93 -82.1,372.54 -150.71,337.79 -250.12,-462.71 -249.95,-466.31 8.73,-172.15 -696.96,-258.36 -525.1,-484.87 223.94,-295.17 568.24,-318.96 791.48,-207.02z"/>
   <path class="fil1 str1" d="M1703.48 2413.35c-107.43,34.84 -222.03,53.74 -341.06,53.74 -82.29,0 -162.45,-9.07 -239.6,-26.13 -0.9,-74.76 9.59,-136.11 177.21,-161.53 139.57,-21.17 125.25,155.71 267.25,22.32 22.94,-21.55 109.12,10.52 136.2,111.6z"/>
   <path class="fil1 str1" d="M523 2080.46c-165.33,-193.11 -265.24,-443.88 -265.24,-718.04 0,-109.62 16.05,-215.46 45.78,-315.42 77.46,4.27 8.93,36.98 151.94,214.8 63.37,78.79 147.29,234.17 41.73,323.3 -214.13,180.83 27.03,254.69 27.03,468.45 0,9.3 -0.42,18.27 -1.24,26.92z"/>
  </g>
  <polygon class="fil2" points="776.88,1046.05 1300.05,1046.05 1300.05,1181.26 973.07,1181.26 973.07,1282 1276.19,1282 1276.19,1411.03 973.07,1411.03 973.07,1535.64 1309.77,1535.64 1309.77,1678.8 776.88,1678.8 "/>
  <polygon id="_1" class="fil2" points="1415.08,1046.05 1938.25,1046.05 1938.25,1181.26 1611.27,1181.26 1611.27,1282 1914.39,1282 1914.39,1411.03 1611.27,1411.03 1611.27,1535.64 1947.97,1535.64 1947.97,1678.8 1415.08,1678.8 "/>
  <g>
   <path id="_2" class="fil3" d="M776.88 1009.22l523.17 0c20.33,0 36.82,16.49 36.82,36.82l0 135.21c0,20.33 -16.49,36.82 -36.82,36.82l-290.16 0 0 27.1 266.3 0c20.33,0 36.82,16.49 36.82,36.82l0 129.02c0,20.33 -16.49,36.82 -36.82,36.82l-266.3 0 0 50.96 299.88 0c20.33,0 36.82,16.49 36.82,36.82l0 143.16c0,20.33 -16.49,36.82 -36.82,36.82l-532.89 0c-20.33,0 -36.82,-16.49 -36.82,-36.82l0 -632.75c0,-20.33 16.49,-36.82 36.82,-36.82zm0 36.82l523.17 0 0 135.21 -326.98 0 0 100.75 303.12 0 0 129.02 -303.12 0 0 124.61 336.7 0 0 143.16 -532.89 0 0 -632.75z"/>
  </g>
  <g>
   <path id="_3" class="fil3" d="M1415.08 1009.22l523.17 0c20.33,0 36.82,16.49 36.82,36.82l0 135.21c0,20.33 -16.49,36.82 -36.82,36.82l-290.16 0 0 27.1 266.3 0c20.33,0 36.82,16.49 36.82,36.82l0 129.02c0,20.33 -16.49,36.82 -36.82,36.82l-266.3 0 0 50.96 299.88 0c20.33,0 36.82,16.49 36.82,36.82l0 143.16c0,20.33 -16.49,36.82 -36.82,36.82l-532.89 0c-20.33,0 -36.82,-16.49 -36.82,-36.82l0 -632.75c0,-20.33 16.49,-36.82 36.82,-36.82zm0 36.82l523.17 0 0 135.21 -326.98 0 0 100.75 303.12 0 0 129.02 -303.12 0 0 124.61 336.7 0 0 143.16 -532.89 0 0 -632.75z"/>
  </g>
  <line class="fil1 str2" x1="2246.16" y1="2688.01" x2="11083.48" y2= "2688.01" />
 </g>
</svg>
