<?xml version="1.0" encoding="UTF-8"?>
<!DOCTYPE svg PUBLIC "-//W3C//DTD SVG 1.1//EN" "http://www.w3.org/Graphics/SVG/1.1/DTD/svg11.dtd">
<!-- Creator: CorelDRAW 2021.5 -->
<svg xmlns="http://www.w3.org/2000/svg" xml:space="preserve" width="33.7867mm" height="33.9173mm" version="1.1" style="shape-rendering:geometricPrecision; text-rendering:geometricPrecision; image-rendering:optimizeQuality; fill-rule:evenodd; clip-rule:evenodd"
viewBox="0 0 1537.93 1543.88"
 xmlns:xlink="http://www.w3.org/1999/xlink"
 xmlns:xodm="http://www.corel.com/coreldraw/odm/2003">
 <defs>
  <style type="text/css">
   <![CDATA[
    .str0 {stroke:black;stroke-width:32.12;stroke-miterlimit:2.61313}
    .fil1 {fill:none}
    .fil2 {fill:white}
    .fil0 {fill:white;fill-opacity:0.200000}
   ]]>
  </style>
 </defs>
 <g id="Layer_x0020_1">
  <metadata id="CorelCorpID_0Corel-Layer"/>
  <g id="_2306078517056">
   <g id="G1Gear" data-id="0">
    <g>
     <polygon class="fil0" points="1407.24,735.07 1409.64,726.87 1412.33,723.6 1415.08,721.2 1420.66,717.71 1426.27,714.74 1432.01,713.39 1443.43,709.78 1454.73,705.29 1465.95,700.04 1477.08,694.15 1488.1,687.63 1499.01,680.56 1509.81,672.94 1517.83,666.88 1503.91,593.93 1494.24,591.25 1481.4,588.13 1468.63,585.56 1456,583.58 1443.48,582.19 1431.12,581.46 1418.94,581.44 1407.01,582.29 1401.16,583.13 1394.85,582.45 1388.38,581.24 1384.94,580.03 1381.24,577.98 1375.99,571.24 1356.13,518.99 1355.58,510.47 1356.99,506.47 1358.76,503.29 1362.81,498.09 1367.06,493.38 1372,490.13 1381.5,482.85 1390.59,474.76 1399.34,465.99 1407.77,456.65 1415.91,446.76 1423.73,436.37 1431.28,425.52 1436.74,417.08 1398.71,353.3 1388.69,354.09 1375.56,355.56 1362.7,357.5 1350.14,359.95 1337.9,362.94 1326.03,366.47 1314.58,370.62 1303.67,375.49 1298.47,378.29 1292.3,379.8 1285.81,380.89 1282.17,380.92 1277.98,380.27 1270.74,375.74 1234.2,333.41 1230.78,325.6 1230.75,321.36 1231.32,317.75 1233.34,311.5 1235.73,305.61 1239.25,300.88 1245.69,290.78 1251.45,280.06 1256.68,268.84 1261.42,257.17 1265.67,245.11 1269.49,232.66 1272.85,219.89 1275.11,210.1 1217.56,163.15 1208.4,167.32 1196.57,173.2 1185.15,179.44 1174.19,186.03 1163.7,193.01 1153.76,200.38 1144.42,208.19 1135.84,216.52 1131.91,220.93 1126.61,224.45 1120.9,227.7 1117.49,228.98 1113.33,229.79 1104.96,228 1056.17,200.74 1050.28,194.56 1048.79,190.59 1048.08,187.02 1047.86,180.43 1048.08,174.1 1049.79,168.43 1052.37,156.75 1054.12,144.7 1055.2,132.36 1055.65,119.78 1055.54,106.98 1054.86,94 1053.66,80.84 1052.42,70.85 982.29,46.43 975.11,53.48 966,63.06 957.41,72.82 949.36,82.77 941.91,92.9 935.07,103.25 928.98,113.79 923.74,124.54 921.56,130.02 917.81,135.14 913.52,140.16 910.76,142.53 907.14,144.7 898.68,145.89 843.49,136.94 835.84,133.16 833.08,129.95 831.2,126.83 828.72,120.72 826.78,114.68 826.44,108.79 824.88,96.92 822.41,85 819.19,73.05 815.31,61.06 810.83,49.08 805.75,37.1 800.12,25.14 795.54,16.2 721.28,17.24 716.96,26.3 711.67,38.41 706.93,50.53 702.77,62.64 699.23,74.72 696.36,86.77 694.23,98.75 692.99,110.66 692.81,116.55 691.03,122.64 688.72,128.81 686.94,131.99 684.28,135.27 676.72,139.28 621.82,149.76 613.33,148.81 609.65,146.73 606.8,144.44 602.4,139.56 598.5,134.54 596.17,129.12 590.63,118.51 584.23,108.15 577.14,98.01 569.39,88.08 561.06,78.36 552.21,68.82 542.83,59.52 535.45,52.68 466.04,79.06 465.08,89.06 464.25,102.24 463.94,115.25 464.17,128.04 464.97,140.61 466.39,152.92 468.49,164.91 471.39,176.52 473.25,182.12 473.67,188.45 473.6,195.04 473,198.63 471.64,202.64 465.91,208.98 417.89,237.6 409.59,239.62 405.42,238.92 401.98,237.75 396.15,234.66 390.77,231.29 386.73,226.98 377.9,218.91 368.35,211.36 358.2,204.27 347.53,197.57 336.39,191.27 324.8,185.37 312.8,179.83 303.54,175.92 247.33,224.45 249.84,234.18 253.58,246.86 257.74,259.18 262.33,271.12 267.38,282.66 272.92,293.74 278.99,304.28 285.7,314.2 289.35,318.82 291.9,324.64 294.11,330.84 294.78,334.43 294.86,338.65 291.64,346.58 256.31,389.9 249.2,394.64 245.04,395.4 241.4,395.47 234.87,394.56 228.67,393.23 223.39,390.58 212.34,386 200.79,382.19 188.82,378.99 176.51,376.35 163.88,374.25 150.97,372.65 137.8,371.55 127.77,371.05 91.54,435.87 97.22,444.15 105.07,454.78 113.19,464.95 121.6,474.61 130.28,483.72 139.28,492.23 148.6,500.06 158.28,507.09 163.31,510.19 167.7,514.79 171.89,519.85 173.74,522.98 175.27,526.94 174.96,535.47 156.58,588.28 151.51,595.16 147.85,597.3 144.46,598.62 138.01,599.98 131.73,600.86 125.87,600.18 113.92,599.66 101.74,600.02 89.41,601.1 76.94,602.84 64.36,605.18 51.68,608.1 38.93,611.56 29.32,614.52 17.45,687.83 25.63,693.66 36.64,700.99 47.75,707.75 58.94,713.94 70.22,719.53 81.59,724.46 93.02,728.64 104.53,731.92 110.31,733.12 116,735.93 121.68,739.28 124.49,741.58 127.27,744.78 129.9,752.89 130.69,808.81 128.29,817 125.59,820.27 122.85,822.66 117.26,826.16 111.64,829.12 105.91,830.48 94.5,834.09 83.18,838.58 71.96,843.83 60.84,849.72 49.81,856.24 38.9,863.3 28.1,870.93 20.1,876.99 34.01,949.93 43.69,952.62 56.53,955.73 69.28,958.29 81.93,960.29 94.45,961.67 106.81,962.41 118.98,962.43 130.92,961.58 136.77,960.72 143.07,961.43 149.54,962.63 152.97,963.83 156.69,965.87 161.93,972.61 181.79,1024.88 182.33,1033.41 180.91,1037.4 179.16,1040.58 175.12,1045.78 170.85,1050.49 165.91,1053.74 156.43,1061.01 147.34,1069.11 138.58,1077.87 130.16,1087.22 122.02,1097.11 114.17,1107.49 106.64,1118.35 101.19,1126.77 139.2,1190.57 149.22,1189.78 162.36,1188.32 175.22,1186.35 187.78,1183.9 200.01,1180.93 211.88,1177.4 223.33,1173.25 234.26,1168.38 239.45,1165.57 245.62,1164.08 252.12,1162.97 255.76,1162.94 259.94,1163.6 267.19,1168.13 303.71,1210.45 307.13,1218.27 307.18,1222.51 306.61,1226.1 304.58,1232.37 302.19,1238.25 298.67,1242.99 292.24,1253.09 286.46,1263.81 281.23,1275.03 276.51,1286.68 272.25,1298.77 268.44,1311.21 265.06,1323.98 262.82,1333.77 320.37,1380.7 329.51,1376.55 341.35,1370.67 352.76,1364.43 363.74,1357.84 374.21,1350.86 384.17,1343.47 393.5,1335.66 402.09,1327.35 406.02,1322.93 411.3,1319.4 417.03,1316.16 420.44,1314.89 424.6,1314.08 432.94,1315.87 481.75,1343.13 487.65,1349.31 489.13,1353.28 489.82,1356.85 490.07,1363.42 489.84,1369.77 488.13,1375.43 485.55,1387.12 483.78,1399.17 482.71,1411.49 482.26,1424.07 482.39,1436.87 483.05,1449.86 484.27,1463.03 485.51,1473 555.64,1497.42 562.8,1490.37 571.93,1480.81 580.52,1471.05 588.57,1461.1 596.02,1450.95 602.84,1440.62 608.95,1430.08 614.18,1419.32 616.37,1413.83 620.12,1408.71 624.39,1403.71 627.17,1401.34 630.79,1399.15 639.25,1397.98 694.44,1406.91 702.09,1410.71 704.85,1413.93 706.72,1417.05 709.2,1423.15 711.15,1429.19 711.49,1435.09 713.05,1446.94 715.51,1458.87 718.73,1470.82 722.6,1482.81 727.09,1494.79 732.17,1506.77 737.8,1518.73 742.38,1527.67 816.63,1526.63 820.96,1517.56 826.26,1505.46 831,1493.34 835.16,1481.23 838.7,1469.15 841.57,1457.1 843.7,1445.12 844.93,1433.22 845.11,1427.32 846.88,1421.22 849.19,1415.05 850.99,1411.88 853.64,1408.58 861.19,1404.59 916.1,1394.11 924.6,1395.06 928.28,1397.14 931.11,1399.43 935.53,1404.31 939.42,1409.33 941.76,1414.76 947.3,1425.36 953.68,1435.72 960.79,1445.87 968.54,1455.79 976.85,1465.51 985.71,1475.03 995.1,1484.35 1002.46,1491.19 1071.89,1464.82 1072.85,1454.81 1073.67,1441.63 1073.98,1428.62 1073.76,1415.83 1072.95,1403.26 1071.53,1390.95 1069.44,1378.97 1066.53,1367.36 1064.66,1361.75 1064.26,1355.4 1064.31,1348.83 1064.91,1345.24 1066.29,1341.23 1072,1334.9 1120.04,1306.27 1128.33,1304.24 1132.51,1304.94 1135.95,1306.12 1141.76,1309.21 1147.14,1312.58 1151.19,1316.89 1160.01,1324.96 1169.58,1332.51 1179.71,1339.6 1190.39,1346.3 1201.53,1352.58 1213.13,1358.49 1225.13,1364.04 1234.38,1367.96 1290.6,1319.42 1288.08,1309.69 1284.35,1297.01 1280.19,1284.69 1275.6,1272.74 1270.54,1261.21 1265.01,1250.13 1258.93,1239.58 1252.23,1229.68 1248.56,1225.05 1246.01,1219.23 1243.82,1213.01 1243.15,1209.44 1243.07,1205.21 1246.27,1197.29 1281.6,1153.97 1288.71,1149.23 1292.89,1148.45 1296.53,1148.39 1303.04,1149.3 1309.26,1150.63 1314.53,1153.29 1325.58,1157.85 1337.14,1161.69 1349.1,1164.89 1361.41,1167.52 1374.04,1169.61 1386.95,1171.22 1400.12,1172.31 1410.16,1172.82 1446.38,1108.01 1440.7,1099.72 1432.86,1089.07 1424.74,1078.92 1416.33,1069.26 1407.62,1060.15 1398.65,1051.64 1389.33,1043.8 1379.63,1036.78 1374.61,1033.68 1370.23,1029.09 1366.04,1024 1364.19,1020.87 1362.66,1016.93 1362.97,1008.38 1381.35,955.59 1386.42,948.71 1390.06,946.57 1393.47,945.25 1399.89,943.87 1406.19,943.01 1412.06,943.69 1424.01,944.21 1436.17,943.86 1448.51,942.77 1460.99,941.03 1473.57,938.69 1486.25,935.77 1498.99,932.29 1508.61,929.34 1520.48,856.04 1512.29,850.21 1501.28,842.89 1490.18,836.12 1478.97,829.91 1467.69,824.33 1456.34,819.41 1444.89,815.23 1433.4,811.94 1427.62,810.75 1421.92,807.95 1416.25,804.6 1413.44,802.29 1410.65,799.09 1408.02,790.96 "/>
     <polygon id="_1" class="fil1 str0" points="1407.24,735.07 1409.64,726.87 1412.33,723.6 1415.08,721.2 1420.66,717.71 1426.27,714.74 1432.01,713.39 1443.43,709.78 1454.73,705.29 1465.95,700.04 1477.08,694.15 1488.1,687.63 1499.01,680.56 1509.81,672.94 1517.83,666.88 1503.91,593.93 1494.24,591.25 1481.4,588.13 1468.63,585.56 1456,583.58 1443.48,582.19 1431.12,581.46 1418.94,581.44 1407.01,582.29 1401.16,583.13 1394.85,582.45 1388.38,581.24 1384.94,580.03 1381.24,577.98 1375.99,571.24 1356.13,518.99 1355.58,510.47 1356.99,506.47 1358.76,503.29 1362.81,498.09 1367.06,493.38 1372,490.13 1381.5,482.85 1390.59,474.76 1399.34,465.99 1407.77,456.65 1415.91,446.76 1423.73,436.37 1431.28,425.52 1436.74,417.08 1398.71,353.3 1388.69,354.09 1375.56,355.56 1362.7,357.5 1350.14,359.95 1337.9,362.94 1326.03,366.47 1314.58,370.62 1303.67,375.49 1298.47,378.29 1292.3,379.8 1285.81,380.89 1282.17,380.92 1277.98,380.27 1270.74,375.74 1234.2,333.41 1230.78,325.6 1230.75,321.36 1231.32,317.75 1233.34,311.5 1235.73,305.61 1239.25,300.88 1245.69,290.78 1251.45,280.06 1256.68,268.84 1261.42,257.17 1265.67,245.11 1269.49,232.66 1272.85,219.89 1275.11,210.1 1217.56,163.15 1208.4,167.32 1196.57,173.2 1185.15,179.44 1174.19,186.03 1163.7,193.01 1153.76,200.38 1144.42,208.19 1135.84,216.52 1131.91,220.93 1126.61,224.45 1120.9,227.7 1117.49,228.98 1113.33,229.79 1104.96,228 1056.17,200.74 1050.28,194.56 1048.79,190.59 1048.08,187.02 1047.86,180.43 1048.08,174.1 1049.79,168.43 1052.37,156.75 1054.12,144.7 1055.2,132.36 1055.65,119.78 1055.54,106.98 1054.86,94 1053.66,80.84 1052.42,70.85 982.29,46.43 975.11,53.48 966,63.06 957.41,72.82 949.36,82.77 941.91,92.9 935.07,103.25 928.98,113.79 923.74,124.54 921.56,130.02 917.81,135.14 913.52,140.16 910.76,142.53 907.14,144.7 898.68,145.89 843.49,136.94 835.84,133.16 833.08,129.95 831.2,126.83 828.72,120.72 826.78,114.68 826.44,108.79 824.88,96.92 822.41,85 819.19,73.05 815.31,61.06 810.83,49.08 805.75,37.1 800.12,25.14 795.54,16.2 721.28,17.24 716.96,26.3 711.67,38.41 706.93,50.53 702.77,62.64 699.23,74.72 696.36,86.77 694.23,98.75 692.99,110.66 692.81,116.55 691.03,122.64 688.72,128.81 686.94,131.99 684.28,135.27 676.72,139.28 621.82,149.76 613.33,148.81 609.65,146.73 606.8,144.44 602.4,139.56 598.5,134.54 596.17,129.12 590.63,118.51 584.23,108.15 577.14,98.01 569.39,88.08 561.06,78.36 552.21,68.82 542.83,59.52 535.45,52.68 466.04,79.06 465.08,89.06 464.25,102.24 463.94,115.25 464.17,128.04 464.97,140.61 466.39,152.92 468.49,164.91 471.39,176.52 473.25,182.12 473.67,188.45 473.6,195.04 473,198.63 471.64,202.64 465.91,208.98 417.89,237.6 409.59,239.62 405.42,238.92 401.98,237.75 396.15,234.66 390.77,231.29 386.73,226.98 377.9,218.91 368.35,211.36 358.2,204.27 347.53,197.57 336.39,191.27 324.8,185.37 312.8,179.83 303.54,175.92 247.33,224.45 249.84,234.18 253.58,246.86 257.74,259.18 262.33,271.12 267.38,282.66 272.92,293.74 278.99,304.28 285.7,314.2 289.35,318.82 291.9,324.64 294.11,330.84 294.78,334.43 294.86,338.65 291.64,346.58 256.31,389.9 249.2,394.64 245.04,395.4 241.4,395.47 234.87,394.56 228.67,393.23 223.39,390.58 212.34,386 200.79,382.19 188.82,378.99 176.51,376.35 163.88,374.25 150.97,372.65 137.8,371.55 127.77,371.05 91.54,435.87 97.22,444.15 105.07,454.78 113.19,464.95 121.6,474.61 130.28,483.72 139.28,492.23 148.6,500.06 158.28,507.09 163.31,510.19 167.7,514.79 171.89,519.85 173.74,522.98 175.27,526.94 174.96,535.47 156.58,588.28 151.51,595.16 147.85,597.3 144.46,598.62 138.01,599.98 131.73,600.86 125.87,600.18 113.92,599.66 101.74,600.02 89.41,601.1 76.94,602.84 64.36,605.18 51.68,608.1 38.93,611.56 29.32,614.52 17.45,687.83 25.63,693.66 36.64,700.99 47.75,707.75 58.94,713.94 70.22,719.53 81.59,724.46 93.02,728.64 104.53,731.92 110.31,733.12 116,735.93 121.68,739.28 124.49,741.58 127.27,744.78 129.9,752.89 130.69,808.81 128.29,817 125.59,820.27 122.85,822.66 117.26,826.16 111.64,829.12 105.91,830.48 94.5,834.09 83.18,838.58 71.96,843.83 60.84,849.72 49.81,856.24 38.9,863.3 28.1,870.93 20.1,876.99 34.01,949.93 43.69,952.62 56.53,955.73 69.28,958.29 81.93,960.29 94.45,961.67 106.81,962.41 118.98,962.43 130.92,961.58 136.77,960.72 143.07,961.43 149.54,962.63 152.97,963.83 156.69,965.87 161.93,972.61 181.79,1024.88 182.33,1033.41 180.91,1037.4 179.16,1040.58 175.12,1045.78 170.85,1050.49 165.91,1053.74 156.43,1061.01 147.34,1069.11 138.58,1077.87 130.16,1087.22 122.02,1097.11 114.17,1107.49 106.64,1118.35 101.19,1126.77 139.2,1190.57 149.22,1189.78 162.36,1188.32 175.22,1186.35 187.78,1183.9 200.01,1180.93 211.88,1177.4 223.33,1173.25 234.26,1168.38 239.45,1165.57 245.62,1164.08 252.12,1162.97 255.76,1162.94 259.94,1163.6 267.19,1168.13 303.71,1210.45 307.13,1218.27 307.18,1222.51 306.61,1226.1 304.58,1232.37 302.19,1238.25 298.67,1242.99 292.24,1253.09 286.46,1263.81 281.23,1275.03 276.51,1286.68 272.25,1298.77 268.44,1311.21 265.06,1323.98 262.82,1333.77 320.37,1380.7 329.51,1376.55 341.35,1370.67 352.76,1364.43 363.74,1357.84 374.21,1350.86 384.17,1343.47 393.5,1335.66 402.09,1327.35 406.02,1322.93 411.3,1319.4 417.03,1316.16 420.44,1314.89 424.6,1314.08 432.94,1315.87 481.75,1343.13 487.65,1349.31 489.13,1353.28 489.82,1356.85 490.07,1363.42 489.84,1369.77 488.13,1375.43 485.55,1387.12 483.78,1399.17 482.71,1411.49 482.26,1424.07 482.39,1436.87 483.05,1449.86 484.27,1463.03 485.51,1473 555.64,1497.42 562.8,1490.37 571.93,1480.81 580.52,1471.05 588.57,1461.1 596.02,1450.95 602.84,1440.62 608.95,1430.08 614.18,1419.32 616.37,1413.83 620.12,1408.71 624.39,1403.71 627.17,1401.34 630.79,1399.15 639.25,1397.98 694.44,1406.91 702.09,1410.71 704.85,1413.93 706.72,1417.05 709.2,1423.15 711.15,1429.19 711.49,1435.09 713.05,1446.94 715.51,1458.87 718.73,1470.82 722.6,1482.81 727.09,1494.79 732.17,1506.77 737.8,1518.73 742.38,1527.67 816.63,1526.63 820.96,1517.56 826.26,1505.46 831,1493.34 835.16,1481.23 838.7,1469.15 841.57,1457.1 843.7,1445.12 844.93,1433.22 845.11,1427.32 846.88,1421.22 849.19,1415.05 850.99,1411.88 853.64,1408.58 861.19,1404.59 916.1,1394.11 924.6,1395.06 928.28,1397.14 931.11,1399.43 935.53,1404.31 939.42,1409.33 941.76,1414.76 947.3,1425.36 953.68,1435.72 960.79,1445.87 968.54,1455.79 976.85,1465.51 985.71,1475.03 995.1,1484.35 1002.46,1491.19 1071.89,1464.82 1072.85,1454.81 1073.67,1441.63 1073.98,1428.62 1073.76,1415.83 1072.95,1403.26 1071.53,1390.95 1069.44,1378.97 1066.53,1367.36 1064.66,1361.75 1064.26,1355.4 1064.31,1348.83 1064.91,1345.24 1066.29,1341.23 1072,1334.9 1120.04,1306.27 1128.33,1304.24 1132.51,1304.94 1135.95,1306.12 1141.76,1309.21 1147.14,1312.58 1151.19,1316.89 1160.01,1324.96 1169.58,1332.51 1179.71,1339.6 1190.39,1346.3 1201.53,1352.58 1213.13,1358.49 1225.13,1364.04 1234.38,1367.96 1290.6,1319.42 1288.08,1309.69 1284.35,1297.01 1280.19,1284.69 1275.6,1272.74 1270.54,1261.21 1265.01,1250.13 1258.93,1239.58 1252.23,1229.68 1248.56,1225.05 1246.01,1219.23 1243.82,1213.01 1243.15,1209.44 1243.07,1205.21 1246.27,1197.29 1281.6,1153.97 1288.71,1149.23 1292.89,1148.45 1296.53,1148.39 1303.04,1149.3 1309.26,1150.63 1314.53,1153.29 1325.58,1157.85 1337.14,1161.69 1349.1,1164.89 1361.41,1167.52 1374.04,1169.61 1386.95,1171.22 1400.12,1172.31 1410.16,1172.82 1446.38,1108.01 1440.7,1099.72 1432.86,1089.07 1424.74,1078.92 1416.33,1069.26 1407.62,1060.15 1398.65,1051.64 1389.33,1043.8 1379.63,1036.78 1374.61,1033.68 1370.23,1029.09 1366.04,1024 1364.19,1020.87 1362.66,1016.93 1362.97,1008.38 1381.35,955.59 1386.42,948.71 1390.06,946.57 1393.47,945.25 1399.89,943.87 1406.19,943.01 1412.06,943.69 1424.01,944.21 1436.17,943.86 1448.51,942.77 1460.99,941.03 1473.57,938.69 1486.25,935.77 1498.99,932.29 1508.61,929.34 1520.48,856.04 1512.29,850.21 1501.28,842.89 1490.18,836.12 1478.97,829.91 1467.69,824.33 1456.34,819.41 1444.89,815.23 1433.4,811.94 1427.62,810.75 1421.92,807.95 1416.25,804.6 1413.44,802.29 1410.65,799.09 1408.02,790.96 "/>
    </g>
    <polygon class="fil2 str0" points="1407.24,735.07 1409.64,726.87 1412.33,723.6 1415.08,721.2 1420.66,717.71 1426.27,714.74 1432.01,713.39 1443.43,709.78 1454.73,705.29 1465.95,700.04 1477.08,694.15 1488.1,687.63 1499.01,680.56 1509.81,672.94 1517.83,666.88 1503.91,593.93 1494.24,591.25 1481.4,588.13 1468.63,585.56 1456,583.58 1443.48,582.19 1431.12,581.46 1418.94,581.44 1407.01,582.29 1401.16,583.13 1394.85,582.45 1388.38,581.24 1384.94,580.03 1381.24,577.98 1375.99,571.24 1356.13,518.99 1355.58,510.47 1356.99,506.47 1358.76,503.29 1362.81,498.09 1367.06,493.38 1372,490.13 1381.5,482.85 1390.59,474.76 1399.34,465.99 1407.77,456.65 1415.91,446.76 1423.73,436.37 1431.28,425.52 1436.74,417.08 1398.71,353.3 1388.69,354.09 1375.56,355.56 1362.7,357.5 1350.14,359.95 1337.9,362.94 1326.03,366.47 1314.58,370.62 1303.67,375.49 1298.47,378.29 1292.3,379.8 1285.81,380.89 1282.17,380.92 1277.98,380.27 1270.74,375.74 1234.2,333.41 1230.78,325.6 1230.75,321.36 1231.32,317.75 1233.34,311.5 1235.73,305.61 1239.25,300.88 1245.69,290.78 1251.45,280.06 1256.68,268.84 1261.42,257.17 1265.67,245.11 1269.49,232.66 1272.85,219.89 1275.11,210.1 1217.56,163.15 1208.4,167.32 1196.57,173.2 1185.15,179.44 1174.19,186.03 1163.7,193.01 1153.76,200.38 1144.42,208.19 1135.84,216.52 1131.91,220.93 1126.61,224.45 1120.9,227.7 1117.49,228.98 1113.33,229.79 1104.96,228 1056.17,200.74 1050.28,194.56 1048.79,190.59 1048.08,187.02 1047.86,180.43 1048.08,174.1 1049.79,168.43 1052.37,156.75 1054.12,144.7 1055.2,132.36 1055.65,119.78 1055.54,106.98 1054.86,94 1053.66,80.84 1052.42,70.85 982.29,46.43 975.11,53.48 966,63.06 957.41,72.82 949.36,82.77 941.91,92.9 935.07,103.25 928.98,113.79 923.74,124.54 921.56,130.02 917.81,135.14 913.52,140.16 910.76,142.53 907.14,144.7 898.68,145.89 843.49,136.94 835.84,133.16 833.08,129.95 831.2,126.83 828.72,120.72 826.78,114.68 826.44,108.79 824.88,96.92 822.41,85 819.19,73.05 815.31,61.06 810.83,49.08 805.75,37.1 800.12,25.14 795.54,16.2 721.28,17.24 716.96,26.3 711.67,38.41 706.93,50.53 702.77,62.64 699.23,74.72 696.36,86.77 694.23,98.75 692.99,110.66 692.81,116.55 691.03,122.64 688.72,128.81 686.94,131.99 684.28,135.27 676.72,139.28 621.82,149.76 613.33,148.81 609.65,146.73 606.8,144.44 602.4,139.56 598.5,134.54 596.17,129.12 590.63,118.51 584.23,108.15 577.14,98.01 569.39,88.08 561.06,78.36 552.21,68.82 542.83,59.52 535.45,52.68 466.04,79.06 465.08,89.06 464.25,102.24 463.94,115.25 464.17,128.04 464.97,140.61 466.39,152.92 468.49,164.91 471.39,176.52 473.25,182.12 473.67,188.45 473.6,195.04 473,198.63 471.64,202.64 465.91,208.98 417.89,237.6 409.59,239.62 405.42,238.92 401.98,237.75 396.15,234.66 390.77,231.29 386.73,226.98 377.9,218.91 368.35,211.36 358.2,204.27 347.53,197.57 336.39,191.27 324.8,185.37 312.8,179.83 303.54,175.92 247.33,224.45 249.84,234.18 253.58,246.86 257.74,259.18 262.33,271.12 267.38,282.66 272.92,293.74 278.99,304.28 285.7,314.2 289.35,318.82 291.9,324.64 294.11,330.84 294.78,334.43 294.86,338.65 291.64,346.58 256.31,389.9 249.2,394.64 245.04,395.4 241.4,395.47 234.87,394.56 228.67,393.23 223.39,390.58 212.34,386 200.79,382.19 188.82,378.99 176.51,376.35 163.88,374.25 150.97,372.65 137.8,371.55 127.77,371.05 91.54,435.87 97.22,444.15 105.07,454.78 113.19,464.95 121.6,474.61 130.28,483.72 139.28,492.23 148.6,500.06 158.28,507.09 163.31,510.19 167.7,514.79 171.89,519.85 173.74,522.98 175.27,526.94 174.96,535.47 156.58,588.28 151.51,595.16 147.85,597.3 144.46,598.62 138.01,599.98 131.73,600.86 125.87,600.18 113.92,599.66 101.74,600.02 89.41,601.1 76.94,602.84 64.36,605.18 51.68,608.1 38.93,611.56 29.32,614.52 17.45,687.83 25.63,693.66 36.64,700.99 47.75,707.75 58.94,713.94 70.22,719.53 81.59,724.46 93.02,728.64 104.53,731.92 110.31,733.12 116,735.93 121.68,739.28 124.49,741.58 127.27,744.78 129.9,752.89 130.69,808.81 128.29,817 125.59,820.27 122.85,822.66 117.26,826.16 111.64,829.12 105.91,830.48 94.5,834.09 83.18,838.58 71.96,843.83 60.84,849.72 49.81,856.24 38.9,863.3 28.1,870.93 20.1,876.99 34.01,949.93 43.69,952.62 56.53,955.73 69.28,958.29 81.93,960.29 94.45,961.67 106.81,962.41 118.98,962.43 130.92,961.58 136.77,960.72 143.07,961.43 149.54,962.63 152.97,963.83 156.69,965.87 161.93,972.61 181.79,1024.88 182.33,1033.41 180.91,1037.4 179.16,1040.58 175.12,1045.78 170.85,1050.49 165.91,1053.74 156.43,1061.01 147.34,1069.11 138.58,1077.87 130.16,1087.22 122.02,1097.11 114.17,1107.49 106.64,1118.35 101.19,1126.77 139.2,1190.57 149.22,1189.78 162.36,1188.32 175.22,1186.35 187.78,1183.9 200.01,1180.93 211.88,1177.4 223.33,1173.25 234.26,1168.38 239.45,1165.57 245.62,1164.08 252.12,1162.97 255.76,1162.94 259.94,1163.6 267.19,1168.13 303.71,1210.45 307.13,1218.27 307.18,1222.51 306.61,1226.1 304.58,1232.37 302.19,1238.25 298.67,1242.99 292.24,1253.09 286.46,1263.81 281.23,1275.03 276.51,1286.68 272.25,1298.77 268.44,1311.21 265.06,1323.98 262.82,1333.77 320.37,1380.7 329.51,1376.55 341.35,1370.67 352.76,1364.43 363.74,1357.84 374.21,1350.86 384.17,1343.47 393.5,1335.66 402.09,1327.35 406.02,1322.93 411.3,1319.4 417.03,1316.16 420.44,1314.89 424.6,1314.08 432.94,1315.87 481.75,1343.13 487.65,1349.31 489.13,1353.28 489.82,1356.85 490.07,1363.42 489.84,1369.77 488.13,1375.43 485.55,1387.12 483.78,1399.17 482.71,1411.49 482.26,1424.07 482.39,1436.87 483.05,1449.86 484.27,1463.03 485.51,1473 555.64,1497.42 562.8,1490.37 571.93,1480.81 580.52,1471.05 588.57,1461.1 596.02,1450.95 602.84,1440.62 608.95,1430.08 614.18,1419.32 616.37,1413.83 620.12,1408.71 624.39,1403.71 627.17,1401.34 630.79,1399.15 639.25,1397.98 694.44,1406.91 702.09,1410.71 704.85,1413.93 706.72,1417.05 709.2,1423.15 711.15,1429.19 711.49,1435.09 713.05,1446.94 715.51,1458.87 718.73,1470.82 722.6,1482.81 727.09,1494.79 732.17,1506.77 737.8,1518.73 742.38,1527.67 816.63,1526.63 820.96,1517.56 826.26,1505.46 831,1493.34 835.16,1481.23 838.7,1469.15 841.57,1457.1 843.7,1445.12 844.93,1433.22 845.11,1427.32 846.88,1421.22 849.19,1415.05 850.99,1411.88 853.64,1408.58 861.19,1404.59 916.1,1394.11 924.6,1395.06 928.28,1397.14 931.11,1399.43 935.53,1404.31 939.42,1409.33 941.76,1414.76 947.3,1425.36 953.68,1435.72 960.79,1445.87 968.54,1455.79 976.85,1465.51 985.71,1475.03 995.1,1484.35 1002.46,1491.19 1071.89,1464.82 1072.85,1454.81 1073.67,1441.63 1073.98,1428.62 1073.76,1415.83 1072.95,1403.26 1071.53,1390.95 1069.44,1378.97 1066.53,1367.36 1064.66,1361.75 1064.26,1355.4 1064.31,1348.83 1064.91,1345.24 1066.29,1341.23 1072,1334.9 1120.04,1306.27 1128.33,1304.24 1132.51,1304.94 1135.95,1306.12 1141.76,1309.21 1147.14,1312.58 1151.19,1316.89 1160.01,1324.96 1169.58,1332.51 1179.71,1339.6 1190.39,1346.3 1201.53,1352.58 1213.13,1358.49 1225.13,1364.04 1234.38,1367.96 1290.6,1319.42 1288.08,1309.69 1284.35,1297.01 1280.19,1284.69 1275.6,1272.74 1270.54,1261.21 1265.01,1250.13 1258.93,1239.58 1252.23,1229.68 1248.56,1225.05 1246.01,1219.23 1243.82,1213.01 1243.15,1209.44 1243.07,1205.21 1246.27,1197.29 1281.6,1153.97 1288.71,1149.23 1292.89,1148.45 1296.53,1148.39 1303.04,1149.3 1309.26,1150.63 1314.53,1153.29 1325.58,1157.85 1337.14,1161.69 1349.1,1164.89 1361.41,1167.52 1374.04,1169.61 1386.95,1171.22 1400.12,1172.31 1410.16,1172.82 1446.38,1108.01 1440.7,1099.72 1432.86,1089.07 1424.74,1078.92 1416.33,1069.26 1407.62,1060.15 1398.65,1051.64 1389.33,1043.8 1379.63,1036.78 1374.61,1033.68 1370.23,1029.09 1366.04,1024 1364.19,1020.87 1362.66,1016.93 1362.97,1008.38 1381.35,955.59 1386.42,948.71 1390.06,946.57 1393.47,945.25 1399.89,943.87 1406.19,943.01 1412.06,943.69 1424.01,944.21 1436.17,943.86 1448.51,942.77 1460.99,941.03 1473.57,938.69 1486.25,935.77 1498.99,932.29 1508.61,929.34 1520.48,856.04 1512.29,850.21 1501.28,842.89 1490.18,836.12 1478.97,829.91 1467.69,824.33 1456.34,819.41 1444.89,815.23 1433.4,811.94 1427.62,810.75 1421.92,807.95 1416.25,804.6 1413.44,802.29 1410.65,799.09 1408.02,790.96 "/>
   </g>
   <g id="G1Gear_0" data-id="0">
    <g>
     <polygon class="fil0" points="1030,796.53 1262.15,752.25 1298.59,782.48 1296.56,819.49 1291.95,856.27 1284.77,892.64 1275.06,928.41 1262.88,963.42 1248.28,997.49 1231.33,1030.45 1212.12,1062.15 1190.75,1092.43 1167.3,1121.14 1141.91,1148.14 1114.69,1173.3 1068.15,1164.49 954.29,957.38 960.95,893.66 985.13,842.27 "/>
     <polygon id="_1_1" class="fil1 str0" points="1030,796.53 1262.15,752.25 1298.59,782.48 1296.56,819.49 1291.95,856.27 1284.77,892.64 1275.06,928.41 1262.88,963.42 1248.28,997.49 1231.33,1030.45 1212.12,1062.15 1190.75,1092.43 1167.3,1121.14 1141.91,1148.14 1114.69,1173.3 1068.15,1164.49 954.29,957.38 960.95,893.66 985.13,842.27 "/>
    </g>
    <polygon class="fil2 str0" points="1030,796.53 1262.15,752.25 1298.59,782.48 1296.56,819.49 1291.95,856.27 1284.77,892.64 1275.06,928.41 1262.88,963.42 1248.28,997.49 1231.33,1030.45 1212.12,1062.15 1190.75,1092.43 1167.3,1121.14 1141.91,1148.14 1114.69,1173.3 1068.15,1164.49 954.29,957.38 960.95,893.66 985.13,842.27 "/>
   </g>
   <g id="G1Gear_2" data-id="0">
    <g>
     <polygon class="fil0" points="826.24,1027.79 940.09,1234.89 922.6,1278.91 886.76,1288.41 850.36,1295.37 813.56,1299.79 776.54,1301.61 739.48,1300.85 702.57,1297.49 665.97,1291.56 629.89,1283.08 594.49,1272.12 559.94,1258.69 526.41,1242.88 494.08,1224.77 488.07,1177.79 649.85,1005.51 712.53,992.15 768.86,999.26 "/>
     <polygon id="_1_3" class="fil1 str0" points="826.24,1027.79 940.09,1234.89 922.6,1278.91 886.76,1288.41 850.36,1295.37 813.56,1299.79 776.54,1301.61 739.48,1300.85 702.57,1297.49 665.97,1291.56 629.89,1283.08 594.49,1272.12 559.94,1258.69 526.41,1242.88 494.08,1224.77 488.07,1177.79 649.85,1005.51 712.53,992.15 768.86,999.26 "/>
    </g>
    <polygon class="fil2 str0" points="826.24,1027.79 940.09,1234.89 922.6,1278.91 886.76,1288.41 850.36,1295.37 813.56,1299.79 776.54,1301.61 739.48,1300.85 702.57,1297.49 665.97,1291.56 629.89,1283.08 594.49,1272.12 559.94,1258.69 526.41,1242.88 494.08,1224.77 488.07,1177.79 649.85,1005.51 712.53,992.15 768.86,999.26 "/>
   </g>
   <g id="G1Gear_4" data-id="0">
    <g>
     <polygon class="fil0" points="543.33,905.47 381.53,1077.75 334.28,1074.7 314.18,1043.57 296.29,1011.1 280.73,977.47 267.55,942.82 256.83,907.34 248.61,871.19 242.94,834.57 239.84,797.63 239.36,760.56 241.43,723.55 246.11,686.79 253.35,650.44 296.17,630.2 510.01,730.83 542.08,786.31 552.73,842.09 "/>
     <polygon id="_1_5" class="fil1 str0" points="543.33,905.47 381.53,1077.75 334.28,1074.7 314.18,1043.57 296.29,1011.1 280.73,977.47 267.55,942.82 256.83,907.34 248.61,871.19 242.94,834.57 239.84,797.63 239.36,760.56 241.43,723.55 246.11,686.79 253.35,650.44 296.17,630.2 510.01,730.83 542.08,786.31 552.73,842.09 "/>
    </g>
    <polygon class="fil2 str0" points="543.33,905.47 381.53,1077.75 334.28,1074.7 314.18,1043.57 296.29,1011.1 280.73,977.47 267.55,942.82 256.83,907.34 248.61,871.19 242.94,834.57 239.84,797.63 239.36,760.56 241.43,723.55 246.11,686.79 253.35,650.44 296.17,630.2 510.01,730.83 542.08,786.31 552.73,842.09 "/>
   </g>
   <g id="G1Gear_6" data-id="0">
    <g>
     <polygon class="fil0" points="572.24,598.6 358.4,497.98 346.69,452.09 370.09,423.35 395.44,396.31 422.61,371.11 451.49,347.86 481.92,326.7 513.76,307.72 546.84,291.01 581.02,276.65 616.11,264.74 651.94,255.28 688.37,248.37 725.18,244.02 757.65,278.49 728.02,512.97 685.19,560.61 635.42,587.95 "/>
     <polygon id="_1_7" class="fil1 str0" points="572.24,598.6 358.4,497.98 346.69,452.09 370.09,423.35 395.44,396.31 422.61,371.11 451.49,347.86 481.92,326.7 513.76,307.72 546.84,291.01 581.02,276.65 616.11,264.74 651.94,255.28 688.37,248.37 725.18,244.02 757.65,278.49 728.02,512.97 685.19,560.61 635.42,587.95 "/>
    </g>
    <polygon class="fil2 str0" points="572.24,598.6 358.4,497.98 346.69,452.09 370.09,423.35 395.44,396.31 422.61,371.11 451.49,347.86 481.92,326.7 513.76,307.72 546.84,291.01 581.02,276.65 616.11,264.74 651.94,255.28 688.37,248.37 725.18,244.02 757.65,278.49 728.02,512.97 685.19,560.61 635.42,587.95 "/>
   </g>
   <g id="G1Gear_8" data-id="0">
    <g>
     <polygon class="fil0" points="873.01,531.28 902.64,296.81 942.65,271.49 977.22,284.86 1010.79,300.61 1043.15,318.68 1074.16,338.96 1103.7,361.37 1131.6,385.77 1157.71,412.08 1181.92,440.14 1204.11,469.84 1224.17,501 1242,533.49 1257.52,567.15 1234.76,608.69 1002.62,652.97 944.06,626.95 902.66,588.08 "/>
     <polygon id="_1_9" class="fil1 str0" points="873.01,531.28 902.64,296.81 942.65,271.49 977.22,284.86 1010.79,300.61 1043.15,318.68 1074.16,338.96 1103.7,361.37 1131.6,385.77 1157.71,412.08 1181.92,440.14 1204.11,469.84 1224.17,501 1242,533.49 1257.52,567.15 1234.76,608.69 1002.62,652.97 944.06,626.95 902.66,588.08 "/>
    </g>
    <polygon class="fil2 str0" points="873.01,531.28 902.64,296.81 942.65,271.49 977.22,284.86 1010.79,300.61 1043.15,318.68 1074.16,338.96 1103.7,361.37 1131.6,385.77 1157.71,412.08 1181.92,440.14 1204.11,469.84 1224.17,501 1242,533.49 1257.52,567.15 1234.76,608.69 1002.62,652.97 944.06,626.95 902.66,588.08 "/>
   </g>
   <circle id="G1_sh" class="fil1 str0" cx="768.95" cy="771.93" r="81.19"/>
  </g>
 </g>
</svg>
