<?xml version="1.0" encoding="UTF-8"?>
<!DOCTYPE svg PUBLIC "-//W3C//DTD SVG 1.1//EN" "http://www.w3.org/Graphics/SVG/1.1/DTD/svg11.dtd">
<!-- Creator: CorelDRAW 2021.5 -->
<svg xmlns="http://www.w3.org/2000/svg" xml:space="preserve" width="32.1028mm" height="32.1028mm" version="1.1" style="shape-rendering:geometricPrecision; text-rendering:geometricPrecision; image-rendering:optimizeQuality; fill-rule:evenodd; clip-rule:evenodd"
viewBox="0 0 19131.05 19131.05"
 xmlns:xlink="http://www.w3.org/1999/xlink"
 xmlns:xodm="http://www.corel.com/coreldraw/odm/2003">
 <defs>
  <style type="text/css">
   <![CDATA[
    .str0 {stroke:black;stroke-width:210.24;stroke-miterlimit:2.61313}
    .fil0 {fill:none}
   ]]>
  </style>
 </defs>
 <g id="Layer_x0020_1">
  <metadata id="CorelCorpID_0Corel-Layer"/>
  <g id="_2365295669584">
   <circle class="fil0 str0" cx="9565.53" cy="9565.53" r="9460.4"/>
   <path class="fil0 str0" d="M17232.42 4023.01c707.73,977.27 1232.8,2095.11 1526.3,3303.6 -276.33,1436.25 -987.34,2947.59 -963.92,3424.82 142.73,2909.51 -35.88,1695.07 -703.08,3190.44 -1290.73,2892.83 -2142.07,-3962.7 -2140.58,-3993.51 74.79,-1474.33 -5968.78,-2212.57 -4497.01,-4152.45 1917.82,-2527.82 4866.43,-2731.57 6778.3,-1772.89z"/>
   <path class="fil0 str0" d="M12486.36 18565.69c-920,298.38 -1901.44,460.24 -2920.84,460.24 -704.75,0 -1391.2,-77.65 -2051.97,-223.77 -7.75,-640.21 82.12,-1165.64 1517.66,-1383.33 1195.32,-181.28 1072.62,1333.51 2288.73,191.12 196.48,-184.56 934.48,90.1 1166.42,955.75z"/>
   <path class="fil0 str0" d="M2376.63 15714.82c-1415.87,-1653.77 -2271.51,-3801.44 -2271.51,-6149.29 0,-938.77 137.42,-1845.24 392.06,-2701.3 663.33,36.53 76.46,316.68 1301.22,1839.52 542.71,674.77 1261.41,2005.43 357.38,2768.75 -1833.8,1548.65 231.46,2181.17 231.46,4011.81 0,79.68 -3.64,156.49 -10.61,230.51z"/>
  </g>
 </g>
</svg>
