<?xml version="1.0" encoding="UTF-8" standalone="no"?>
<!DOCTYPE svg PUBLIC "-//W3C//DTD SVG 1.1//EN" "http://www.w3.org/Graphics/SVG/1.1/DTD/svg11.dtd">
<!-- Generated by Microsoft Visio, SVG Export GEISA-System-Scope-Diagram.svg SystemScope -->
<svg xmlns="http://www.w3.org/2000/svg" xmlns:xlink="http://www.w3.org/1999/xlink" xmlns:ev="http://www.w3.org/2001/xml-events"
		width="4.72569in" height="6.16667in" viewBox="0 0 340.25 444" xml:space="preserve" color-interpolation-filters="sRGB"
		class="st19">
	<title>GEISA System Scope</title>

	<style type="text/css">
	<![CDATA[
		.st1 {fill:#ffffff;stroke:#c00000;stroke-linecap:round;stroke-linejoin:round;stroke-width:0.75}
		.st2 {fill:#000000;font-family:Arial Narrow;font-size:0.833336em}
		.st3 {font-size:1em}
		.st4 {fill:none}
		.st5 {stroke:#c00000;stroke-linecap:round;stroke-linejoin:round;stroke-width:0.75}
		.st6 {fill:#ffffff;stroke:#ea700d;stroke-dasharray:11.25,6.75;stroke-linecap:round;stroke-linejoin:round;stroke-width:0.75}
		.st7 {fill:#ffffff;stroke:none;stroke-linecap:butt}
		.st8 {fill:#ffffff;stroke:#008d00;stroke-linecap:round;stroke-linejoin:round;stroke-width:0.75}
		.st9 {stroke:#0000c0;stroke-linecap:round;stroke-linejoin:round;stroke-width:0.75}
		.st10 {fill:#ffffff;stroke:#000000;stroke-linecap:round;stroke-linejoin:round;stroke-width:0.75}
		.st11 {stroke:#008d00;stroke-linecap:round;stroke-linejoin:round;stroke-width:0.75}
		.st12 {stroke:#000000;stroke-dasharray:11.25,6.75;stroke-linecap:round;stroke-linejoin:round;stroke-width:0.75}
		.st13 {fill:none;stroke:#000000;stroke-linecap:round;stroke-linejoin:round;stroke-width:0.75}
		.st14 {fill:#d8d8d8;stroke:#008d00;stroke-linecap:round;stroke-linejoin:round;stroke-width:0.75}
		.st15 {fill:#d8d8d8;stroke:#0000c0;stroke-linecap:round;stroke-linejoin:round;stroke-width:0.75}
		.st16 {fill:#ffffff}
		.st17 {fill:none;stroke:none;stroke-linecap:round;stroke-linejoin:round;stroke-width:0.75}
		.st18 {fill:#ffffff;stroke:none;stroke-linecap:butt;stroke-width:7.2}
		.st19 {fill:none;fill-rule:evenodd;font-size:12px;overflow:visible;stroke-linecap:square;stroke-miterlimit:3}
	]]>
	</style>

	<g>
		<title>SystemScope</title>
		<g id="shape1000-1" transform="translate(55.375,-351.375)">
			<title>Connect Rectangle.1000</title>
			<desc>GEISA Edge Management System</desc>
			<rect x="0" y="372" width="108" height="72" class="st1"/>
			<text x="5.68" y="405" class="st2">GEISA Edge Management <tspan x="40.33" dy="1.2em" class="st3">System</tspan></text>		</g>
		<g id="shape1001-5" transform="translate(78.775,-331.463)">
			<title>Interface Pop.1001</title>
			<path d="M7.2 440.4 A3.6 3.6 0 1 1 -0 440.4 A3.6 3.6 0 1 1 7.2 440.4 Z" class="st4"/>
			<path d="M3.6 436.46 L3.6 424.09" class="st5"/>
			<path d="M7.2 440.4 A3.6 3.6 0 1 1 -0 440.4 A3.6 3.6 0 1 1 7.2 440.4" class="st5"/>
		</g>
		<g id="shape1002-9" transform="translate(28.775,-18.375)">
			<title>Connect Rectangle.1002</title>
			<desc>GEISA Execution Environment</desc>
			<path d="M0 444 L275.1 444 L275.1 203.25 L0 203.25 L0 444 Z" class="st6"/>
			<rect x="203.737" y="410" width="63.3634" height="23.9999" class="st7"/>
			<text x="203.74" y="419" class="st2">GEISA Execution  <tspan x="221.07" dy="1.2em" class="st3">Environment</tspan></text>		</g>
		<g id="shape1004-14" transform="translate(67.5417,-206.3)">
			<title>Connect Rectangle.1004</title>
			<desc>GEISA Edge Management Agent</desc>
			<rect x="0" y="402.425" width="70.7333" height="41.575" class="st1"/>
			<text x="12.12" y="414.21" class="st2">GEISA Edge <tspan x="11.43" dy="1.2em" class="st3">Management </tspan><tspan
						x="24.65" dy="1.2em" class="st3">Agent</tspan></text>		</g>
		<g id="shape1006-19" transform="translate(80.725,-257.6)">
			<title>Interface Cup.1004.1006</title>
			<path d="M4.5 444 L4.5 431.63" class="st5"/>
			<path d="M9 427.45 A4.5 4.176 0 0 1 0 427.45" class="st5"/>
		</g>
		<g id="shape1007-23" transform="translate(76.225,-261.738)">
			<title>Dynamic connector.1007</title>
			<path d="M9 448.14 L9 457.86" class="st5"/>
		</g>
		<g id="shape1008-26" transform="translate(-153.625,353.625) rotate(-90)">
			<title>Connect Rectangle.1008</title>
			<desc>GEISA API</desc>
			<rect x="0" y="402.425" width="108" height="41.575" class="st8"/>
			<text x="33.72" y="426.21" class="st2">GEISA API</text>		</g>
		<g id="shape1009-29" transform="translate(81.625,-186.388)">
			<title>Interface Pop.1005.1009</title>
			<path d="M7.2 440.4 A3.6 3.6 0 1 1 -0 440.4 A3.6 3.6 0 1 1 7.2 440.4 Z" class="st4"/>
			<path d="M3.6 436.46 L3.6 424.09" class="st9"/>
			<path d="M7.2 440.4 A3.6 3.6 0 1 1 -0 440.4 A3.6 3.6 0 1 1 7.2 440.4" class="st9"/>
		</g>
		<g id="group1015-33" transform="translate(62.3251,-101.2)">
			<title>Sheet.1015</title>
			<g id="shape1010-34" transform="translate(0,-16.55)">
				<title>Connect Rectangle.1010</title>
				<desc>Edge App</desc>
				<rect x="0" y="402.425" width="72" height="41.575" class="st10"/>
				<text x="17.99" y="426.21" class="st2">Edge App</text>			</g>
			<g id="shape1011-37" transform="translate(13.5,-58.1249)">
				<title>Interface Cup.1004.1011</title>
				<path d="M4.5 444 L4.5 431.63" class="st9"/>
				<path d="M9 427.45 A4.5 4.176 0 0 1 0 427.45" class="st9"/>
			</g>
			<g id="shape1012-41" transform="translate(516,391.769) rotate(90)">
				<title>Interface Cup.1004.1012</title>
				<path d="M4.5 444 L4.5 431.63" class="st11"/>
				<path d="M9 427.45 A4.5 4.176 0 0 1 0 427.45" class="st11"/>
			</g>
			<g id="shape1014-45" transform="translate(58.5,871.45) rotate(180)">
				<title>Interface Cup.1004.1014</title>
				<path d="M4.5 444 L4.5 431.63" class="st9"/>
				<path d="M9 427.45 A4.5 4.176 0 0 1 0 427.45" class="st9"/>
			</g>
		</g>
		<g id="group1016-49" transform="translate(71.3251,-94.1376)">
			<title>Sheet.1016</title>
			<g id="shape1017-50" transform="translate(0,-16.55)">
				<title>Connect Rectangle.1010</title>
				<desc>Edge App</desc>
				<rect x="0" y="402.425" width="72" height="41.575" class="st10"/>
				<text x="17.99" y="426.21" class="st2">Edge App</text>			</g>
			<g id="shape1018-53" transform="translate(13.5,-58.1249)">
				<title>Interface Cup.1011</title>
				<path d="M4.5 444 L4.5 431.63" class="st9"/>
				<path d="M9 427.45 A4.5 4.176 0 0 1 0 427.45" class="st9"/>
			</g>
			<g id="shape1019-57" transform="translate(516,391.769) rotate(90)">
				<title>Interface Cup.1012</title>
				<path d="M4.5 444 L4.5 431.63" class="st11"/>
				<path d="M9 427.45 A4.5 4.176 0 0 1 0 427.45" class="st11"/>
			</g>
			<g id="shape1020-61" transform="translate(58.5,871.45) rotate(180)">
				<title>Interface Cup.1014</title>
				<path d="M4.5 444 L4.5 431.63" class="st9"/>
				<path d="M9 427.45 A4.5 4.176 0 0 1 0 427.45" class="st9"/>
			</g>
		</g>
		<g id="shape1021-65" transform="translate(672.888,296.025) rotate(90)">
			<title>Interface Pop.1005.1021</title>
			<path d="M7.2 440.4 A3.6 3.6 0 1 1 -0 440.4 A3.6 3.6 0 1 1 7.2 440.4 Z" class="st4"/>
			<path d="M3.6 436.46 L3.6 424.09" class="st11"/>
			<path d="M7.2 440.4 A3.6 3.6 0 1 1 -0 440.4 A3.6 3.6 0 1 1 7.2 440.4" class="st11"/>
		</g>
		<g id="shape1022-69" transform="translate(28.775,-64.6731)">
			<title>Sheet.1022</title>
			<path d="M0 444 L275.1 444" class="st12"/>
		</g>
		<g id="shape1026-72" transform="translate(-260.713,60.225) rotate(-90)">
			<title>Interface Pop.1026</title>
			<path d="M7.2 440.4 A3.6 3.6 0 1 1 -0 440.4 A3.6 3.6 0 1 1 7.2 440.4 Z" class="st4"/>
			<path d="M3.6 436.46 L3.6 424.09" class="st5"/>
			<path d="M7.2 440.4 A3.6 3.6 0 1 1 -0 440.4 A3.6 3.6 0 1 1 7.2 440.4" class="st5"/>
		</g>
		<g id="shape1027-76" transform="translate(206.325,-353.625)">
			<title>Connect Rectangle.1027</title>
			<desc>Utility Systems</desc>
			<rect x="0" y="372" width="108" height="72" class="st10"/>
			<text x="27.12" y="411" class="st2">Utility Systems</text>		</g>
		<g id="shape1028-79" transform="translate(-237.675,58.875) rotate(-90)">
			<title>Interface Cup.1004.1028</title>
			<path d="M4.5 444 L4.5 431.63" class="st5"/>
			<path d="M9 427.45 A4.5 4.176 0 0 1 0 427.45" class="st5"/>
		</g>
		<g id="shape1029-83" transform="translate(47.0083,-281.672)">
			<title>Cloud.1006.1029</title>
			<desc>Edge Network</desc>
			<path d="M2.7 418.48 A8.82864 7.36335 -180 0 0 6.96 430.98 A10.7857 8.9956 -180 0 0 23.53 438.79 A10.914 9.10257 -180
						 0 0 42.77 439.56 A12.9783 10.8243 -180 0 0 62.93 430.51 A10.0222 8.35878 -180 0 0 67.59 416.27 A7.86203
						 6.55716 -180 0 0 61.38 405.92 A13.4461 11.2145 -180 0 0 38.12 402.04 A13.2143 11.0211 -180 0 0 14.85 403.34
						 A12.3774 10.3231 -180 0 0 2.7 418.48 Z" class="st13"/>
			<text x="25.79" y="417.42" class="st2">Edge <tspan x="20.33" dy="1.2em" class="st3">Network</tspan></text>		</g>
		<g id="shape1030-87" transform="translate(213.875,-346.875)">
			<title>Connect Rectangle.1030</title>
			<desc>External Systems</desc>
			<rect x="0" y="372" width="108" height="72" class="st10"/>
			<text x="22.1" y="411" class="st2">External Systems</text>		</g>
		<g id="shape1031-90" transform="translate(-230.125,65.625) rotate(-90)">
			<title>Interface Cup.1031</title>
			<path d="M4.5 444 L4.5 431.63" class="st5"/>
			<path d="M9 427.45 A4.5 4.176 0 0 1 0 427.45" class="st5"/>
		</g>
		<g id="shape1032-94" transform="translate(639.875,236.625) rotate(90)">
			<title>Simple Double Arrow.1032</title>
			<desc>GEISA API Message Bus</desc>
			<path d="M0 444 L12 422.63 L12 433.31 L114 433.31 L114 422.63 L126 444 L114 465.38 L114 454.69 L12 454.69 L12 465.38
						 L0 444 Z" class="st14"/>
			<text x="-109.27" y="-441" transform="rotate(180)" class="st2">GEISA API Message Bus</text>		</g>
		<g id="shape1033-97" transform="translate(609.275,296.025) rotate(90)">
			<title>Interface Pop.1033</title>
			<path d="M7.2 440.4 A3.6 3.6 0 1 1 -0 440.4 A3.6 3.6 0 1 1 7.2 440.4 Z" class="st4"/>
			<path d="M3.6 436.46 L3.6 424.09" class="st11"/>
			<path d="M7.2 440.4 A3.6 3.6 0 1 1 -0 440.4 A3.6 3.6 0 1 1 7.2 440.4" class="st11"/>
		</g>
		<g id="shape1034-101" transform="translate(650.563,295.125) rotate(90)">
			<title>Interface Cup.1011</title>
			<path d="M4.5 444 L4.5 431.63" class="st11"/>
			<path d="M9 427.45 A4.5 4.176 0 0 1 0 427.45" class="st11"/>
		</g>
		<g id="shape1040-105" transform="translate(151.1,809.213) rotate(180)">
			<title>Interface Pop.1040</title>
			<path d="M7.2 440.4 A3.6 3.6 0 1 1 -0 440.4 A3.6 3.6 0 1 1 7.2 440.4 Z" class="st4"/>
			<path d="M3.6 436.46 L3.6 424.09" class="st9"/>
			<path d="M7.2 440.4 A3.6 3.6 0 1 1 -0 440.4 A3.6 3.6 0 1 1 7.2 440.4" class="st9"/>
		</g>
		<g id="shape1041-109" transform="translate(105.313,-38.9625)">
			<title>Connect Rectangle.1041</title>
			<desc>Component</desc>
			<rect x="0" y="424.088" width="56.25" height="19.9125" class="st15"/>
			<text x="6.93" y="437.04" class="st2">Component</text>		</g>
		<g id="shape1042-112" transform="translate(113.75,-34.4625)">
			<title>Connect Rectangle.1042</title>
			<desc>Component</desc>
			<rect x="0" y="424.088" width="56.25" height="19.9125" class="st15"/>
			<text x="6.93" y="437.04" class="st2">Component</text>		</g>
		<g id="shape1043-115" transform="translate(122.188,-29.9625)">
			<title>Connect Rectangle.1043</title>
			<desc>Component</desc>
			<rect x="0" y="424.088" width="56.25" height="19.9125" class="st15"/>
			<text x="6.93" y="437.04" class="st2">Component</text>		</g>
		<g id="shape1044-118" transform="translate(159.537,813.713) rotate(180)">
			<title>Interface Pop.1044</title>
			<path d="M7.2 440.4 A3.6 3.6 0 1 1 -0 440.4 A3.6 3.6 0 1 1 7.2 440.4 Z" class="st4"/>
			<path d="M3.6 436.46 L3.6 424.09" class="st9"/>
			<path d="M7.2 440.4 A3.6 3.6 0 1 1 -0 440.4 A3.6 3.6 0 1 1 7.2 440.4" class="st9"/>
		</g>
		<g id="shape1045-122" transform="translate(167.975,818.213) rotate(180)">
			<title>Interface Pop.1045</title>
			<path d="M7.2 440.4 A3.6 3.6 0 1 1 -0 440.4 A3.6 3.6 0 1 1 7.2 440.4 Z" class="st16"/>
			<path d="M3.6 436.46 L3.6 424.09" class="st9"/>
			<path d="M7.2 440.4 A3.6 3.6 0 1 1 -0 440.4 A3.6 3.6 0 1 1 7.2 440.4" class="st9"/>
		</g>
		<g id="shape1024-126" transform="translate(83.0375,809.213) rotate(180)">
			<title>Interface Pop.1005.1024</title>
			<path d="M7.2 440.4 A3.6 3.6 0 1 1 -0 440.4 A3.6 3.6 0 1 1 7.2 440.4 Z" class="st4"/>
			<path d="M3.6 436.46 L3.6 424.09" class="st9"/>
			<path d="M7.2 440.4 A3.6 3.6 0 1 1 -0 440.4 A3.6 3.6 0 1 1 7.2 440.4" class="st9"/>
		</g>
		<g id="shape1035-130" transform="translate(37.25,-38.9625)">
			<title>Connect Rectangle.1035</title>
			<desc>Component</desc>
			<rect x="0" y="424.088" width="56.25" height="19.9125" class="st15"/>
			<text x="6.93" y="437.04" class="st2">Component</text>		</g>
		<g id="shape1036-133" transform="translate(45.6875,-34.4625)">
			<title>Connect Rectangle.1036</title>
			<desc>Component</desc>
			<rect x="0" y="424.088" width="56.25" height="19.9125" class="st15"/>
			<text x="6.93" y="437.04" class="st2">Component</text>		</g>
		<g id="shape1037-136" transform="translate(54.125,-29.9625)">
			<title>Connect Rectangle.1037</title>
			<desc>Component</desc>
			<rect x="0" y="424.088" width="56.25" height="19.9125" class="st15"/>
			<text x="6.93" y="437.04" class="st2">Component</text>		</g>
		<g id="shape1038-139" transform="translate(91.475,813.713) rotate(180)">
			<title>Interface Pop.1038</title>
			<path d="M7.2 440.4 A3.6 3.6 0 1 1 -0 440.4 A3.6 3.6 0 1 1 7.2 440.4 Z" class="st4"/>
			<path d="M3.6 436.46 L3.6 424.09" class="st9"/>
			<path d="M7.2 440.4 A3.6 3.6 0 1 1 -0 440.4 A3.6 3.6 0 1 1 7.2 440.4" class="st9"/>
		</g>
		<g id="shape1039-143" transform="translate(99.9125,818.213) rotate(180)">
			<title>Interface Pop.1039</title>
			<path d="M7.2 440.4 A3.6 3.6 0 1 1 -0 440.4 A3.6 3.6 0 1 1 7.2 440.4 Z" class="st16"/>
			<path d="M3.6 436.46 L3.6 424.09" class="st9"/>
			<path d="M7.2 440.4 A3.6 3.6 0 1 1 -0 440.4 A3.6 3.6 0 1 1 7.2 440.4" class="st9"/>
		</g>
		<g id="shape1046-147" transform="translate(-405.625,363.75) rotate(-90)">
			<title>Sheet.1046</title>
			<desc>Platform Implementation</desc>
			<rect x="0" y="424" width="117" height="20" class="st17"/>
			<rect x="14.06" y="428" width="88.8802" height="12.0001" class="st18"/>
			<text x="14.06" y="437" class="st2">Platform Implementation</text>		</g>
	</g>
</svg>
