<?xml version="1.0" encoding="UTF-8"?>
<!DOCTYPE svg PUBLIC "-//W3C//DTD SVG 1.1//EN" "http://www.w3.org/Graphics/SVG/1.1/DTD/svg11.dtd">
<!-- Creator: CorelDRAW 2021.5 -->
<svg xmlns="http://www.w3.org/2000/svg" xml:space="preserve" width="159.808mm" height="39.1584mm" version="1.1" style="shape-rendering:geometricPrecision; text-rendering:geometricPrecision; image-rendering:optimizeQuality; fill-rule:evenodd; clip-rule:evenodd"
viewBox="0 0 11120.31 2724.85"
 xmlns:xlink="http://www.w3.org/1999/xlink"
 xmlns:xodm="http://www.corel.com/coreldraw/odm/2003">
 <defs>
  <style type="text/css">
   <![CDATA[
    .str0 {stroke:black;stroke-width:73.64;stroke-miterlimit:2.61313}
    .str1 {stroke:black;stroke-width:36.82;stroke-miterlimit:2.61313}
    .str2 {stroke:black;stroke-width:36.82;stroke-miterlimit:2.61313}
    .str3 {stroke:black;stroke-width:73.64;stroke-linecap:round;stroke-miterlimit:2.61313}
    .fil5 {fill:none}
    .fil1 {fill:none;fill-rule:nonzero}
    .fil4 {fill:white}
    .fil0 {fill:white}
    .fil3 {fill:black;fill-rule:nonzero}
    .fil2 {fill:white;fill-rule:nonzero}
   ]]>
  </style>
 </defs>
 <g id="Layer_x0020_1">
  <metadata id="CorelCorpID_0Corel-Layer"/>
  <path class="fil0 str0" d="M213.57 36.82l2297.71 0c97.21,0 176.75,79.54 176.75,176.75l0 2474.45 -2474.45 0c-97.21,0 -176.75,-79.54 -176.75,-176.75l0 -2297.71c0,-97.21 79.54,-176.75 176.75,-176.75z"/>
  <g id="_2306016754384">
   <path class="fil1 str1" d="M1725.94 1722.48c287.8,195.11 550.73,174.67 670.83,295.81 120.11,121.15 192.6,289.5 49.77,431.09 -142.83,141.59 -310.53,67.64 -430.64,-53.52 -120.1,-121.15 -97.36,-383.89 -289.96,-673.38z"/>
   <path class="fil2 str2" d="M218.7 248c-12.57,-12.69 -12.48,-33.17 0.2,-45.75 12.69,-12.57 33.17,-12.48 45.75,0.2l1582.66 1596.5c12.57,12.69 12.48,33.18 -0.2,45.75 -12.69,12.57 -33.18,12.49 -45.75,-0.2l-1582.66 -1596.5z"/>
  </g>
  <path class="fil3" d="M741.31 1574.52l-221.52 0 -31.81 104.28 -199.58 0 238.17 -632.75 214.01 0 237.13 632.75 -204.73 0 -31.66 -104.28zm-41.39 -136.98l-69.08 -227.41 -69.38 227.41 138.45 0z"/>
  <path id="_1" class="fil3" d="M1042.07 1046.05l290.6 0c57.15,0 103.54,7.81 138.75,23.27 35.2,15.61 64.37,37.85 87.49,66.87 22.98,29.16 39.62,62.89 49.93,101.48 10.46,38.59 15.61,79.39 15.61,122.54 0,67.61 -7.66,120.04 -23.12,157.3 -15.32,37.27 -36.68,68.49 -64.07,93.68 -27.4,25.19 -56.71,41.98 -88.07,50.37 -42.86,11.49 -81.75,17.24 -116.51,17.24l-290.6 0 0 -632.75zm195.3 143.16l0 345.54 48.01 0c40.95,0 70.11,-4.56 87.49,-13.55 17.24,-9.14 30.78,-24.9 40.65,-47.43 9.87,-22.68 14.73,-59.21 14.73,-109.88 0,-67.02 -10.9,-112.83 -32.84,-137.57 -21.95,-24.74 -58.33,-37.12 -109.14,-37.12l-48.9 0z"/>
  <polygon id="_2" class="fil3" points="1725.05,1046.05 1982.95,1046.05 2081.19,1431.06 2179.73,1046.05 2436.45,1046.05 2436.45,1678.8 2276.5,1678.8 2276.5,1196.43 2153.07,1678.8 2008.13,1678.8 1885,1196.43 1885,1678.8 1725.05,1678.8 "/>
  <g>
   <path id="_3" class="fil4" d="M714.15 1611.34l-167.26 0 -23.83 78.1c-4.8,15.84 -19.36,26.04 -35.1,26.04l0 0.14 -199.58 0c-20.33,0 -36.82,-16.49 -36.82,-36.82 0,-5.49 1.2,-10.7 3.36,-15.38l237.25 -630.32c5.54,-14.72 19.53,-23.8 34.38,-23.8l0 -0.08 214.01 0c16.92,0 31.18,11.43 35.49,26.98l236.03 629.8c7.07,18.98 -2.6,40.12 -21.58,47.19 -4.22,1.57 -8.55,2.32 -12.8,2.31l0 0.13 -204.73 0c-17.78,0 -32.63,-12.62 -36.07,-29.38l-22.74 -74.9zm27.15 -36.82l-221.52 0 -31.81 104.28 -199.58 0 238.17 -632.75 214.01 0 237.13 632.75 -204.73 0 -31.66 -104.28zm-41.39 -136.98l-69.08 -227.41 -69.38 227.41 138.45 0zm-49.52 -36.82l-19.64 -64.64 -19.72 64.64 39.36 0z"/>
  </g>
  <g>
   <path id="_4" class="fil4" d="M1042.07 1009.22l290.6 0c30.28,0 58.18,2.14 83.59,6.41 26.11,4.38 49.42,11.06 69.83,20.03 0.04,0.01 0.08,0.03 0.12,0.06l0.02 -0.06c20.2,8.96 38.8,19.92 55.75,32.87 17.01,12.99 32.25,27.92 45.69,44.79 0.04,0.06 0.08,0.11 0.13,0.16l0.02 -0.01c12.98,16.47 24.24,34.37 33.74,53.68 9.46,19.21 17.06,39.56 22.8,61.04 5.53,20.4 9.73,41.9 12.59,64.44 2.88,22.67 4.31,45.2 4.31,67.59 0,35.39 -2.06,67.18 -6.19,95.35 -4.28,29.19 -10.88,54.55 -19.8,76.05 -0.26,0.62 -0.53,1.23 -0.82,1.83 -8.51,20.37 -18.62,39.1 -30.28,56.15 -12.27,17.95 -26.3,34.17 -42.04,48.64 -15.82,14.54 -32.21,26.67 -49.16,36.38 -17.4,9.95 -35.51,17.46 -54.3,22.48 -22.79,6.1 -44.63,10.71 -65.44,13.78 -21.36,3.16 -41.57,4.75 -60.55,4.75l-290.6 0c-20.33,0 -36.82,-16.49 -36.82,-36.82l0 -632.75c0,-20.33 16.49,-36.82 36.82,-36.82zm0 36.82l290.6 0c57.15,0 103.54,7.81 138.75,23.27 35.2,15.61 64.37,37.85 87.49,66.87 22.98,29.16 39.62,62.89 49.93,101.48 10.46,38.59 15.61,79.39 15.61,122.54 0,67.61 -7.66,120.04 -23.12,157.3 -15.32,37.27 -36.68,68.49 -64.07,93.68 -27.4,25.19 -56.71,41.98 -88.07,50.37 -42.86,11.49 -81.75,17.24 -116.51,17.24l-290.6 0 0 -632.75zm195.3 143.16l0 345.54 48.01 0c40.95,0 70.11,-4.56 87.49,-13.55 17.24,-9.14 30.78,-24.9 40.65,-47.43 9.87,-22.68 14.73,-59.21 14.73,-109.88 0,-67.02 -10.9,-112.83 -32.84,-137.57 -21.95,-24.74 -58.33,-37.12 -109.14,-37.12l-48.9 0zm36.82 36.82l0 271.89 11.19 0c19.21,0 34.87,-0.95 46.98,-2.83 10.22,-1.59 17.99,-3.72 23.28,-6.35l-0.03 -0.06c4.66,-2.47 8.82,-5.83 12.45,-10.06 4.43,-5.16 8.37,-11.68 11.81,-19.53 3.58,-8.22 6.36,-19.73 8.34,-34.51 2.15,-16.14 3.23,-36.37 3.23,-60.69 0,-30.67 -2.39,-56.05 -7.18,-76.15 -4.07,-17.07 -9.51,-29.45 -16.31,-37.11 -6.59,-7.43 -15.96,-13.23 -28.07,-17.34 -14.24,-4.84 -32.12,-7.26 -53.6,-7.26l-12.07 0z"/>
  </g>
  <g>
   <path id="_5" class="fil4" d="M1725.05 1009.22l257.9 0c17.61,0 32.34,12.38 35.97,28.91l62.33 244.27 62.81 -245.41c4.23,-16.67 19.23,-27.76 35.68,-27.76l0 -0.01 256.72 0c20.33,0 36.82,16.49 36.82,36.82l0 632.75c0,20.33 -16.49,36.82 -36.82,36.82l-159.96 0c-20.33,0 -36.82,-16.49 -36.82,-36.82l0 -189.97 -50.93 199.03c-4.23,16.67 -19.23,27.76 -35.68,27.76l0 0.01 -144.93 0c-17.61,0 -32.34,-12.38 -35.97,-28.91l-50.34 -197.2 0 189.29c0,20.33 -16.49,36.82 -36.82,36.82l-159.96 0c-20.33,0 -36.82,-16.49 -36.82,-36.82l0 -632.75c0,-20.33 16.49,-36.82 36.82,-36.82zm0 36.82l257.9 0 98.24 385.02 98.54 -385.02 256.72 0 0 632.75 -159.96 0 0 -482.37 -123.43 482.37 -144.93 0 -123.13 -482.37 0 482.37 -159.96 0 0 -632.75z"/>
  </g>
  <line class="fil5 str3" x1="2246.16" y1="2688.01" x2="11083.48" y2= "2688.01" />
 </g>
</svg>
