<?xml version="1.0" encoding="UTF-8"?>
<!DOCTYPE svg PUBLIC "-//W3C//DTD SVG 1.1//EN" "http://www.w3.org/Graphics/SVG/1.1/DTD/svg11.dtd">
<!-- Creator: CorelDRAW 2021.5 -->
<svg xmlns="http://www.w3.org/2000/svg" xml:space="preserve" width="159.808mm" height="39.1584mm" version="1.1" style="shape-rendering:geometricPrecision; text-rendering:geometricPrecision; image-rendering:optimizeQuality; fill-rule:evenodd; clip-rule:evenodd"
viewBox="0 0 11120.31 2724.85"
 xmlns:xlink="http://www.w3.org/1999/xlink"
 xmlns:xodm="http://www.corel.com/coreldraw/odm/2003">
 <defs>
  <style type="text/css">
   <![CDATA[
    .str0 {stroke:black;stroke-width:73.64;stroke-miterlimit:2.61313}
    .str1 {stroke:black;stroke-width:36.82;stroke-miterlimit:2.61313}
    .str2 {stroke:black;stroke-width:73.64;stroke-linecap:round;stroke-miterlimit:2.61313}
    .fil2 {fill:none}
    .fil4 {fill:white}
    .fil0 {fill:white}
    .fil3 {fill:black;fill-rule:nonzero}
    .fil1 {fill:white;fill-opacity:0.200000}
   ]]>
  </style>
 </defs>
 <g id="Layer_x0020_1">
  <metadata id="CorelCorpID_0Corel-Layer"/>
  <path class="fil0 str0" d="M213.57 36.82l2297.71 0c97.21,0 176.75,79.54 176.75,176.75l0 2474.45 -2474.45 0c-97.21,0 -176.75,-79.54 -176.75,-176.75l0 -2297.71c0,-97.21 79.54,-176.75 176.75,-176.75z"/>
  <g id="_2306019948048">
   <g id="G1Gear" data-id="0">
    <g>
     <polygon class="fil1" points="2338.16,1306.07 2341.84,1293.53 2345.96,1288.54 2350.15,1284.86 2358.69,1279.53 2367.26,1274.98 2376.04,1272.92 2393.49,1267.41 2410.77,1260.54 2427.92,1252.52 2444.93,1243.51 2461.78,1233.55 2478.46,1222.73 2494.97,1211.09 2507.23,1201.83 2485.95,1090.3 2471.16,1086.21 2451.53,1081.44 2432.02,1077.51 2412.7,1074.49 2393.57,1072.35 2374.67,1071.24 2356.06,1071.21 2337.81,1072.5 2328.88,1073.79 2319.22,1072.75 2309.34,1070.91 2304.08,1069.05 2298.42,1065.92 2290.4,1055.62 2260.04,975.74 2259.2,962.71 2261.35,956.6 2264.06,951.74 2270.25,943.79 2276.75,936.6 2284.3,931.63 2298.82,920.49 2312.71,908.12 2326.1,894.72 2338.98,880.45 2351.42,865.33 2363.38,849.44 2374.92,832.86 2383.26,819.95 2325.13,722.45 2309.81,723.66 2289.73,725.9 2270.07,728.88 2250.88,732.62 2232.16,737.19 2214.02,742.58 2196.52,748.93 2179.83,756.38 2171.9,760.65 2162.46,762.96 2152.53,764.62 2146.97,764.67 2140.57,763.68 2129.5,756.75 2073.64,692.04 2068.41,680.1 2068.36,673.62 2069.23,668.11 2072.33,658.55 2075.98,649.54 2081.36,642.31 2091.2,626.88 2100.01,610.49 2108,593.34 2115.25,575.49 2121.75,557.05 2127.58,538.03 2132.73,518.5 2136.18,503.53 2048.2,431.77 2034.2,438.14 2016.11,447.13 1998.66,456.67 1981.9,466.74 1965.86,477.42 1950.67,488.68 1936.4,500.62 1923.27,513.36 1917.26,520.09 1909.17,525.47 1900.43,530.44 1895.22,532.4 1888.86,533.64 1876.07,530.91 1801.49,489.23 1792.47,479.78 1790.19,473.72 1789.12,468.26 1788.77,458.18 1789.12,448.5 1791.73,439.83 1795.68,421.99 1798.35,403.57 1800,384.7 1800.69,365.46 1800.52,345.9 1799.47,326.05 1797.64,305.94 1795.75,290.67 1688.54,253.34 1677.57,264.11 1663.64,278.76 1650.51,293.68 1638.2,308.89 1626.81,324.38 1616.35,340.2 1607.04,356.3 1599.03,372.74 1595.7,381.13 1589.97,388.95 1583.41,396.62 1579.2,400.24 1573.66,403.57 1560.72,405.38 1476.35,391.7 1464.66,385.92 1460.44,381.01 1457.56,376.24 1453.78,366.9 1450.8,357.67 1450.29,348.66 1447.9,330.52 1444.13,312.29 1439.21,294.03 1433.28,275.7 1426.43,257.38 1418.66,239.07 1410.05,220.79 1403.05,207.12 1289.53,208.71 1282.93,222.55 1274.84,241.08 1267.59,259.59 1261.23,278.11 1255.82,296.58 1251.43,315 1248.18,333.32 1246.29,351.52 1246.01,360.52 1243.29,369.83 1239.76,379.27 1237.03,384.13 1232.96,389.15 1221.42,395.28 1137.49,411.29 1124.5,409.85 1118.88,406.67 1114.53,403.17 1107.8,395.7 1101.84,388.03 1098.27,379.74 1089.8,363.53 1080.03,347.69 1069.18,332.18 1057.33,317.01 1044.6,302.14 1031.07,287.57 1016.72,273.34 1005.45,262.89 899.33,303.21 897.87,318.5 896.61,338.66 896.13,358.54 896.48,378.1 897.7,397.31 899.88,416.13 903.08,434.45 907.52,452.2 910.36,460.76 911,470.44 910.91,480.52 909.99,486 907.9,492.13 899.14,501.82 825.73,545.58 813.05,548.66 806.67,547.59 801.41,545.81 792.5,541.09 784.28,535.92 778.1,529.35 764.6,517.01 750,505.47 734.49,494.62 718.18,484.39 701.15,474.76 683.42,465.73 665.08,457.26 650.93,451.28 564.99,525.47 568.84,540.34 574.55,559.73 580.9,578.57 587.93,596.82 595.65,614.47 604.11,631.4 613.4,647.5 623.65,662.67 629.24,669.74 633.14,678.63 636.51,688.11 637.53,693.6 637.65,700.06 632.74,712.17 578.72,778.39 567.85,785.65 561.49,786.81 555.93,786.91 545.95,785.52 536.47,783.49 528.4,779.44 511.5,772.44 493.85,766.61 475.55,761.72 456.74,757.69 437.43,754.47 417.69,752.04 397.56,750.34 382.22,749.58 326.84,848.67 335.53,861.33 347.52,877.59 359.93,893.13 372.79,907.9 386.07,921.82 399.82,934.83 414.07,946.8 428.86,957.55 436.56,962.29 443.26,969.32 449.67,977.06 452.49,981.85 454.83,987.9 454.36,1000.94 426.26,1081.66 418.51,1092.19 412.93,1095.46 407.73,1097.47 397.88,1099.56 388.28,1100.9 379.32,1099.86 361.04,1099.06 342.43,1099.61 323.59,1101.27 304.53,1103.93 285.29,1107.51 265.9,1111.97 246.42,1117.26 231.72,1121.78 213.57,1233.85 226.08,1242.76 242.92,1253.96 259.89,1264.31 277,1273.77 294.25,1282.31 311.62,1289.85 329.1,1296.23 346.69,1301.24 355.53,1303.08 364.22,1307.38 372.91,1312.5 377.21,1316.02 381.45,1320.91 385.47,1333.32 386.69,1418.79 383.02,1431.32 378.89,1436.31 374.7,1439.96 366.16,1445.32 357.57,1449.84 348.81,1451.92 331.36,1457.44 314.05,1464.31 296.91,1472.33 279.9,1481.34 263.05,1491.3 246.37,1502.09 229.85,1513.76 217.62,1523.02 238.89,1634.52 253.69,1638.64 273.32,1643.39 292.81,1647.31 312.15,1650.36 331.28,1652.47 350.17,1653.61 368.79,1653.64 387.03,1652.34 395.97,1651.03 405.61,1652.1 415.51,1653.94 420.75,1655.77 426.43,1658.9 434.45,1669.2 464.81,1749.11 465.62,1762.14 463.47,1768.25 460.79,1773.11 454.61,1781.06 448.07,1788.25 440.53,1793.22 426.04,1804.34 412.13,1816.73 398.75,1830.11 385.87,1844.41 373.44,1859.52 361.44,1875.39 349.92,1891.99 341.59,1904.87 399.7,2002.4 415.01,2001.19 435.1,1998.95 454.75,1995.95 473.97,1992.2 492.66,1987.65 510.8,1982.27 528.31,1975.92 545.01,1968.47 552.95,1964.18 562.39,1961.89 572.32,1960.2 577.88,1960.15 584.28,1961.17 595.35,1968.09 651.18,2032.79 656.42,2044.75 656.49,2051.23 655.63,2056.72 652.52,2066.3 648.87,2075.28 643.48,2082.53 633.65,2097.97 624.81,2114.36 616.82,2131.51 609.6,2149.33 603.1,2167.8 597.26,2186.81 592.1,2206.35 588.68,2221.31 676.65,2293.06 690.62,2286.7 708.72,2277.71 726.17,2268.18 742.95,2258.1 758.96,2247.43 774.18,2236.14 788.45,2224.2 801.58,2211.49 807.59,2204.73 815.66,2199.35 824.42,2194.39 829.63,2192.45 835.99,2191.21 848.75,2193.94 923.36,2235.61 932.37,2245.07 934.63,2251.13 935.7,2256.59 936.07,2266.64 935.73,2276.35 933.12,2284.99 929.17,2302.86 926.47,2321.28 924.83,2340.12 924.13,2359.36 924.34,2378.92 925.35,2398.78 927.21,2418.91 929.1,2434.15 1036.31,2471.49 1047.26,2460.71 1061.21,2446.09 1074.34,2431.17 1086.65,2415.96 1098.05,2400.44 1108.47,2384.65 1117.8,2368.54 1125.8,2352.09 1129.15,2343.69 1134.88,2335.87 1141.41,2328.23 1145.66,2324.61 1151.19,2321.25 1164.13,2319.47 1248.5,2333.12 1260.19,2338.93 1264.41,2343.85 1267.27,2348.61 1271.07,2357.95 1274.04,2367.18 1274.57,2376.19 1276.95,2394.31 1280.72,2412.56 1285.64,2430.82 1291.54,2449.14 1298.42,2467.47 1306.18,2485.78 1314.78,2504.05 1321.78,2517.73 1435.29,2516.14 1441.92,2502.27 1450.01,2483.78 1457.26,2465.25 1463.61,2446.74 1469.03,2428.27 1473.42,2409.85 1476.68,2391.53 1478.56,2373.34 1478.83,2364.33 1481.54,2354.99 1485.06,2345.56 1487.82,2340.72 1491.87,2335.68 1503.41,2329.57 1587.36,2313.56 1600.34,2315 1605.98,2318.18 1610.29,2321.68 1617.05,2329.15 1623.01,2336.82 1626.58,2345.11 1635.04,2361.32 1644.8,2377.16 1655.67,2392.68 1667.51,2407.84 1680.22,2422.71 1693.77,2437.25 1708.12,2451.5 1719.37,2461.95 1825.51,2421.64 1826.97,2406.35 1828.24,2386.19 1828.71,2366.31 1828.37,2346.75 1827.13,2327.54 1824.96,2308.72 1821.76,2290.4 1817.32,2272.65 1814.46,2264.09 1813.84,2254.38 1813.92,2244.33 1814.84,2238.84 1816.95,2232.71 1825.69,2223.03 1899.11,2179.26 1911.8,2176.16 1918.18,2177.23 1923.44,2179.04 1932.33,2183.76 1940.55,2188.92 1946.75,2195.5 1960.23,2207.84 1974.85,2219.38 1990.34,2230.23 2006.67,2240.46 2023.7,2250.06 2041.42,2259.1 2059.77,2267.59 2073.92,2273.57 2159.86,2199.37 2156.01,2184.5 2150.3,2165.12 2143.94,2146.28 2136.92,2128.01 2129.2,2110.38 2120.74,2093.45 2111.45,2077.31 2101.2,2062.18 2095.59,2055.1 2091.69,2046.22 2088.34,2036.7 2087.32,2031.25 2087.2,2024.77 2092.09,2012.68 2146.1,1946.45 2156.98,1939.2 2163.36,1938.01 2168.92,1937.91 2178.87,1939.3 2188.38,1941.34 2196.44,1945.41 2213.33,1952.38 2231,1958.24 2249.29,1963.13 2268.11,1967.15 2287.42,1970.36 2307.16,1972.81 2327.29,1974.47 2342.63,1975.27 2398.01,1876.18 2389.32,1863.51 2377.33,1847.23 2364.92,1831.72 2352.06,1816.95 2338.75,1803.02 2325.03,1790.02 2310.78,1778.03 2295.96,1767.3 2288.29,1762.56 2281.59,1755.54 2275.19,1747.77 2272.36,1742.98 2270.02,1736.95 2270.49,1723.88 2298.59,1643.19 2306.33,1632.66 2311.9,1629.39 2317.11,1627.38 2326.94,1625.26 2336.57,1623.95 2345.53,1624.99 2363.8,1625.78 2382.4,1625.24 2401.26,1623.58 2420.33,1620.92 2439.56,1617.34 2458.95,1612.88 2478.43,1607.57 2493.13,1603.05 2511.28,1491 2498.77,1482.08 2481.93,1470.89 2464.96,1460.54 2447.83,1451.05 2430.58,1442.52 2413.22,1434.99 2395.72,1428.61 2378.15,1423.58 2369.32,1421.77 2360.6,1417.47 2351.94,1412.36 2347.64,1408.83 2343.37,1403.94 2339.35,1391.5 "/>
     <polygon id="_1" class="fil2 str1" points="2338.16,1306.07 2341.84,1293.53 2345.96,1288.54 2350.15,1284.86 2358.69,1279.53 2367.26,1274.98 2376.04,1272.92 2393.49,1267.41 2410.77,1260.54 2427.92,1252.52 2444.93,1243.51 2461.78,1233.55 2478.46,1222.73 2494.97,1211.09 2507.23,1201.83 2485.95,1090.3 2471.16,1086.21 2451.53,1081.44 2432.02,1077.51 2412.7,1074.49 2393.57,1072.35 2374.67,1071.24 2356.06,1071.21 2337.81,1072.5 2328.88,1073.79 2319.22,1072.75 2309.34,1070.91 2304.08,1069.05 2298.42,1065.92 2290.4,1055.62 2260.04,975.74 2259.2,962.71 2261.35,956.6 2264.06,951.74 2270.25,943.79 2276.75,936.6 2284.3,931.63 2298.82,920.49 2312.71,908.12 2326.1,894.72 2338.98,880.45 2351.42,865.33 2363.38,849.44 2374.92,832.86 2383.26,819.95 2325.13,722.45 2309.81,723.66 2289.73,725.9 2270.07,728.88 2250.88,732.62 2232.16,737.19 2214.02,742.58 2196.52,748.93 2179.83,756.38 2171.9,760.65 2162.46,762.96 2152.53,764.62 2146.97,764.67 2140.57,763.68 2129.5,756.75 2073.64,692.04 2068.41,680.1 2068.36,673.62 2069.23,668.11 2072.33,658.55 2075.98,649.54 2081.36,642.31 2091.2,626.88 2100.01,610.49 2108,593.34 2115.25,575.49 2121.75,557.05 2127.58,538.03 2132.73,518.5 2136.18,503.53 2048.2,431.77 2034.2,438.14 2016.11,447.13 1998.66,456.67 1981.9,466.74 1965.86,477.42 1950.67,488.68 1936.4,500.62 1923.27,513.36 1917.26,520.09 1909.17,525.47 1900.43,530.44 1895.22,532.4 1888.86,533.64 1876.07,530.91 1801.49,489.23 1792.47,479.78 1790.19,473.72 1789.12,468.26 1788.77,458.18 1789.12,448.5 1791.73,439.83 1795.68,421.99 1798.35,403.57 1800,384.7 1800.69,365.46 1800.52,345.9 1799.47,326.05 1797.64,305.94 1795.75,290.67 1688.54,253.34 1677.57,264.11 1663.64,278.76 1650.51,293.68 1638.2,308.89 1626.81,324.38 1616.35,340.2 1607.04,356.3 1599.03,372.74 1595.7,381.13 1589.97,388.95 1583.41,396.62 1579.2,400.24 1573.66,403.57 1560.72,405.38 1476.35,391.7 1464.66,385.92 1460.44,381.01 1457.56,376.24 1453.78,366.9 1450.8,357.67 1450.29,348.66 1447.9,330.52 1444.13,312.29 1439.21,294.03 1433.28,275.7 1426.43,257.38 1418.66,239.07 1410.05,220.79 1403.05,207.12 1289.53,208.71 1282.93,222.55 1274.84,241.08 1267.59,259.59 1261.23,278.11 1255.82,296.58 1251.43,315 1248.18,333.32 1246.29,351.52 1246.01,360.52 1243.29,369.83 1239.76,379.27 1237.03,384.13 1232.96,389.15 1221.42,395.28 1137.49,411.29 1124.5,409.85 1118.88,406.67 1114.53,403.17 1107.8,395.7 1101.84,388.03 1098.27,379.74 1089.8,363.53 1080.03,347.69 1069.18,332.18 1057.33,317.01 1044.6,302.14 1031.07,287.57 1016.72,273.34 1005.45,262.89 899.33,303.21 897.87,318.5 896.61,338.66 896.13,358.54 896.48,378.1 897.7,397.31 899.88,416.13 903.08,434.45 907.52,452.2 910.36,460.76 911,470.44 910.91,480.52 909.99,486 907.9,492.13 899.14,501.82 825.73,545.58 813.05,548.66 806.67,547.59 801.41,545.81 792.5,541.09 784.28,535.92 778.1,529.35 764.6,517.01 750,505.47 734.49,494.62 718.18,484.39 701.15,474.76 683.42,465.73 665.08,457.26 650.93,451.28 564.99,525.47 568.84,540.34 574.55,559.73 580.9,578.57 587.93,596.82 595.65,614.47 604.11,631.4 613.4,647.5 623.65,662.67 629.24,669.74 633.14,678.63 636.51,688.11 637.53,693.6 637.65,700.06 632.74,712.17 578.72,778.39 567.85,785.65 561.49,786.81 555.93,786.91 545.95,785.52 536.47,783.49 528.4,779.44 511.5,772.44 493.85,766.61 475.55,761.72 456.74,757.69 437.43,754.47 417.69,752.04 397.56,750.34 382.22,749.58 326.84,848.67 335.53,861.33 347.52,877.59 359.93,893.13 372.79,907.9 386.07,921.82 399.82,934.83 414.07,946.8 428.86,957.55 436.56,962.29 443.26,969.32 449.67,977.06 452.49,981.85 454.83,987.9 454.36,1000.94 426.26,1081.66 418.51,1092.19 412.93,1095.46 407.73,1097.47 397.88,1099.56 388.28,1100.9 379.32,1099.86 361.04,1099.06 342.43,1099.61 323.59,1101.27 304.53,1103.93 285.29,1107.51 265.9,1111.97 246.42,1117.26 231.72,1121.78 213.57,1233.85 226.08,1242.76 242.92,1253.96 259.89,1264.31 277,1273.77 294.25,1282.31 311.62,1289.85 329.1,1296.23 346.69,1301.24 355.53,1303.08 364.22,1307.38 372.91,1312.5 377.21,1316.02 381.45,1320.91 385.47,1333.32 386.69,1418.79 383.02,1431.32 378.89,1436.31 374.7,1439.96 366.16,1445.32 357.57,1449.84 348.81,1451.92 331.36,1457.44 314.05,1464.31 296.91,1472.33 279.9,1481.34 263.05,1491.3 246.37,1502.09 229.85,1513.76 217.62,1523.02 238.89,1634.52 253.69,1638.64 273.32,1643.39 292.81,1647.31 312.15,1650.36 331.28,1652.47 350.17,1653.61 368.79,1653.64 387.03,1652.34 395.97,1651.03 405.61,1652.1 415.51,1653.94 420.75,1655.77 426.43,1658.9 434.45,1669.2 464.81,1749.11 465.62,1762.14 463.47,1768.25 460.79,1773.11 454.61,1781.06 448.07,1788.25 440.53,1793.22 426.04,1804.34 412.13,1816.73 398.75,1830.11 385.87,1844.41 373.44,1859.52 361.44,1875.39 349.92,1891.99 341.59,1904.87 399.7,2002.4 415.01,2001.19 435.1,1998.95 454.75,1995.95 473.97,1992.2 492.66,1987.65 510.8,1982.27 528.31,1975.92 545.01,1968.47 552.95,1964.18 562.39,1961.89 572.32,1960.2 577.88,1960.15 584.28,1961.17 595.35,1968.09 651.18,2032.79 656.42,2044.75 656.49,2051.23 655.63,2056.72 652.52,2066.3 648.87,2075.28 643.48,2082.53 633.65,2097.97 624.81,2114.36 616.82,2131.51 609.6,2149.33 603.1,2167.8 597.26,2186.81 592.1,2206.35 588.68,2221.31 676.65,2293.06 690.62,2286.7 708.72,2277.71 726.17,2268.18 742.95,2258.1 758.96,2247.43 774.18,2236.14 788.45,2224.2 801.58,2211.49 807.59,2204.73 815.66,2199.35 824.42,2194.39 829.63,2192.45 835.99,2191.21 848.75,2193.94 923.36,2235.61 932.37,2245.07 934.63,2251.13 935.7,2256.59 936.07,2266.64 935.73,2276.35 933.12,2284.99 929.17,2302.86 926.47,2321.28 924.83,2340.12 924.13,2359.36 924.34,2378.92 925.35,2398.78 927.21,2418.91 929.1,2434.15 1036.31,2471.49 1047.26,2460.71 1061.21,2446.09 1074.34,2431.17 1086.65,2415.96 1098.05,2400.44 1108.47,2384.65 1117.8,2368.54 1125.8,2352.09 1129.15,2343.69 1134.88,2335.87 1141.41,2328.23 1145.66,2324.61 1151.19,2321.25 1164.13,2319.47 1248.5,2333.12 1260.19,2338.93 1264.41,2343.85 1267.27,2348.61 1271.07,2357.95 1274.04,2367.18 1274.57,2376.19 1276.95,2394.31 1280.72,2412.56 1285.64,2430.82 1291.54,2449.14 1298.42,2467.47 1306.18,2485.78 1314.78,2504.05 1321.78,2517.73 1435.29,2516.14 1441.92,2502.27 1450.01,2483.78 1457.26,2465.25 1463.61,2446.74 1469.03,2428.27 1473.42,2409.85 1476.68,2391.53 1478.56,2373.34 1478.83,2364.33 1481.54,2354.99 1485.06,2345.56 1487.82,2340.72 1491.87,2335.68 1503.41,2329.57 1587.36,2313.56 1600.34,2315 1605.98,2318.18 1610.29,2321.68 1617.05,2329.15 1623.01,2336.82 1626.58,2345.11 1635.04,2361.32 1644.8,2377.16 1655.67,2392.68 1667.51,2407.84 1680.22,2422.71 1693.77,2437.25 1708.12,2451.5 1719.37,2461.95 1825.51,2421.64 1826.97,2406.35 1828.24,2386.19 1828.71,2366.31 1828.37,2346.75 1827.13,2327.54 1824.96,2308.72 1821.76,2290.4 1817.32,2272.65 1814.46,2264.09 1813.84,2254.38 1813.92,2244.33 1814.84,2238.84 1816.95,2232.71 1825.69,2223.03 1899.11,2179.26 1911.8,2176.16 1918.18,2177.23 1923.44,2179.04 1932.33,2183.76 1940.55,2188.92 1946.75,2195.5 1960.23,2207.84 1974.85,2219.38 1990.34,2230.23 2006.67,2240.46 2023.7,2250.06 2041.42,2259.1 2059.77,2267.59 2073.92,2273.57 2159.86,2199.37 2156.01,2184.5 2150.3,2165.12 2143.94,2146.28 2136.92,2128.01 2129.2,2110.38 2120.74,2093.45 2111.45,2077.31 2101.2,2062.18 2095.59,2055.1 2091.69,2046.22 2088.34,2036.7 2087.32,2031.25 2087.2,2024.77 2092.09,2012.68 2146.1,1946.45 2156.98,1939.2 2163.36,1938.01 2168.92,1937.91 2178.87,1939.3 2188.38,1941.34 2196.44,1945.41 2213.33,1952.38 2231,1958.24 2249.29,1963.13 2268.11,1967.15 2287.42,1970.36 2307.16,1972.81 2327.29,1974.47 2342.63,1975.27 2398.01,1876.18 2389.32,1863.51 2377.33,1847.23 2364.92,1831.72 2352.06,1816.95 2338.75,1803.02 2325.03,1790.02 2310.78,1778.03 2295.96,1767.3 2288.29,1762.56 2281.59,1755.54 2275.19,1747.77 2272.36,1742.98 2270.02,1736.95 2270.49,1723.88 2298.59,1643.19 2306.33,1632.66 2311.9,1629.39 2317.11,1627.38 2326.94,1625.26 2336.57,1623.95 2345.53,1624.99 2363.8,1625.78 2382.4,1625.24 2401.26,1623.58 2420.33,1620.92 2439.56,1617.34 2458.95,1612.88 2478.43,1607.57 2493.13,1603.05 2511.28,1491 2498.77,1482.08 2481.93,1470.89 2464.96,1460.54 2447.83,1451.05 2430.58,1442.52 2413.22,1434.99 2395.72,1428.61 2378.15,1423.58 2369.32,1421.77 2360.6,1417.47 2351.94,1412.36 2347.64,1408.83 2343.37,1403.94 2339.35,1391.5 "/>
    </g>
    <polygon class="fil0 str1" points="2338.16,1306.07 2341.84,1293.53 2345.96,1288.54 2350.15,1284.86 2358.69,1279.53 2367.26,1274.98 2376.04,1272.92 2393.49,1267.41 2410.77,1260.54 2427.92,1252.52 2444.93,1243.51 2461.78,1233.55 2478.46,1222.73 2494.97,1211.09 2507.23,1201.83 2485.95,1090.3 2471.16,1086.21 2451.53,1081.44 2432.02,1077.51 2412.7,1074.49 2393.57,1072.35 2374.67,1071.24 2356.06,1071.21 2337.81,1072.5 2328.88,1073.79 2319.22,1072.75 2309.34,1070.91 2304.08,1069.05 2298.42,1065.92 2290.4,1055.62 2260.04,975.74 2259.2,962.71 2261.35,956.6 2264.06,951.74 2270.25,943.79 2276.75,936.6 2284.3,931.63 2298.82,920.49 2312.71,908.12 2326.1,894.72 2338.98,880.45 2351.42,865.33 2363.38,849.44 2374.92,832.86 2383.26,819.95 2325.13,722.45 2309.81,723.66 2289.73,725.9 2270.07,728.88 2250.88,732.62 2232.16,737.19 2214.02,742.58 2196.52,748.93 2179.83,756.38 2171.9,760.65 2162.46,762.96 2152.53,764.62 2146.97,764.67 2140.57,763.68 2129.5,756.75 2073.64,692.04 2068.41,680.1 2068.36,673.62 2069.23,668.11 2072.33,658.55 2075.98,649.54 2081.36,642.31 2091.2,626.88 2100.01,610.49 2108,593.34 2115.25,575.49 2121.75,557.05 2127.58,538.03 2132.73,518.5 2136.18,503.53 2048.2,431.77 2034.2,438.14 2016.11,447.13 1998.66,456.67 1981.9,466.74 1965.86,477.42 1950.67,488.68 1936.4,500.62 1923.27,513.36 1917.26,520.09 1909.17,525.47 1900.43,530.44 1895.22,532.4 1888.86,533.64 1876.07,530.91 1801.49,489.23 1792.47,479.78 1790.19,473.72 1789.12,468.26 1788.77,458.18 1789.12,448.5 1791.73,439.83 1795.68,421.99 1798.35,403.57 1800,384.7 1800.69,365.46 1800.52,345.9 1799.47,326.05 1797.64,305.94 1795.75,290.67 1688.54,253.34 1677.57,264.11 1663.64,278.76 1650.51,293.68 1638.2,308.89 1626.81,324.38 1616.35,340.2 1607.04,356.3 1599.03,372.74 1595.7,381.13 1589.97,388.95 1583.41,396.62 1579.2,400.24 1573.66,403.57 1560.72,405.38 1476.35,391.7 1464.66,385.92 1460.44,381.01 1457.56,376.24 1453.78,366.9 1450.8,357.67 1450.29,348.66 1447.9,330.52 1444.13,312.29 1439.21,294.03 1433.28,275.7 1426.43,257.38 1418.66,239.07 1410.05,220.79 1403.05,207.12 1289.53,208.71 1282.93,222.55 1274.84,241.08 1267.59,259.59 1261.23,278.11 1255.82,296.58 1251.43,315 1248.18,333.32 1246.29,351.52 1246.01,360.52 1243.29,369.83 1239.76,379.27 1237.03,384.13 1232.96,389.15 1221.42,395.28 1137.49,411.29 1124.5,409.85 1118.88,406.67 1114.53,403.17 1107.8,395.7 1101.84,388.03 1098.27,379.74 1089.8,363.53 1080.03,347.69 1069.18,332.18 1057.33,317.01 1044.6,302.14 1031.07,287.57 1016.72,273.34 1005.45,262.89 899.33,303.21 897.87,318.5 896.61,338.66 896.13,358.54 896.48,378.1 897.7,397.31 899.88,416.13 903.08,434.45 907.52,452.2 910.36,460.76 911,470.44 910.91,480.52 909.99,486 907.9,492.13 899.14,501.82 825.73,545.58 813.05,548.66 806.67,547.59 801.41,545.81 792.5,541.09 784.28,535.92 778.1,529.35 764.6,517.01 750,505.47 734.49,494.62 718.18,484.39 701.15,474.76 683.42,465.73 665.08,457.26 650.93,451.28 564.99,525.47 568.84,540.34 574.55,559.73 580.9,578.57 587.93,596.82 595.65,614.47 604.11,631.4 613.4,647.5 623.65,662.67 629.24,669.74 633.14,678.63 636.51,688.11 637.53,693.6 637.65,700.06 632.74,712.17 578.72,778.39 567.85,785.65 561.49,786.81 555.93,786.91 545.95,785.52 536.47,783.49 528.4,779.44 511.5,772.44 493.85,766.61 475.55,761.72 456.74,757.69 437.43,754.47 417.69,752.04 397.56,750.34 382.22,749.58 326.84,848.67 335.53,861.33 347.52,877.59 359.93,893.13 372.79,907.9 386.07,921.82 399.82,934.83 414.07,946.8 428.86,957.55 436.56,962.29 443.26,969.32 449.67,977.06 452.49,981.85 454.83,987.9 454.36,1000.94 426.26,1081.66 418.51,1092.19 412.93,1095.46 407.73,1097.47 397.88,1099.56 388.28,1100.9 379.32,1099.86 361.04,1099.06 342.43,1099.61 323.59,1101.27 304.53,1103.93 285.29,1107.51 265.9,1111.97 246.42,1117.26 231.72,1121.78 213.57,1233.85 226.08,1242.76 242.92,1253.96 259.89,1264.31 277,1273.77 294.25,1282.31 311.62,1289.85 329.1,1296.23 346.69,1301.24 355.53,1303.08 364.22,1307.38 372.91,1312.5 377.21,1316.02 381.45,1320.91 385.47,1333.32 386.69,1418.79 383.02,1431.32 378.89,1436.31 374.7,1439.96 366.16,1445.32 357.57,1449.84 348.81,1451.92 331.36,1457.44 314.05,1464.31 296.91,1472.33 279.9,1481.34 263.05,1491.3 246.37,1502.09 229.85,1513.76 217.62,1523.02 238.89,1634.52 253.69,1638.64 273.32,1643.39 292.81,1647.31 312.15,1650.36 331.28,1652.47 350.17,1653.61 368.79,1653.64 387.03,1652.34 395.97,1651.03 405.61,1652.1 415.51,1653.94 420.75,1655.77 426.43,1658.9 434.45,1669.2 464.81,1749.11 465.62,1762.14 463.47,1768.25 460.79,1773.11 454.61,1781.06 448.07,1788.25 440.53,1793.22 426.04,1804.34 412.13,1816.73 398.75,1830.11 385.87,1844.41 373.44,1859.52 361.44,1875.39 349.92,1891.99 341.59,1904.87 399.7,2002.4 415.01,2001.19 435.1,1998.95 454.75,1995.95 473.97,1992.2 492.66,1987.65 510.8,1982.27 528.31,1975.92 545.01,1968.47 552.95,1964.18 562.39,1961.89 572.32,1960.2 577.88,1960.15 584.28,1961.17 595.35,1968.09 651.18,2032.79 656.42,2044.75 656.49,2051.23 655.63,2056.72 652.52,2066.3 648.87,2075.28 643.48,2082.53 633.65,2097.97 624.81,2114.36 616.82,2131.51 609.6,2149.33 603.1,2167.8 597.26,2186.81 592.1,2206.35 588.68,2221.31 676.65,2293.06 690.62,2286.7 708.72,2277.71 726.17,2268.18 742.95,2258.1 758.96,2247.43 774.18,2236.14 788.45,2224.2 801.58,2211.49 807.59,2204.73 815.66,2199.35 824.42,2194.39 829.63,2192.45 835.99,2191.21 848.75,2193.94 923.36,2235.61 932.37,2245.07 934.63,2251.13 935.7,2256.59 936.07,2266.64 935.73,2276.35 933.12,2284.99 929.17,2302.86 926.47,2321.28 924.83,2340.12 924.13,2359.36 924.34,2378.92 925.35,2398.78 927.21,2418.91 929.1,2434.15 1036.31,2471.49 1047.26,2460.71 1061.21,2446.09 1074.34,2431.17 1086.65,2415.96 1098.05,2400.44 1108.47,2384.65 1117.8,2368.54 1125.8,2352.09 1129.15,2343.69 1134.88,2335.87 1141.41,2328.23 1145.66,2324.61 1151.19,2321.25 1164.13,2319.47 1248.5,2333.12 1260.19,2338.93 1264.41,2343.85 1267.27,2348.61 1271.07,2357.95 1274.04,2367.18 1274.57,2376.19 1276.95,2394.31 1280.72,2412.56 1285.64,2430.82 1291.54,2449.14 1298.42,2467.47 1306.18,2485.78 1314.78,2504.05 1321.78,2517.73 1435.29,2516.14 1441.92,2502.27 1450.01,2483.78 1457.26,2465.25 1463.61,2446.74 1469.03,2428.27 1473.42,2409.85 1476.68,2391.53 1478.56,2373.34 1478.83,2364.33 1481.54,2354.99 1485.06,2345.56 1487.82,2340.72 1491.87,2335.68 1503.41,2329.57 1587.36,2313.56 1600.34,2315 1605.98,2318.18 1610.29,2321.68 1617.05,2329.15 1623.01,2336.82 1626.58,2345.11 1635.04,2361.32 1644.8,2377.16 1655.67,2392.68 1667.51,2407.84 1680.22,2422.71 1693.77,2437.25 1708.12,2451.5 1719.37,2461.95 1825.51,2421.64 1826.97,2406.35 1828.24,2386.19 1828.71,2366.31 1828.37,2346.75 1827.13,2327.54 1824.96,2308.72 1821.76,2290.4 1817.32,2272.65 1814.46,2264.09 1813.84,2254.38 1813.92,2244.33 1814.84,2238.84 1816.95,2232.71 1825.69,2223.03 1899.11,2179.26 1911.8,2176.16 1918.18,2177.23 1923.44,2179.04 1932.33,2183.76 1940.55,2188.92 1946.75,2195.5 1960.23,2207.84 1974.85,2219.38 1990.34,2230.23 2006.67,2240.46 2023.7,2250.06 2041.42,2259.1 2059.77,2267.59 2073.92,2273.57 2159.86,2199.37 2156.01,2184.5 2150.3,2165.12 2143.94,2146.28 2136.92,2128.01 2129.2,2110.38 2120.74,2093.45 2111.45,2077.31 2101.2,2062.18 2095.59,2055.1 2091.69,2046.22 2088.34,2036.7 2087.32,2031.25 2087.2,2024.77 2092.09,2012.68 2146.1,1946.45 2156.98,1939.2 2163.36,1938.01 2168.92,1937.91 2178.87,1939.3 2188.38,1941.34 2196.44,1945.41 2213.33,1952.38 2231,1958.24 2249.29,1963.13 2268.11,1967.15 2287.42,1970.36 2307.16,1972.81 2327.29,1974.47 2342.63,1975.27 2398.01,1876.18 2389.32,1863.51 2377.33,1847.23 2364.92,1831.72 2352.06,1816.95 2338.75,1803.02 2325.03,1790.02 2310.78,1778.03 2295.96,1767.3 2288.29,1762.56 2281.59,1755.54 2275.19,1747.77 2272.36,1742.98 2270.02,1736.95 2270.49,1723.88 2298.59,1643.19 2306.33,1632.66 2311.9,1629.39 2317.11,1627.38 2326.94,1625.26 2336.57,1623.95 2345.53,1624.99 2363.8,1625.78 2382.4,1625.24 2401.26,1623.58 2420.33,1620.92 2439.56,1617.34 2458.95,1612.88 2478.43,1607.57 2493.13,1603.05 2511.28,1491 2498.77,1482.08 2481.93,1470.89 2464.96,1460.54 2447.83,1451.05 2430.58,1442.52 2413.22,1434.99 2395.72,1428.61 2378.15,1423.58 2369.32,1421.77 2360.6,1417.47 2351.94,1412.36 2347.64,1408.83 2343.37,1403.94 2339.35,1391.5 "/>
   </g>
   <g id="G1Gear_0" data-id="0">
    <g>
     <polygon class="fil1" points="1761.47,1400.02 2116.37,1332.33 2172.07,1378.55 2168.97,1435.12 2161.92,1491.34 2150.94,1546.95 2136.1,1601.63 2117.48,1655.15 2095.16,1707.23 2069.25,1757.62 2039.89,1806.08 2007.21,1852.37 1971.37,1896.26 1932.55,1937.54 1890.94,1975.99 1819.8,1962.53 1645.74,1645.91 1655.92,1548.51 1692.88,1469.95 "/>
     <polygon id="_1_1" class="fil2 str1" points="1761.47,1400.02 2116.37,1332.33 2172.07,1378.55 2168.97,1435.12 2161.92,1491.34 2150.94,1546.95 2136.1,1601.63 2117.48,1655.15 2095.16,1707.23 2069.25,1757.62 2039.89,1806.08 2007.21,1852.37 1971.37,1896.26 1932.55,1937.54 1890.94,1975.99 1819.8,1962.53 1645.74,1645.91 1655.92,1548.51 1692.88,1469.95 "/>
    </g>
    <polygon class="fil0 str1" points="1761.47,1400.02 2116.37,1332.33 2172.07,1378.55 2168.97,1435.12 2161.92,1491.34 2150.94,1546.95 2136.1,1601.63 2117.48,1655.15 2095.16,1707.23 2069.25,1757.62 2039.89,1806.08 2007.21,1852.37 1971.37,1896.26 1932.55,1937.54 1890.94,1975.99 1819.8,1962.53 1645.74,1645.91 1655.92,1548.51 1692.88,1469.95 "/>
   </g>
   <g id="G1Gear_2" data-id="0">
    <g>
     <polygon class="fil1" points="1449.99,1753.55 1624.02,2070.15 1597.29,2137.44 1542.5,2151.96 1486.85,2162.61 1430.6,2169.36 1374,2172.15 1317.36,2170.98 1260.93,2165.84 1204.98,2156.77 1149.83,2143.82 1095.71,2127.06 1042.89,2106.53 991.63,2082.36 942.21,2054.68 933.02,1982.87 1180.33,1719.49 1276.15,1699.06 1362.26,1709.93 "/>
     <polygon id="_1_3" class="fil2 str1" points="1449.99,1753.55 1624.02,2070.15 1597.29,2137.44 1542.5,2151.96 1486.85,2162.61 1430.6,2169.36 1374,2172.15 1317.36,2170.98 1260.93,2165.84 1204.98,2156.77 1149.83,2143.82 1095.71,2127.06 1042.89,2106.53 991.63,2082.36 942.21,2054.68 933.02,1982.87 1180.33,1719.49 1276.15,1699.06 1362.26,1709.93 "/>
    </g>
    <polygon class="fil0 str1" points="1449.99,1753.55 1624.02,2070.15 1597.29,2137.44 1542.5,2151.96 1486.85,2162.61 1430.6,2169.36 1374,2172.15 1317.36,2170.98 1260.93,2165.84 1204.98,2156.77 1149.83,2143.82 1095.71,2127.06 1042.89,2106.53 991.63,2082.36 942.21,2054.68 933.02,1982.87 1180.33,1719.49 1276.15,1699.06 1362.26,1709.93 "/>
   </g>
   <g id="G1Gear_4" data-id="0">
    <g>
     <polygon class="fil1" points="1017.5,1566.56 770.16,1829.93 697.92,1825.26 667.19,1777.68 639.84,1728.03 616.05,1676.62 595.9,1623.65 579.51,1569.41 566.95,1514.15 558.29,1458.18 553.55,1401.7 552.81,1345.03 555.98,1288.46 563.13,1232.26 574.2,1176.69 639.66,1145.76 966.56,1299.58 1015.58,1384.41 1031.87,1469.68 "/>
     <polygon id="_1_5" class="fil2 str1" points="1017.5,1566.56 770.16,1829.93 697.92,1825.26 667.19,1777.68 639.84,1728.03 616.05,1676.62 595.9,1623.65 579.51,1569.41 566.95,1514.15 558.29,1458.18 553.55,1401.7 552.81,1345.03 555.98,1288.46 563.13,1232.26 574.2,1176.69 639.66,1145.76 966.56,1299.58 1015.58,1384.41 1031.87,1469.68 "/>
    </g>
    <polygon class="fil0 str1" points="1017.5,1566.56 770.16,1829.93 697.92,1825.26 667.19,1777.68 639.84,1728.03 616.05,1676.62 595.9,1623.65 579.51,1569.41 566.95,1514.15 558.29,1458.18 553.55,1401.7 552.81,1345.03 555.98,1288.46 563.13,1232.26 574.2,1176.69 639.66,1145.76 966.56,1299.58 1015.58,1384.41 1031.87,1469.68 "/>
   </g>
   <g id="G1Gear_6" data-id="0">
    <g>
     <polygon class="fil1" points="1061.68,1097.45 734.79,943.62 716.89,873.47 752.66,829.53 791.41,788.2 832.96,749.68 877.09,714.13 923.61,681.78 972.29,652.77 1022.85,627.23 1075.11,605.28 1128.75,587.06 1183.53,572.61 1239.22,562.04 1295.49,555.39 1345.13,608.08 1299.83,966.53 1234.35,1039.36 1158.27,1081.17 "/>
     <polygon id="_1_7" class="fil2 str1" points="1061.68,1097.45 734.79,943.62 716.89,873.47 752.66,829.53 791.41,788.2 832.96,749.68 877.09,714.13 923.61,681.78 972.29,652.77 1022.85,627.23 1075.11,605.28 1128.75,587.06 1183.53,572.61 1239.22,562.04 1295.49,555.39 1345.13,608.08 1299.83,966.53 1234.35,1039.36 1158.27,1081.17 "/>
    </g>
    <polygon class="fil0 str1" points="1061.68,1097.45 734.79,943.62 716.89,873.47 752.66,829.53 791.41,788.2 832.96,749.68 877.09,714.13 923.61,681.78 972.29,652.77 1022.85,627.23 1075.11,605.28 1128.75,587.06 1183.53,572.61 1239.22,562.04 1295.49,555.39 1345.13,608.08 1299.83,966.53 1234.35,1039.36 1158.27,1081.17 "/>
   </g>
   <g id="G1Gear_8" data-id="0">
    <g>
     <polygon class="fil1" points="1521.48,994.53 1566.78,636.09 1627.95,597.39 1680.79,617.82 1732.1,641.9 1781.58,669.52 1828.99,700.53 1874.14,734.79 1916.79,772.09 1956.7,812.3 1993.72,855.2 2027.64,900.6 2058.3,948.24 2085.56,997.91 2109.29,1049.37 2074.49,1112.86 1719.62,1180.56 1630.1,1140.79 1566.8,1081.36 "/>
     <polygon id="_1_9" class="fil2 str1" points="1521.48,994.53 1566.78,636.09 1627.95,597.39 1680.79,617.82 1732.1,641.9 1781.58,669.52 1828.99,700.53 1874.14,734.79 1916.79,772.09 1956.7,812.3 1993.72,855.2 2027.64,900.6 2058.3,948.24 2085.56,997.91 2109.29,1049.37 2074.49,1112.86 1719.62,1180.56 1630.1,1140.79 1566.8,1081.36 "/>
    </g>
    <polygon class="fil0 str1" points="1521.48,994.53 1566.78,636.09 1627.95,597.39 1680.79,617.82 1732.1,641.9 1781.58,669.52 1828.99,700.53 1874.14,734.79 1916.79,772.09 1956.7,812.3 1993.72,855.2 2027.64,900.6 2058.3,948.24 2085.56,997.91 2109.29,1049.37 2074.49,1112.86 1719.62,1180.56 1630.1,1140.79 1566.8,1081.36 "/>
   </g>
   <circle id="G1_sh" class="fil2 str1" cx="1362.41" cy="1362.41" r="124.12"/>
  </g>
  <path class="fil3" d="M1018.66 1574.52l-221.52 0 -31.81 104.28 -199.58 0 238.17 -632.75 214.01 0 237.13 632.75 -204.73 0 -31.66 -104.28zm-41.39 -136.98l-69.08 -227.41 -69.38 227.41 138.45 0z"/>
  <path id="_1_10" class="fil3" d="M1315.89 1046.05l325.21 0c70.84,0 123.87,16.79 159.22,50.52 35.2,33.73 52.88,81.75 52.88,144.05 0,63.92 -19.3,114 -57.73,149.94 -38.45,36.09 -97.21,54.05 -176.16,54.05l-107.22 0 0 234.19 -196.19 0 0 -632.75zm196.19 270.42l48.17 0c38,0 64.66,-6.63 79.97,-19.73 15.32,-13.11 22.98,-29.9 22.98,-50.37 0,-19.89 -6.62,-36.68 -20.03,-50.53 -13.26,-13.84 -38.29,-20.76 -75.12,-20.76l-55.97 0 0 141.4z"/>
  <polygon id="_2" class="fil3" points="1962.92,1046.05 2159.11,1046.05 2159.11,1678.8 1962.92,1678.8 "/>
  <g>
   <path id="_3" class="fil4" d="M991.51 1611.34l-167.26 0 -23.83 78.1c-4.8,15.84 -19.36,26.04 -35.1,26.04l0 0.14 -199.58 0c-20.33,0 -36.82,-16.49 -36.82,-36.82 0,-5.49 1.2,-10.7 3.36,-15.38l237.25 -630.32c5.54,-14.72 19.53,-23.8 34.38,-23.8l0 -0.08 214.01 0c16.92,0 31.18,11.43 35.49,26.98l236.03 629.8c7.07,18.98 -2.6,40.12 -21.58,47.19 -4.22,1.57 -8.55,2.32 -12.8,2.31l0 0.13 -204.73 0c-17.78,0 -32.63,-12.62 -36.07,-29.38l-22.74 -74.9zm27.15 -36.82l-221.52 0 -31.81 104.28 -199.58 0 238.17 -632.75 214.01 0 237.13 632.75 -204.73 0 -31.66 -104.28zm-41.39 -136.98l-69.08 -227.41 -69.38 227.41 138.45 0zm-49.52 -36.82l-19.64 -64.64 -19.72 64.64 39.36 0z"/>
  </g>
  <g>
   <path id="_4" class="fil4" d="M1315.89 1009.22l325.21 0c39.17,0 73.84,4.77 104,14.33 31.86,10.11 58.71,25.58 80.54,46.4 0.05,0.05 0.1,0.1 0.15,0.14 21.71,20.8 37.96,45.87 48.72,75.16 10.34,28.17 15.52,59.97 15.52,95.36 0,36.19 -5.69,69.07 -17.03,98.54 -11.64,30.23 -29.14,56.29 -52.42,78.09l0.07 0.07c-23.37,21.93 -52.47,38.24 -87.28,48.9 -33.12,10.15 -71.15,15.22 -114.06,15.22l-70.4 0 0 197.36c0,20.33 -16.49,36.82 -36.82,36.82l-196.19 0c-20.33,0 -36.82,-16.49 -36.82,-36.82l0 -632.75c0,-20.33 16.49,-36.82 36.82,-36.82zm0 36.82l325.21 0c70.84,0 123.87,16.79 159.22,50.52 35.2,33.73 52.88,81.75 52.88,144.05 0,63.92 -19.3,114 -57.73,149.94 -38.45,36.09 -97.21,54.05 -176.16,54.05l-107.22 0 0 234.19 -196.19 0 0 -632.75zm196.19 270.42l48.17 0c38,0 64.66,-6.63 79.97,-19.73 15.32,-13.11 22.98,-29.9 22.98,-50.37 0,-19.89 -6.62,-36.68 -20.03,-50.53 -13.26,-13.84 -38.29,-20.76 -75.12,-20.76l-55.97 0 0 141.4zm36.82 -36.82l11.34 0c16.23,0 29.48,-1.27 39.72,-3.81 7.67,-1.89 13.14,-4.24 16.37,-7.01 3.58,-3.07 6.18,-6.34 7.74,-9.77 1.53,-3.35 2.3,-7.59 2.3,-12.7 0,-5.29 -0.8,-9.96 -2.4,-14.01 -1.58,-3.99 -3.97,-7.64 -7.13,-10.91 -0.05,-0.05 -0.1,-0.1 -0.14,-0.15l-0.01 0.01c-2.01,-2.1 -6.03,-3.99 -12.04,-5.65 -9.04,-2.49 -21.25,-3.75 -36.61,-3.75l-19.14 0 0 67.75z"/>
  </g>
  <g>
   <path id="_5" class="fil4" d="M1962.92 1009.22l196.19 0c20.33,0 36.82,16.49 36.82,36.82l0 632.75c0,20.33 -16.49,36.82 -36.82,36.82l-196.19 0c-20.33,0 -36.82,-16.49 -36.82,-36.82l0 -632.75c0,-20.33 16.49,-36.82 36.82,-36.82zm0 36.82l196.19 0 0 632.75 -196.19 0 0 -632.75z"/>
  </g>
  <line class="fil2 str2" x1="2246.16" y1="2688.01" x2="11083.48" y2= "2688.01" />
 </g>
</svg>
