<?xml version="1.0" encoding="UTF-8"?>
<!DOCTYPE svg PUBLIC "-//W3C//DTD SVG 1.1//EN" "http://www.w3.org/Graphics/SVG/1.1/DTD/svg11.dtd">
<!-- Creator: CorelDRAW 2021.5 -->
<svg xmlns="http://www.w3.org/2000/svg" xml:space="preserve" width="32.3723mm" height="35.7386mm" version="1.1" style="shape-rendering:geometricPrecision; text-rendering:geometricPrecision; image-rendering:optimizeQuality; fill-rule:evenodd; clip-rule:evenodd"
viewBox="0 0 612.48 676.17"
 xmlns:xlink="http://www.w3.org/1999/xlink"
 xmlns:xodm="http://www.corel.com/coreldraw/odm/2003">
 <defs>
  <style type="text/css">
   <![CDATA[
    .str0 {stroke:white;stroke-width:3.34;stroke-miterlimit:2.61313}
    .fil0 {fill:black}
    .fil1 {fill:white}
    .fil2 {fill:white}
   ]]>
  </style>
 </defs>
 <g id="Layer_x0020_1">
  <metadata id="CorelCorpID_0Corel-Layer"/>
  <path id="body" class="fil0" d="M531.31 347.62c-14.18,146.55 -60.52,328.56 -211.89,328.56 -143.98,0 -196.85,-164.65 -216.13,-306.83 -30.45,42.56 -43.95,104.96 -40.63,141.66 2.12,22.15 -51.17,33.06 -61.93,4.55 -6.5,-73.65 31.65,-212.8 93.56,-244.63 -1.61,-31.04 -1.91,-57.45 -1.91,-75.99 0,-107.66 99.62,-194.93 222.62,-194.93 122.89,0 222.56,87.27 222.56,194.93 0,15.6 -0.03,36.77 -0.73,61.58 69.68,17.09 143.98,232.71 -39.31,260.72 -10.76,28.5 15.18,-40.11 17.3,-62.26 45.12,-20.59 53.86,-65.43 16.49,-107.35z"/>
  <path id="face" class="fil1" d="M313.54 287.72c-96.65,0 -175,-55.63 -175,-124.22 0,-68.57 78.34,-124.2 175,-124.2 96.67,0 175.05,55.63 175.05,124.2 0,68.59 -78.39,124.22 -175.05,124.22l0 0z"/>
  <circle id="eye" class="fil0" cx="243.11" cy="179.69" r="14.04"/>
  <circle id="eye_0" class="fil0" cx="392.88" cy="179.69" r="14.04"/>
  <path id="Coffee-2346113.svg" class="fil2 str0" d="M255.21 512.1c-26.2,7.78 -38.69,28.91 -2.62,40.76 58.73,19.31 111.56,17.85 164.31,6.78 35.38,-7.42 48.76,-19.64 39.24,-34.6 18.02,17.64 -3.79,31.23 -35.36,39.61 -51.72,13.72 -127.17,11.68 -173.77,-5.98 -38.71,-14.68 -25.83,-37.51 8.19,-46.57l0.01 0zm114.69 -204.05c-13.95,7.61 -13.47,14.66 -10.6,19.89 0.31,-6.8 1.24,-9.4 14.34,-17.39 12.54,-7.63 7.83,-15.68 4.19,-20.3 1.88,7.17 3.07,11.8 -7.94,17.8l0.01 0zm7.74 59.86c-20,10.91 -29.8,19.96 -33.58,29.65 -11.53,-1.42 -27.05,-0.15 -43.6,4.85 -12.44,3.77 -28.65,13.84 -25.53,20.78 -17.83,42.92 -3.03,92.98 41.12,109.62 -23.83,-19.01 -51.24,-38.47 -37.93,-102.08 19.22,13.92 39.75,14.22 60.74,14.55 23.17,0.37 48.46,-1.92 65.98,-12.51 25.94,42.22 -13.7,84.91 -49.59,103.48 27.02,-11.29 53.27,-20.67 63.93,-56.49 5.96,-20.02 3.72,-40.16 -8.48,-63.38 -0.19,7.61 -1.62,9.79 -14.54,17.22 17.7,-11.95 -11.22,-25.15 -45.74,-26.47 1.01,-2.1 2.33,-4.17 4.04,-6.28 7.49,0.3 15.14,0.79 22.78,1.3 -5.7,-2.63 -14.17,-3.67 -21.58,-4.18 5.87,-6.62 15.82,-12.41 32.87,-22.78 36.46,-22.19 22.77,-45.55 12.17,-59 5.44,20.83 8.91,34.28 -23.07,51.72l0.01 0zm-34.14 32.69c-0.72,2.19 -1.13,4.34 -1.3,6.44 -17.53,0.32 -35.66,3.84 -49.31,12.2 13.37,-5.38 31.76,-8.45 49.25,-8.78 0.27,5.51 2.17,10.62 4.72,15.24 0.27,-5.92 0.71,-10.75 2.21,-15.23 14.29,0.33 27.4,2.6 35.88,7.04 17.71,9.28 8.66,17.34 -5.58,20.79 -10.82,1.68 -24.54,2.47 -41.36,2.23 -54.83,-0.78 -62.31,-18.38 -53.47,-25.44 14.77,-11.77 35.82,-14.62 58.96,-14.49l0.01 -0.01zm29.97 -68.89c-23.69,12.92 -22.9,24.91 -17.99,33.79 0.53,-11.54 2.1,-15.99 24.36,-29.53 21.32,-12.98 13.32,-26.63 7.12,-34.5 3.18,12.18 5.21,20.05 -13.49,30.24zm34.94 185.25c17.39,-14.95 50.72,-40.72 21.56,-61.87 -12.58,-9.12 -0.53,-23.81 14.88,-15.3 15.99,8.81 22.76,25.01 6.9,45.06 -12.41,15.68 -28.58,24.15 -43.34,32.13l0 -0.01z"/>
 </g>
</svg>
