<?xml version="1.0" encoding="UTF-8"?>
<!DOCTYPE svg PUBLIC "-//W3C//DTD SVG 1.1//EN" "http://www.w3.org/Graphics/SVG/1.1/DTD/svg11.dtd">
<!-- Creator: CorelDRAW 2021.5 -->
<svg xmlns="http://www.w3.org/2000/svg" xml:space="preserve" width="38.8056mm" height="38.8056mm" version="1.1" style="shape-rendering:geometricPrecision; text-rendering:geometricPrecision; image-rendering:optimizeQuality; fill-rule:evenodd; clip-rule:evenodd"
viewBox="0 0 2937.08 2937.08"
 xmlns:xlink="http://www.w3.org/1999/xlink"
 xmlns:xodm="http://www.corel.com/coreldraw/odm/2003">
 <defs>
  <style type="text/css">
   <![CDATA[
    .str0 {stroke:black;stroke-width:53.4;stroke-miterlimit:2.61313}
    .str1 {stroke:black;stroke-width:26.7;stroke-miterlimit:2.61313}
    .fil2 {fill:none}
    .fil4 {fill:white}
    .fil0 {fill:white}
    .fil3 {fill:black;fill-rule:nonzero}
    .fil1 {fill:white;fill-opacity:0.200000}
   ]]>
  </style>
 </defs>
 <g id="Layer_x0020_1">
  <metadata id="CorelCorpID_0Corel-Layer"/>
  <g id="_2400845104784">
   <rect class="fil0 str0" x="26.7" y="26.7" width="2883.67" height="2883.67" rx="192.25" ry="192.25"/>
   <g>
    <g id="G1Gear" data-id="0">
     <g>
      <polygon class="fil1" points="2529.84,1407.24 2533.83,1393.6 2538.31,1388.17 2542.88,1384.18 2552.16,1378.37 2561.48,1373.43 2571.03,1371.19 2590.01,1365.2 2608.81,1357.72 2627.46,1349 2645.96,1339.2 2664.29,1328.37 2682.44,1316.6 2700.39,1303.93 2713.73,1293.86 2690.59,1172.56 2674.5,1168.1 2653.14,1162.91 2631.92,1158.65 2610.91,1155.35 2590.1,1153.03 2569.55,1151.82 2549.3,1151.79 2529.46,1153.2 2519.74,1154.6 2509.23,1153.46 2498.49,1151.46 2492.76,1149.44 2486.61,1146.04 2477.88,1134.83 2444.86,1047.95 2443.95,1033.78 2446.29,1027.13 2449.24,1021.84 2455.97,1013.2 2463.03,1005.37 2471.25,999.97 2487.04,987.85 2502.16,974.4 2516.71,959.82 2530.72,944.3 2544.25,927.85 2557.26,910.57 2569.82,892.54 2578.89,878.5 2515.66,772.45 2499,773.76 2477.16,776.2 2455.78,779.44 2434.9,783.51 2414.54,788.48 2394.81,794.34 2375.78,801.25 2357.63,809.35 2348.99,814 2338.73,816.51 2327.93,818.32 2321.88,818.37 2314.92,817.29 2302.87,809.76 2242.12,739.37 2236.43,726.38 2236.37,719.34 2237.32,713.34 2240.69,702.94 2244.66,693.15 2250.52,685.28 2261.22,668.5 2270.8,650.67 2279.49,632.02 2287.37,612.6 2294.45,592.55 2300.79,571.86 2306.39,550.61 2310.14,534.33 2214.45,456.28 2199.22,463.21 2179.54,472.99 2160.56,483.36 2142.33,494.32 2124.89,505.93 2108.37,518.18 2092.84,531.17 2078.56,545.02 2072.03,552.34 2063.23,558.2 2053.72,563.6 2048.05,565.73 2041.14,567.08 2027.23,564.11 1946.1,518.78 1936.3,508.5 1933.82,501.9 1932.65,495.97 1932.27,485 1932.65,474.47 1935.49,465.05 1939.78,445.64 1942.69,425.6 1944.48,405.08 1945.24,384.16 1945.05,362.88 1943.91,341.29 1941.91,319.41 1939.86,302.81 1823.25,262.2 1811.32,273.92 1796.16,289.85 1781.88,306.08 1768.49,322.62 1756.1,339.47 1744.74,356.67 1734.61,374.2 1725.89,392.07 1722.27,401.19 1716.03,409.7 1708.91,418.04 1704.32,421.98 1698.29,425.6 1684.22,427.58 1592.45,412.7 1579.74,406.41 1575.15,401.07 1572.02,395.88 1567.91,385.72 1564.67,375.68 1564.11,365.88 1561.51,346.15 1557.41,326.32 1552.06,306.46 1545.61,286.53 1538.16,266.6 1529.71,246.68 1520.34,226.8 1512.72,211.93 1389.26,213.66 1382.07,228.72 1373.27,248.87 1365.38,269.01 1358.47,289.15 1352.59,309.23 1347.81,329.27 1344.28,349.2 1342.22,368.99 1341.92,378.78 1338.95,388.91 1335.12,399.17 1332.15,404.46 1327.72,409.92 1315.17,416.59 1223.88,434 1209.76,432.44 1203.63,428.98 1198.9,425.17 1191.58,417.04 1185.11,408.7 1181.22,399.69 1172.01,382.05 1161.38,364.83 1149.58,347.96 1136.7,331.46 1122.85,315.28 1108.13,299.43 1092.53,283.96 1080.26,272.59 964.84,316.45 963.25,333.08 961.87,355 961.36,376.63 961.74,397.9 963.06,418.8 965.44,439.26 968.92,459.19 973.75,478.5 976.83,487.81 977.53,498.34 977.43,509.3 976.43,515.27 974.16,521.94 964.63,532.47 884.79,580.07 870.99,583.42 864.06,582.26 858.33,580.31 848.64,575.18 839.7,569.57 832.98,562.41 818.29,549 802.41,536.44 785.54,524.64 767.8,513.51 749.28,503.04 730,493.21 710.05,484 694.65,477.5 601.18,558.2 605.37,574.37 611.58,595.46 618.49,615.96 626.13,635.8 634.53,654.99 643.73,673.41 653.84,690.93 664.99,707.43 671.06,715.12 675.3,724.79 678.97,735.1 680.08,741.07 680.21,748.09 674.87,761.27 616.11,833.3 604.29,841.18 597.37,842.46 591.33,842.56 580.47,841.05 570.16,838.84 561.39,834.43 543,826.82 523.8,820.48 503.9,815.16 483.44,810.78 462.43,807.28 440.97,804.63 419.07,802.79 402.38,801.96 342.15,909.73 351.6,923.51 364.64,941.19 378.14,958.09 392.13,974.16 406.57,989.3 421.53,1003.45 437.02,1016.47 453.11,1028.16 461.49,1033.32 468.77,1040.96 475.75,1049.38 478.82,1054.59 481.36,1061.18 480.85,1075.35 450.28,1163.16 441.86,1174.61 435.78,1178.17 430.14,1180.35 419.42,1182.62 408.97,1184.08 399.23,1182.95 379.35,1182.09 359.1,1182.68 338.61,1184.49 317.88,1187.38 296.95,1191.27 275.86,1196.13 254.67,1201.88 238.69,1206.79 218.95,1328.69 232.56,1338.39 250.86,1350.57 269.33,1361.82 287.94,1372.11 306.7,1381.4 325.6,1389.6 344.6,1396.55 363.74,1401.99 373.36,1403.99 382.81,1408.67 392.26,1414.23 396.93,1418.06 401.55,1423.38 405.92,1436.88 407.24,1529.84 403.25,1543.48 398.76,1548.9 394.2,1552.88 384.91,1558.7 375.57,1563.62 366.04,1565.89 347.06,1571.88 328.24,1579.36 309.59,1588.08 291.09,1597.88 272.76,1608.71 254.62,1620.45 236.66,1633.14 223.35,1643.22 246.49,1764.5 262.58,1768.98 283.94,1774.14 305.13,1778.4 326.17,1781.72 346.98,1784.02 367.53,1785.26 387.77,1785.29 407.62,1783.88 417.35,1782.45 427.82,1783.62 438.59,1785.61 444.29,1787.61 450.47,1791.01 459.19,1802.22 492.21,1889.13 493.1,1903.31 490.75,1909.94 487.84,1915.24 481.12,1923.88 474.01,1931.7 465.81,1937.11 450.04,1949.2 434.92,1962.68 420.37,1977.23 406.36,1992.78 392.83,2009.22 379.78,2026.48 367.26,2044.54 358.19,2058.55 421.39,2164.63 438.05,2163.31 459.9,2160.88 481.28,2157.62 502.18,2153.54 522.5,2148.59 542.24,2142.73 561.28,2135.82 579.45,2127.73 588.09,2123.06 598.35,2120.57 609.15,2118.73 615.2,2118.68 622.16,2119.79 634.2,2127.32 694.93,2197.68 700.63,2210.69 700.7,2217.74 699.76,2223.71 696.39,2234.13 692.41,2243.91 686.56,2251.79 675.86,2268.59 666.25,2286.4 657.56,2305.06 649.7,2324.44 642.63,2344.53 636.28,2365.22 630.67,2386.46 626.95,2402.74 722.63,2480.78 737.83,2473.87 757.51,2464.09 776.49,2453.72 794.74,2442.76 812.16,2431.15 828.71,2418.86 844.23,2405.88 858.52,2392.06 865.06,2384.71 873.83,2378.85 883.36,2373.45 889.03,2371.35 895.94,2369.99 909.82,2372.97 990.98,2418.3 1000.78,2428.58 1003.24,2435.17 1004.4,2441.12 1004.8,2452.04 1004.43,2462.6 1001.59,2472 997.3,2491.44 994.35,2511.47 992.57,2531.97 991.82,2552.89 992.04,2574.17 993.14,2595.77 995.16,2617.66 997.22,2634.24 1113.83,2674.85 1125.74,2663.13 1140.91,2647.23 1155.19,2631 1168.58,2614.45 1180.98,2597.58 1192.32,2580.4 1202.47,2562.88 1211.17,2544.98 1214.81,2535.85 1221.04,2527.35 1228.15,2519.04 1232.77,2515.09 1238.78,2511.44 1252.85,2509.51 1344.62,2524.36 1357.34,2530.67 1361.93,2536.02 1365.04,2541.2 1369.17,2551.35 1372.41,2561.4 1372.98,2571.2 1375.56,2590.91 1379.67,2610.75 1385.02,2630.62 1391.44,2650.55 1398.92,2670.48 1407.37,2690.4 1416.72,2710.27 1424.33,2725.15 1547.8,2723.42 1555,2708.33 1563.81,2688.22 1571.69,2668.07 1578.6,2647.93 1584.49,2627.84 1589.27,2607.81 1592.81,2587.88 1594.86,2568.1 1595.16,2558.29 1598.1,2548.14 1601.93,2537.88 1604.93,2532.61 1609.33,2527.13 1621.89,2520.49 1713.2,2503.07 1727.32,2504.64 1733.45,2508.1 1738.14,2511.91 1745.49,2520.03 1751.97,2528.38 1755.86,2537.4 1765.06,2555.02 1775.68,2572.25 1787.5,2589.13 1800.38,2605.62 1814.2,2621.8 1828.94,2637.61 1844.55,2653.11 1856.78,2664.48 1972.24,2620.64 1973.82,2604 1975.2,2582.07 1975.72,2560.45 1975.34,2539.18 1973.99,2518.28 1971.64,2497.81 1968.16,2477.88 1963.33,2458.58 1960.22,2449.27 1959.54,2438.71 1959.63,2427.77 1960.62,2421.81 1962.92,2415.14 1972.42,2404.61 2052.29,2357 2066.09,2353.63 2073.03,2354.79 2078.75,2356.76 2088.41,2361.89 2097.35,2367.51 2104.1,2374.66 2118.76,2388.08 2134.67,2400.64 2151.51,2412.44 2169.28,2423.56 2187.8,2434.01 2207.08,2443.84 2227.03,2453.07 2242.42,2459.58 2335.9,2378.88 2331.71,2362.7 2325.5,2341.62 2318.59,2321.13 2310.95,2301.25 2302.55,2282.08 2293.34,2263.67 2283.24,2246.12 2272.09,2229.65 2265.99,2221.96 2261.75,2212.29 2258.1,2201.94 2257,2196.01 2256.86,2188.96 2262.18,2175.81 2320.93,2103.78 2332.76,2095.89 2339.7,2094.6 2345.75,2094.49 2356.57,2096 2366.92,2098.22 2375.69,2102.64 2394.05,2110.23 2413.28,2116.6 2433.18,2121.92 2453.64,2126.3 2474.64,2129.78 2496.11,2132.45 2518.01,2134.26 2534.69,2135.12 2594.93,2027.34 2585.48,2013.57 2572.44,1995.86 2558.94,1978.99 2544.95,1962.92 2530.48,1947.77 2515.55,1933.63 2500.05,1920.59 2483.93,1908.92 2475.59,1903.76 2468.3,1896.12 2461.34,1887.67 2458.26,1882.46 2455.72,1875.9 2456.23,1861.69 2486.79,1773.92 2495.22,1762.47 2501.27,1758.91 2506.94,1756.72 2517.63,1754.42 2528.1,1752.99 2537.85,1754.13 2557.73,1754.99 2577.95,1754.4 2598.47,1752.59 2619.21,1749.7 2640.13,1745.81 2661.21,1740.95 2682.41,1735.18 2698.39,1730.26 2718.13,1608.39 2704.52,1598.69 2686.21,1586.51 2667.75,1575.26 2649.12,1564.94 2630.36,1555.65 2611.48,1547.47 2592.44,1540.53 2573.33,1535.05 2563.72,1533.08 2554.24,1528.41 2544.82,1522.85 2540.14,1519.01 2535.5,1513.69 2531.13,1500.17 "/>
      <polygon id="_1" class="fil2 str1" points="2529.84,1407.24 2533.83,1393.6 2538.31,1388.17 2542.88,1384.18 2552.16,1378.37 2561.48,1373.43 2571.03,1371.19 2590.01,1365.2 2608.81,1357.72 2627.46,1349 2645.96,1339.2 2664.29,1328.37 2682.44,1316.6 2700.39,1303.93 2713.73,1293.86 2690.59,1172.56 2674.5,1168.1 2653.14,1162.91 2631.92,1158.65 2610.91,1155.35 2590.1,1153.03 2569.55,1151.82 2549.3,1151.79 2529.46,1153.2 2519.74,1154.6 2509.23,1153.46 2498.49,1151.46 2492.76,1149.44 2486.61,1146.04 2477.88,1134.83 2444.86,1047.95 2443.95,1033.78 2446.29,1027.13 2449.24,1021.84 2455.97,1013.2 2463.03,1005.37 2471.25,999.97 2487.04,987.85 2502.16,974.4 2516.71,959.82 2530.72,944.3 2544.25,927.85 2557.26,910.57 2569.82,892.54 2578.89,878.5 2515.66,772.45 2499,773.76 2477.16,776.2 2455.78,779.44 2434.9,783.51 2414.54,788.48 2394.81,794.34 2375.78,801.25 2357.63,809.35 2348.99,814 2338.73,816.51 2327.93,818.32 2321.88,818.37 2314.92,817.29 2302.87,809.76 2242.12,739.37 2236.43,726.38 2236.37,719.34 2237.32,713.34 2240.69,702.94 2244.66,693.15 2250.52,685.28 2261.22,668.5 2270.8,650.67 2279.49,632.02 2287.37,612.6 2294.45,592.55 2300.79,571.86 2306.39,550.61 2310.14,534.33 2214.45,456.28 2199.22,463.21 2179.54,472.99 2160.56,483.36 2142.33,494.32 2124.89,505.93 2108.37,518.18 2092.84,531.17 2078.56,545.02 2072.03,552.34 2063.23,558.2 2053.72,563.6 2048.05,565.73 2041.14,567.08 2027.23,564.11 1946.1,518.78 1936.3,508.5 1933.82,501.9 1932.65,495.97 1932.27,485 1932.65,474.47 1935.49,465.05 1939.78,445.64 1942.69,425.6 1944.48,405.08 1945.24,384.16 1945.05,362.88 1943.91,341.29 1941.91,319.41 1939.86,302.81 1823.25,262.2 1811.32,273.92 1796.16,289.85 1781.88,306.08 1768.49,322.62 1756.1,339.47 1744.74,356.67 1734.61,374.2 1725.89,392.07 1722.27,401.19 1716.03,409.7 1708.91,418.04 1704.32,421.98 1698.29,425.6 1684.22,427.58 1592.45,412.7 1579.74,406.41 1575.15,401.07 1572.02,395.88 1567.91,385.72 1564.67,375.68 1564.11,365.88 1561.51,346.15 1557.41,326.32 1552.06,306.46 1545.61,286.53 1538.16,266.6 1529.71,246.68 1520.34,226.8 1512.72,211.93 1389.26,213.66 1382.07,228.72 1373.27,248.87 1365.38,269.01 1358.47,289.15 1352.59,309.23 1347.81,329.27 1344.28,349.2 1342.22,368.99 1341.92,378.78 1338.95,388.91 1335.12,399.17 1332.15,404.46 1327.72,409.92 1315.17,416.59 1223.88,434 1209.76,432.44 1203.63,428.98 1198.9,425.17 1191.58,417.04 1185.11,408.7 1181.22,399.69 1172.01,382.05 1161.38,364.83 1149.58,347.96 1136.7,331.46 1122.85,315.28 1108.13,299.43 1092.53,283.96 1080.26,272.59 964.84,316.45 963.25,333.08 961.87,355 961.36,376.63 961.74,397.9 963.06,418.8 965.44,439.26 968.92,459.19 973.75,478.5 976.83,487.81 977.53,498.34 977.43,509.3 976.43,515.27 974.16,521.94 964.63,532.47 884.79,580.07 870.99,583.42 864.06,582.26 858.33,580.31 848.64,575.18 839.7,569.57 832.98,562.41 818.29,549 802.41,536.44 785.54,524.64 767.8,513.51 749.28,503.04 730,493.21 710.05,484 694.65,477.5 601.18,558.2 605.37,574.37 611.58,595.46 618.49,615.96 626.13,635.8 634.53,654.99 643.73,673.41 653.84,690.93 664.99,707.43 671.06,715.12 675.3,724.79 678.97,735.1 680.08,741.07 680.21,748.09 674.87,761.27 616.11,833.3 604.29,841.18 597.37,842.46 591.33,842.56 580.47,841.05 570.16,838.84 561.39,834.43 543,826.82 523.8,820.48 503.9,815.16 483.44,810.78 462.43,807.28 440.97,804.63 419.07,802.79 402.38,801.96 342.15,909.73 351.6,923.51 364.64,941.19 378.14,958.09 392.13,974.16 406.57,989.3 421.53,1003.45 437.02,1016.47 453.11,1028.16 461.49,1033.32 468.77,1040.96 475.75,1049.38 478.82,1054.59 481.36,1061.18 480.85,1075.35 450.28,1163.16 441.86,1174.61 435.78,1178.17 430.14,1180.35 419.42,1182.62 408.97,1184.08 399.23,1182.95 379.35,1182.09 359.1,1182.68 338.61,1184.49 317.88,1187.38 296.95,1191.27 275.86,1196.13 254.67,1201.88 238.69,1206.79 218.95,1328.69 232.56,1338.39 250.86,1350.57 269.33,1361.82 287.94,1372.11 306.7,1381.4 325.6,1389.6 344.6,1396.55 363.74,1401.99 373.36,1403.99 382.81,1408.67 392.26,1414.23 396.93,1418.06 401.55,1423.38 405.92,1436.88 407.24,1529.84 403.25,1543.48 398.76,1548.9 394.2,1552.88 384.91,1558.7 375.57,1563.62 366.04,1565.89 347.06,1571.88 328.24,1579.36 309.59,1588.08 291.09,1597.88 272.76,1608.71 254.62,1620.45 236.66,1633.14 223.35,1643.22 246.49,1764.5 262.58,1768.98 283.94,1774.14 305.13,1778.4 326.17,1781.72 346.98,1784.02 367.53,1785.26 387.77,1785.29 407.62,1783.88 417.35,1782.45 427.82,1783.62 438.59,1785.61 444.29,1787.61 450.47,1791.01 459.19,1802.22 492.21,1889.13 493.1,1903.31 490.75,1909.94 487.84,1915.24 481.12,1923.88 474.01,1931.7 465.81,1937.11 450.04,1949.2 434.92,1962.68 420.37,1977.23 406.36,1992.78 392.83,2009.22 379.78,2026.48 367.26,2044.54 358.19,2058.55 421.39,2164.63 438.05,2163.31 459.9,2160.88 481.28,2157.62 502.18,2153.54 522.5,2148.59 542.24,2142.73 561.28,2135.82 579.45,2127.73 588.09,2123.06 598.35,2120.57 609.15,2118.73 615.2,2118.68 622.16,2119.79 634.2,2127.32 694.93,2197.68 700.63,2210.69 700.7,2217.74 699.76,2223.71 696.39,2234.13 692.41,2243.91 686.56,2251.79 675.86,2268.59 666.25,2286.4 657.56,2305.06 649.7,2324.44 642.63,2344.53 636.28,2365.22 630.67,2386.46 626.95,2402.74 722.63,2480.78 737.83,2473.87 757.51,2464.09 776.49,2453.72 794.74,2442.76 812.16,2431.15 828.71,2418.86 844.23,2405.88 858.52,2392.06 865.06,2384.71 873.83,2378.85 883.36,2373.45 889.03,2371.35 895.94,2369.99 909.82,2372.97 990.98,2418.3 1000.78,2428.58 1003.24,2435.17 1004.4,2441.12 1004.8,2452.04 1004.43,2462.6 1001.59,2472 997.3,2491.44 994.35,2511.47 992.57,2531.97 991.82,2552.89 992.04,2574.17 993.14,2595.77 995.16,2617.66 997.22,2634.24 1113.83,2674.85 1125.74,2663.13 1140.91,2647.23 1155.19,2631 1168.58,2614.45 1180.98,2597.58 1192.32,2580.4 1202.47,2562.88 1211.17,2544.98 1214.81,2535.85 1221.04,2527.35 1228.15,2519.04 1232.77,2515.09 1238.78,2511.44 1252.85,2509.51 1344.62,2524.36 1357.34,2530.67 1361.93,2536.02 1365.04,2541.2 1369.17,2551.35 1372.41,2561.4 1372.98,2571.2 1375.56,2590.91 1379.67,2610.75 1385.02,2630.62 1391.44,2650.55 1398.92,2670.48 1407.37,2690.4 1416.72,2710.27 1424.33,2725.15 1547.8,2723.42 1555,2708.33 1563.81,2688.22 1571.69,2668.07 1578.6,2647.93 1584.49,2627.84 1589.27,2607.81 1592.81,2587.88 1594.86,2568.1 1595.16,2558.29 1598.1,2548.14 1601.93,2537.88 1604.93,2532.61 1609.33,2527.13 1621.89,2520.49 1713.2,2503.07 1727.32,2504.64 1733.45,2508.1 1738.14,2511.91 1745.49,2520.03 1751.97,2528.38 1755.86,2537.4 1765.06,2555.02 1775.68,2572.25 1787.5,2589.13 1800.38,2605.62 1814.2,2621.8 1828.94,2637.61 1844.55,2653.11 1856.78,2664.48 1972.24,2620.64 1973.82,2604 1975.2,2582.07 1975.72,2560.45 1975.34,2539.18 1973.99,2518.28 1971.64,2497.81 1968.16,2477.88 1963.33,2458.58 1960.22,2449.27 1959.54,2438.71 1959.63,2427.77 1960.62,2421.81 1962.92,2415.14 1972.42,2404.61 2052.29,2357 2066.09,2353.63 2073.03,2354.79 2078.75,2356.76 2088.41,2361.89 2097.35,2367.51 2104.1,2374.66 2118.76,2388.08 2134.67,2400.64 2151.51,2412.44 2169.28,2423.56 2187.8,2434.01 2207.08,2443.84 2227.03,2453.07 2242.42,2459.58 2335.9,2378.88 2331.71,2362.7 2325.5,2341.62 2318.59,2321.13 2310.95,2301.25 2302.55,2282.08 2293.34,2263.67 2283.24,2246.12 2272.09,2229.65 2265.99,2221.96 2261.75,2212.29 2258.1,2201.94 2257,2196.01 2256.86,2188.96 2262.18,2175.81 2320.93,2103.78 2332.76,2095.89 2339.7,2094.6 2345.75,2094.49 2356.57,2096 2366.92,2098.22 2375.69,2102.64 2394.05,2110.23 2413.28,2116.6 2433.18,2121.92 2453.64,2126.3 2474.64,2129.78 2496.11,2132.45 2518.01,2134.26 2534.69,2135.12 2594.93,2027.34 2585.48,2013.57 2572.44,1995.86 2558.94,1978.99 2544.95,1962.92 2530.48,1947.77 2515.55,1933.63 2500.05,1920.59 2483.93,1908.92 2475.59,1903.76 2468.3,1896.12 2461.34,1887.67 2458.26,1882.46 2455.72,1875.9 2456.23,1861.69 2486.79,1773.92 2495.22,1762.47 2501.27,1758.91 2506.94,1756.72 2517.63,1754.42 2528.1,1752.99 2537.85,1754.13 2557.73,1754.99 2577.95,1754.4 2598.47,1752.59 2619.21,1749.7 2640.13,1745.81 2661.21,1740.95 2682.41,1735.18 2698.39,1730.26 2718.13,1608.39 2704.52,1598.69 2686.21,1586.51 2667.75,1575.26 2649.12,1564.94 2630.36,1555.65 2611.48,1547.47 2592.44,1540.53 2573.33,1535.05 2563.72,1533.08 2554.24,1528.41 2544.82,1522.85 2540.14,1519.01 2535.5,1513.69 2531.13,1500.17 "/>
     </g>
     <polygon class="fil0 str1" points="2529.84,1407.24 2533.83,1393.6 2538.31,1388.17 2542.88,1384.18 2552.16,1378.37 2561.48,1373.43 2571.03,1371.19 2590.01,1365.2 2608.81,1357.72 2627.46,1349 2645.96,1339.2 2664.29,1328.37 2682.44,1316.6 2700.39,1303.93 2713.73,1293.86 2690.59,1172.56 2674.5,1168.1 2653.14,1162.91 2631.92,1158.65 2610.91,1155.35 2590.1,1153.03 2569.55,1151.82 2549.3,1151.79 2529.46,1153.2 2519.74,1154.6 2509.23,1153.46 2498.49,1151.46 2492.76,1149.44 2486.61,1146.04 2477.88,1134.83 2444.86,1047.95 2443.95,1033.78 2446.29,1027.13 2449.24,1021.84 2455.97,1013.2 2463.03,1005.37 2471.25,999.97 2487.04,987.85 2502.16,974.4 2516.71,959.82 2530.72,944.3 2544.25,927.85 2557.26,910.57 2569.82,892.54 2578.89,878.5 2515.66,772.45 2499,773.76 2477.16,776.2 2455.78,779.44 2434.9,783.51 2414.54,788.48 2394.81,794.34 2375.78,801.25 2357.63,809.35 2348.99,814 2338.73,816.51 2327.93,818.32 2321.88,818.37 2314.92,817.29 2302.87,809.76 2242.12,739.37 2236.43,726.38 2236.37,719.34 2237.32,713.34 2240.69,702.94 2244.66,693.15 2250.52,685.28 2261.22,668.5 2270.8,650.67 2279.49,632.02 2287.37,612.6 2294.45,592.55 2300.79,571.86 2306.39,550.61 2310.14,534.33 2214.45,456.28 2199.22,463.21 2179.54,472.99 2160.56,483.36 2142.33,494.32 2124.89,505.93 2108.37,518.18 2092.84,531.17 2078.56,545.02 2072.03,552.34 2063.23,558.2 2053.72,563.6 2048.05,565.73 2041.14,567.08 2027.23,564.11 1946.1,518.78 1936.3,508.5 1933.82,501.9 1932.65,495.97 1932.27,485 1932.65,474.47 1935.49,465.05 1939.78,445.64 1942.69,425.6 1944.48,405.08 1945.24,384.16 1945.05,362.88 1943.91,341.29 1941.91,319.41 1939.86,302.81 1823.25,262.2 1811.32,273.92 1796.16,289.85 1781.88,306.08 1768.49,322.62 1756.1,339.47 1744.74,356.67 1734.61,374.2 1725.89,392.07 1722.27,401.19 1716.03,409.7 1708.91,418.04 1704.32,421.98 1698.29,425.6 1684.22,427.58 1592.45,412.7 1579.74,406.41 1575.15,401.07 1572.02,395.88 1567.91,385.72 1564.67,375.68 1564.11,365.88 1561.51,346.15 1557.41,326.32 1552.06,306.46 1545.61,286.53 1538.16,266.6 1529.71,246.68 1520.34,226.8 1512.72,211.93 1389.26,213.66 1382.07,228.72 1373.27,248.87 1365.38,269.01 1358.47,289.15 1352.59,309.23 1347.81,329.27 1344.28,349.2 1342.22,368.99 1341.92,378.78 1338.95,388.91 1335.12,399.17 1332.15,404.46 1327.72,409.92 1315.17,416.59 1223.88,434 1209.76,432.44 1203.63,428.98 1198.9,425.17 1191.58,417.04 1185.11,408.7 1181.22,399.69 1172.01,382.05 1161.38,364.83 1149.58,347.96 1136.7,331.46 1122.85,315.28 1108.13,299.43 1092.53,283.96 1080.26,272.59 964.84,316.45 963.25,333.08 961.87,355 961.36,376.63 961.74,397.9 963.06,418.8 965.44,439.26 968.92,459.19 973.75,478.5 976.83,487.81 977.53,498.34 977.43,509.3 976.43,515.27 974.16,521.94 964.63,532.47 884.79,580.07 870.99,583.42 864.06,582.26 858.33,580.31 848.64,575.18 839.7,569.57 832.98,562.41 818.29,549 802.41,536.44 785.54,524.64 767.8,513.51 749.28,503.04 730,493.21 710.05,484 694.65,477.5 601.18,558.2 605.37,574.37 611.58,595.46 618.49,615.96 626.13,635.8 634.53,654.99 643.73,673.41 653.84,690.93 664.99,707.43 671.06,715.12 675.3,724.79 678.97,735.1 680.08,741.07 680.21,748.09 674.87,761.27 616.11,833.3 604.29,841.18 597.37,842.46 591.33,842.56 580.47,841.05 570.16,838.84 561.39,834.43 543,826.82 523.8,820.48 503.9,815.16 483.44,810.78 462.43,807.28 440.97,804.63 419.07,802.79 402.38,801.96 342.15,909.73 351.6,923.51 364.64,941.19 378.14,958.09 392.13,974.16 406.57,989.3 421.53,1003.45 437.02,1016.47 453.11,1028.16 461.49,1033.32 468.77,1040.96 475.75,1049.38 478.82,1054.59 481.36,1061.18 480.85,1075.35 450.28,1163.16 441.86,1174.61 435.78,1178.17 430.14,1180.35 419.42,1182.62 408.97,1184.08 399.23,1182.95 379.35,1182.09 359.1,1182.68 338.61,1184.49 317.88,1187.38 296.95,1191.27 275.86,1196.13 254.67,1201.88 238.69,1206.79 218.95,1328.69 232.56,1338.39 250.86,1350.57 269.33,1361.82 287.94,1372.11 306.7,1381.4 325.6,1389.6 344.6,1396.55 363.74,1401.99 373.36,1403.99 382.81,1408.67 392.26,1414.23 396.93,1418.06 401.55,1423.38 405.92,1436.88 407.24,1529.84 403.25,1543.48 398.76,1548.9 394.2,1552.88 384.91,1558.7 375.57,1563.62 366.04,1565.89 347.06,1571.88 328.24,1579.36 309.59,1588.08 291.09,1597.88 272.76,1608.71 254.62,1620.45 236.66,1633.14 223.35,1643.22 246.49,1764.5 262.58,1768.98 283.94,1774.14 305.13,1778.4 326.17,1781.72 346.98,1784.02 367.53,1785.26 387.77,1785.29 407.62,1783.88 417.35,1782.45 427.82,1783.62 438.59,1785.61 444.29,1787.61 450.47,1791.01 459.19,1802.22 492.21,1889.13 493.1,1903.31 490.75,1909.94 487.84,1915.24 481.12,1923.88 474.01,1931.7 465.81,1937.11 450.04,1949.2 434.92,1962.68 420.37,1977.23 406.36,1992.78 392.83,2009.22 379.78,2026.48 367.26,2044.54 358.19,2058.55 421.39,2164.63 438.05,2163.31 459.9,2160.88 481.28,2157.62 502.18,2153.54 522.5,2148.59 542.24,2142.73 561.28,2135.82 579.45,2127.73 588.09,2123.06 598.35,2120.57 609.15,2118.73 615.2,2118.68 622.16,2119.79 634.2,2127.32 694.93,2197.68 700.63,2210.69 700.7,2217.74 699.76,2223.71 696.39,2234.13 692.41,2243.91 686.56,2251.79 675.86,2268.59 666.25,2286.4 657.56,2305.06 649.7,2324.44 642.63,2344.53 636.28,2365.22 630.67,2386.46 626.95,2402.74 722.63,2480.78 737.83,2473.87 757.51,2464.09 776.49,2453.72 794.74,2442.76 812.16,2431.15 828.71,2418.86 844.23,2405.88 858.52,2392.06 865.06,2384.71 873.83,2378.85 883.36,2373.45 889.03,2371.35 895.94,2369.99 909.82,2372.97 990.98,2418.3 1000.78,2428.58 1003.24,2435.17 1004.4,2441.12 1004.8,2452.04 1004.43,2462.6 1001.59,2472 997.3,2491.44 994.35,2511.47 992.57,2531.97 991.82,2552.89 992.04,2574.17 993.14,2595.77 995.16,2617.66 997.22,2634.24 1113.83,2674.85 1125.74,2663.13 1140.91,2647.23 1155.19,2631 1168.58,2614.45 1180.98,2597.58 1192.32,2580.4 1202.47,2562.88 1211.17,2544.98 1214.81,2535.85 1221.04,2527.35 1228.15,2519.04 1232.77,2515.09 1238.78,2511.44 1252.85,2509.51 1344.62,2524.36 1357.34,2530.67 1361.93,2536.02 1365.04,2541.2 1369.17,2551.35 1372.41,2561.4 1372.98,2571.2 1375.56,2590.91 1379.67,2610.75 1385.02,2630.62 1391.44,2650.55 1398.92,2670.48 1407.37,2690.4 1416.72,2710.27 1424.33,2725.15 1547.8,2723.42 1555,2708.33 1563.81,2688.22 1571.69,2668.07 1578.6,2647.93 1584.49,2627.84 1589.27,2607.81 1592.81,2587.88 1594.86,2568.1 1595.16,2558.29 1598.1,2548.14 1601.93,2537.88 1604.93,2532.61 1609.33,2527.13 1621.89,2520.49 1713.2,2503.07 1727.32,2504.64 1733.45,2508.1 1738.14,2511.91 1745.49,2520.03 1751.97,2528.38 1755.86,2537.4 1765.06,2555.02 1775.68,2572.25 1787.5,2589.13 1800.38,2605.62 1814.2,2621.8 1828.94,2637.61 1844.55,2653.11 1856.78,2664.48 1972.24,2620.64 1973.82,2604 1975.2,2582.07 1975.72,2560.45 1975.34,2539.18 1973.99,2518.28 1971.64,2497.81 1968.16,2477.88 1963.33,2458.58 1960.22,2449.27 1959.54,2438.71 1959.63,2427.77 1960.62,2421.81 1962.92,2415.14 1972.42,2404.61 2052.29,2357 2066.09,2353.63 2073.03,2354.79 2078.75,2356.76 2088.41,2361.89 2097.35,2367.51 2104.1,2374.66 2118.76,2388.08 2134.67,2400.64 2151.51,2412.44 2169.28,2423.56 2187.8,2434.01 2207.08,2443.84 2227.03,2453.07 2242.42,2459.58 2335.9,2378.88 2331.71,2362.7 2325.5,2341.62 2318.59,2321.13 2310.95,2301.25 2302.55,2282.08 2293.34,2263.67 2283.24,2246.12 2272.09,2229.65 2265.99,2221.96 2261.75,2212.29 2258.1,2201.94 2257,2196.01 2256.86,2188.96 2262.18,2175.81 2320.93,2103.78 2332.76,2095.89 2339.7,2094.6 2345.75,2094.49 2356.57,2096 2366.92,2098.22 2375.69,2102.64 2394.05,2110.23 2413.28,2116.6 2433.18,2121.92 2453.64,2126.3 2474.64,2129.78 2496.11,2132.45 2518.01,2134.26 2534.69,2135.12 2594.93,2027.34 2585.48,2013.57 2572.44,1995.86 2558.94,1978.99 2544.95,1962.92 2530.48,1947.77 2515.55,1933.63 2500.05,1920.59 2483.93,1908.92 2475.59,1903.76 2468.3,1896.12 2461.34,1887.67 2458.26,1882.46 2455.72,1875.9 2456.23,1861.69 2486.79,1773.92 2495.22,1762.47 2501.27,1758.91 2506.94,1756.72 2517.63,1754.42 2528.1,1752.99 2537.85,1754.13 2557.73,1754.99 2577.95,1754.4 2598.47,1752.59 2619.21,1749.7 2640.13,1745.81 2661.21,1740.95 2682.41,1735.18 2698.39,1730.26 2718.13,1608.39 2704.52,1598.69 2686.21,1586.51 2667.75,1575.26 2649.12,1564.94 2630.36,1555.65 2611.48,1547.47 2592.44,1540.53 2573.33,1535.05 2563.72,1533.08 2554.24,1528.41 2544.82,1522.85 2540.14,1519.01 2535.5,1513.69 2531.13,1500.17 "/>
    </g>
    <g id="G1Gear_0" data-id="0">
     <g>
      <polygon class="fil1" points="1902.57,1509.43 2288.59,1435.8 2349.18,1486.08 2345.8,1547.61 2338.14,1608.76 2326.2,1669.25 2310.06,1728.72 2289.8,1786.93 2265.53,1843.58 2237.34,1898.39 2205.4,1951.1 2169.87,2001.45 2130.88,2049.19 2088.66,2094.08 2043.4,2135.91 1966.02,2121.27 1776.7,1776.89 1787.77,1670.94 1827.98,1585.49 "/>
      <polygon id="_1_1" class="fil2 str1" points="1902.57,1509.43 2288.59,1435.8 2349.18,1486.08 2345.8,1547.61 2338.14,1608.76 2326.2,1669.25 2310.06,1728.72 2289.8,1786.93 2265.53,1843.58 2237.34,1898.39 2205.4,1951.1 2169.87,2001.45 2130.88,2049.19 2088.66,2094.08 2043.4,2135.91 1966.02,2121.27 1776.7,1776.89 1787.77,1670.94 1827.98,1585.49 "/>
     </g>
     <polygon class="fil0 str1" points="1902.57,1509.43 2288.59,1435.8 2349.18,1486.08 2345.8,1547.61 2338.14,1608.76 2326.2,1669.25 2310.06,1728.72 2289.8,1786.93 2265.53,1843.58 2237.34,1898.39 2205.4,1951.1 2169.87,2001.45 2130.88,2049.19 2088.66,2094.08 2043.4,2135.91 1966.02,2121.27 1776.7,1776.89 1787.77,1670.94 1827.98,1585.49 "/>
    </g>
    <g id="G1Gear_2" data-id="0">
     <g>
      <polygon class="fil1" points="1563.78,1893.96 1753.08,2238.32 1724,2311.51 1664.41,2327.31 1603.87,2338.89 1542.7,2346.23 1481.13,2349.26 1419.52,2347.99 1358.15,2342.4 1297.29,2332.54 1237.3,2318.45 1178.44,2300.22 1120.98,2277.9 1065.23,2251.6 1011.47,2221.49 1001.48,2143.39 1270.48,1856.92 1374.7,1834.7 1468.36,1846.52 "/>
      <polygon id="_1_3" class="fil2 str1" points="1563.78,1893.96 1753.08,2238.32 1724,2311.51 1664.41,2327.31 1603.87,2338.89 1542.7,2346.23 1481.13,2349.26 1419.52,2347.99 1358.15,2342.4 1297.29,2332.54 1237.3,2318.45 1178.44,2300.22 1120.98,2277.9 1065.23,2251.6 1011.47,2221.49 1001.48,2143.39 1270.48,1856.92 1374.7,1834.7 1468.36,1846.52 "/>
     </g>
     <polygon class="fil0 str1" points="1563.78,1893.96 1753.08,2238.32 1724,2311.51 1664.41,2327.31 1603.87,2338.89 1542.7,2346.23 1481.13,2349.26 1419.52,2347.99 1358.15,2342.4 1297.29,2332.54 1237.3,2318.45 1178.44,2300.22 1120.98,2277.9 1065.23,2251.6 1011.47,2221.49 1001.48,2143.39 1270.48,1856.92 1374.7,1834.7 1468.36,1846.52 "/>
    </g>
    <g id="G1Gear_4" data-id="0">
     <g>
      <polygon class="fil1" points="1093.37,1690.57 824.34,1977.04 745.77,1971.96 712.34,1920.21 682.59,1866.21 656.72,1810.29 634.8,1752.67 616.98,1693.68 603.32,1633.57 593.89,1572.69 588.74,1511.26 587.93,1449.62 591.38,1388.09 599.16,1326.97 611.2,1266.51 682.4,1232.87 1037.96,1400.19 1091.28,1492.45 1109,1585.19 "/>
      <polygon id="_1_5" class="fil2 str1" points="1093.37,1690.57 824.34,1977.04 745.77,1971.96 712.34,1920.21 682.59,1866.21 656.72,1810.29 634.8,1752.67 616.98,1693.68 603.32,1633.57 593.89,1572.69 588.74,1511.26 587.93,1449.62 591.38,1388.09 599.16,1326.97 611.2,1266.51 682.4,1232.87 1037.96,1400.19 1091.28,1492.45 1109,1585.19 "/>
     </g>
     <polygon class="fil0 str1" points="1093.37,1690.57 824.34,1977.04 745.77,1971.96 712.34,1920.21 682.59,1866.21 656.72,1810.29 634.8,1752.67 616.98,1693.68 603.32,1633.57 593.89,1572.69 588.74,1511.26 587.93,1449.62 591.38,1388.09 599.16,1326.97 611.2,1266.51 682.4,1232.87 1037.96,1400.19 1091.28,1492.45 1109,1585.19 "/>
    </g>
    <g id="G1Gear_6" data-id="0">
     <g>
      <polygon class="fil1" points="1141.43,1180.33 785.87,1013.01 766.4,936.71 805.3,888.92 847.45,843.96 892.64,802.06 940.65,763.4 991.25,728.21 1044.2,696.65 1099.19,668.88 1156.03,645 1214.37,625.19 1273.96,609.47 1334.53,597.97 1395.74,590.74 1449.73,648.05 1400.46,1037.93 1329.24,1117.15 1246.48,1162.62 "/>
      <polygon id="_1_7" class="fil2 str1" points="1141.43,1180.33 785.87,1013.01 766.4,936.71 805.3,888.92 847.45,843.96 892.64,802.06 940.65,763.4 991.25,728.21 1044.2,696.65 1099.19,668.88 1156.03,645 1214.37,625.19 1273.96,609.47 1334.53,597.97 1395.74,590.74 1449.73,648.05 1400.46,1037.93 1329.24,1117.15 1246.48,1162.62 "/>
     </g>
     <polygon class="fil0 str1" points="1141.43,1180.33 785.87,1013.01 766.4,936.71 805.3,888.92 847.45,843.96 892.64,802.06 940.65,763.4 991.25,728.21 1044.2,696.65 1099.19,668.88 1156.03,645 1214.37,625.19 1273.96,609.47 1334.53,597.97 1395.74,590.74 1449.73,648.05 1400.46,1037.93 1329.24,1117.15 1246.48,1162.62 "/>
    </g>
    <g id="G1Gear_8" data-id="0">
     <g>
      <polygon class="fil1" points="1641.54,1068.39 1690.82,678.51 1757.34,636.42 1814.82,658.64 1870.63,684.83 1924.45,714.88 1976.01,748.6 2025.13,785.87 2071.51,826.44 2114.93,870.18 2155.19,916.84 2192.09,966.22 2225.44,1018.03 2255.08,1072.06 2280.89,1128.03 2243.04,1197.09 1857.05,1270.72 1759.69,1227.47 1690.84,1162.83 "/>
      <polygon id="_1_9" class="fil2 str1" points="1641.54,1068.39 1690.82,678.51 1757.34,636.42 1814.82,658.64 1870.63,684.83 1924.45,714.88 1976.01,748.6 2025.13,785.87 2071.51,826.44 2114.93,870.18 2155.19,916.84 2192.09,966.22 2225.44,1018.03 2255.08,1072.06 2280.89,1128.03 2243.04,1197.09 1857.05,1270.72 1759.69,1227.47 1690.84,1162.83 "/>
     </g>
     <polygon class="fil0 str1" points="1641.54,1068.39 1690.82,678.51 1757.34,636.42 1814.82,658.64 1870.63,684.83 1924.45,714.88 1976.01,748.6 2025.13,785.87 2071.51,826.44 2114.93,870.18 2155.19,916.84 2192.09,966.22 2225.44,1018.03 2255.08,1072.06 2280.89,1128.03 2243.04,1197.09 1857.05,1270.72 1759.69,1227.47 1690.84,1162.83 "/>
    </g>
    <circle id="G1_sh" class="fil2 str1" cx="1468.53" cy="1468.53" r="135"/>
   </g>
   <path class="fil3" d="M1094.63 1699.23l-240.95 0 -34.6 113.42 -217.08 0 259.05 -688.24 232.78 0 257.93 688.24 -222.69 0 -34.44 -113.42zm-45.02 -148.99l-75.13 -247.35 -75.46 247.35 150.59 0z"/>
   <path id="_1_10" class="fil3" d="M1417.92 1124.42l353.73 0c77.06,0 134.73,18.26 173.18,54.95 38.29,36.69 57.51,88.92 57.51,156.68 0,69.53 -20.99,124 -62.8,163.09 -41.82,39.25 -105.73,58.79 -191.61,58.79l-116.63 0 0 254.72 -213.39 0 0 -688.24zm213.39 294.13l52.39 0c41.33,0 70.33,-7.21 86.99,-21.46 16.66,-14.26 24.99,-32.52 24.99,-54.79 0,-21.63 -7.21,-39.89 -21.79,-54.96 -14.42,-15.05 -41.65,-22.58 -81.7,-22.58l-60.88 0 0 153.8z"/>
   <polygon id="_2" class="fil3" points="2121.69,1124.42 2335.09,1124.42 2335.09,1812.66 2121.69,1812.66 "/>
   <g>
    <path id="_3" class="fil4" d="M1065.1 1739.29l-181.93 0 -25.92 84.95c-5.22,17.23 -21.06,28.32 -38.18,28.32l0 0.15 -217.08 0c-22.12,0 -40.05,-17.94 -40.05,-40.05 0,-5.97 1.31,-11.63 3.66,-16.73l258.05 -685.59c6.02,-16.01 21.24,-25.88 37.4,-25.88l0 -0.09 232.78 0c18.41,0 33.92,12.43 38.6,29.34l256.72 685.02c7.69,20.65 -2.82,43.63 -23.47,51.32 -4.59,1.71 -9.29,2.52 -13.93,2.51l0 0.14 -222.69 0c-19.34,0 -35.49,-13.72 -39.24,-31.96l-24.73 -81.47zm29.53 -40.05l-240.95 0 -34.6 113.42 -217.08 0 259.05 -688.24 232.78 0 257.93 688.24 -222.69 0 -34.44 -113.42zm-45.02 -148.99l-75.13 -247.35 -75.46 247.35 150.59 0zm-53.86 -40.05l-21.36 -70.31 -21.45 70.31 42.81 0z"/>
   </g>
   <g>
    <path id="_4" class="fil4" d="M1417.92 1084.37l353.73 0c42.61,0 80.32,5.19 113.11,15.59 34.66,10.98 63.86,27.81 87.6,50.47 0.05,0.05 0.11,0.11 0.16,0.15 23.61,22.62 41.29,49.89 52.99,81.75 11.25,30.64 16.89,65.23 16.89,103.72 0,39.36 -6.19,75.13 -18.53,107.18 -12.66,32.89 -31.69,61.23 -57.01,84.94l0.08 0.08c-25.42,23.86 -57.08,41.59 -94.93,53.19 -0.66,0.2 -1.32,0.39 -1.98,0.55 -35.58,10.66 -76.29,16 -122.08,16l-76.57 0 0 214.67c0,22.12 -17.94,40.05 -40.05,40.05l-213.39 0c-22.12,0 -40.05,-17.94 -40.05,-40.05l0 -688.24c0,-22.12 17.94,-40.05 40.05,-40.05zm0 40.05l353.73 0c77.06,0 134.73,18.26 173.18,54.95 38.29,36.69 57.51,88.92 57.51,156.68 0,69.53 -20.99,124 -62.8,163.09 -41.82,39.25 -105.73,58.79 -191.61,58.79l-116.63 0 0 254.72 -213.39 0 0 -688.24zm213.39 294.13l52.39 0c41.33,0 70.33,-7.21 86.99,-21.46 16.66,-14.26 24.99,-32.52 24.99,-54.79 0,-21.63 -7.21,-39.89 -21.79,-54.96 -14.42,-15.05 -41.65,-22.58 -81.7,-22.58l-60.88 0 0 153.8zm40.05 -40.05l12.34 0c17.67,0 32.08,-1.39 43.2,-4.14 8.35,-2.07 14.29,-4.62 17.81,-7.62 3.9,-3.33 6.71,-6.89 8.42,-10.63 1.66,-3.64 2.5,-8.26 2.5,-13.81 0,-5.75 -0.87,-10.84 -2.61,-15.24 -1.72,-4.34 -4.31,-8.3 -7.76,-11.87 -0.05,-0.05 -0.11,-0.11 -0.15,-0.17l-0.01 0.01c-2.19,-2.29 -6.56,-4.34 -13.09,-6.15 -9.83,-2.71 -23.11,-4.08 -39.82,-4.08l-20.82 0 0 73.69z"/>
   </g>
   <g>
    <path id="_5" class="fil4" d="M2121.69 1084.37l213.39 0c22.12,0 40.05,17.94 40.05,40.05l0 688.24c0,22.12 -17.94,40.05 -40.05,40.05l-213.39 0c-22.12,0 -40.05,-17.94 -40.05,-40.05l0 -688.24c0,-22.12 17.94,-40.05 40.05,-40.05zm0 40.05l213.39 0 0 688.24 -213.39 0 0 -688.24z"/>
   </g>
  </g>
 </g>
</svg>
