<?xml version="1.0" encoding="UTF-8"?>
<!DOCTYPE svg PUBLIC "-//W3C//DTD SVG 1.1//EN" "http://www.w3.org/Graphics/SVG/1.1/DTD/svg11.dtd">
<!-- Creator: CorelDRAW 2021.5 -->
<svg xmlns="http://www.w3.org/2000/svg" xml:space="preserve" width="33.4032mm" height="33.5613mm" version="1.1" style="shape-rendering:geometricPrecision; text-rendering:geometricPrecision; image-rendering:optimizeQuality; fill-rule:evenodd; clip-rule:evenodd"
viewBox="0 0 1495.49 1502.57"
 xmlns:xlink="http://www.w3.org/1999/xlink"
 xmlns:xodm="http://www.corel.com/coreldraw/odm/2003">
 <defs>
  <style type="text/css">
   <![CDATA[
    .str0 {stroke:black;stroke-width:15.8;stroke-miterlimit:2.61313}
    .fil1 {fill:none}
    .fil2 {fill:white}
    .fil0 {fill:white;fill-opacity:0.200000}
   ]]>
  </style>
 </defs>
 <g id="Layer_x0020_1">
  <metadata id="CorelCorpID_0Corel-Layer"/>
  <g id="_2401533379536">
   <g id="G1Gear" data-id="0">
    <g>
     <polygon class="fil0" points="1375.53,715.03 1377.9,706.96 1380.55,703.75 1383.25,701.39 1388.74,697.95 1394.25,695.03 1399.9,693.7 1411.13,690.16 1422.25,685.73 1433.28,680.58 1444.22,674.78 1455.07,668.37 1465.8,661.41 1476.42,653.92 1484.31,647.96 1470.62,576.21 1461.1,573.57 1448.47,570.5 1435.92,567.98 1423.49,566.03 1411.18,564.65 1399.02,563.94 1387.05,563.92 1375.31,564.75 1369.56,565.58 1363.35,564.91 1356.99,563.73 1353.6,562.53 1349.96,560.52 1344.8,553.89 1325.27,502.49 1324.73,494.11 1326.11,490.18 1327.86,487.05 1331.84,481.94 1336.02,477.31 1340.87,474.11 1350.22,466.95 1359.16,458.99 1367.77,450.37 1376.06,441.19 1384.06,431.46 1391.76,421.24 1399.18,410.57 1404.55,402.26 1367.15,339.53 1357.29,340.31 1344.37,341.75 1331.72,343.67 1319.38,346.07 1307.33,349.02 1295.66,352.48 1284.4,356.57 1273.66,361.36 1268.56,364.11 1262.49,365.59 1256.1,366.66 1252.52,366.7 1248.4,366.06 1241.28,361.6 1205.34,319.96 1201.97,312.28 1201.94,308.11 1202.5,304.57 1204.49,298.42 1206.84,292.62 1210.31,287.97 1216.64,278.04 1222.3,267.5 1227.45,256.46 1232.11,244.98 1236.29,233.11 1240.05,220.88 1243.35,208.31 1245.58,198.68 1188.97,152.51 1179.96,156.61 1168.32,162.39 1157.09,168.53 1146.31,175.01 1135.99,181.88 1126.22,189.13 1117.04,196.81 1108.59,205 1104.73,209.33 1099.52,212.8 1093.9,215.99 1090.54,217.25 1086.46,218.05 1078.23,216.29 1030.24,189.48 1024.44,183.39 1022.97,179.5 1022.28,175.99 1022.06,169.5 1022.28,163.27 1023.96,157.7 1026.5,146.21 1028.22,134.36 1029.28,122.22 1029.73,109.85 1029.61,97.26 1028.94,84.49 1027.76,71.55 1026.55,61.73 957.56,37.71 950.51,44.64 941.55,54.06 933.1,63.66 925.18,73.45 917.85,83.41 911.12,93.59 905.13,103.95 899.98,114.53 897.84,119.92 894.15,124.96 889.93,129.89 887.22,132.22 883.65,134.36 875.33,135.53 821.04,126.73 813.52,123.01 810.81,119.85 808.96,116.78 806.53,110.77 804.61,104.83 804.28,99.03 802.74,87.36 800.32,75.64 797.15,63.88 793.34,52.1 788.93,40.31 783.93,28.52 778.39,16.77 773.88,7.97 700.85,8.99 696.6,17.9 691.39,29.82 686.73,41.73 682.64,53.64 679.16,65.53 676.33,77.38 674.24,89.17 673.02,100.87 672.85,106.67 671.09,112.66 668.82,118.73 667.07,121.86 664.45,125.09 657.02,129.03 603.02,139.33 594.67,138.4 591.05,136.36 588.25,134.11 583.92,129.3 580.09,124.36 577.79,119.03 572.34,108.6 566.05,98.41 559.07,88.43 551.45,78.67 543.26,69.1 534.56,59.73 525.32,50.58 518.07,43.85 449.8,69.79 448.85,79.63 448.04,92.6 447.74,105.39 447.96,117.98 448.74,130.34 450.15,142.44 452.21,154.23 455.06,165.65 456.89,171.16 457.3,177.39 457.24,183.87 456.65,187.4 455.31,191.35 449.67,197.58 402.44,225.73 394.28,227.71 390.18,227.03 386.79,225.88 381.06,222.84 375.77,219.52 371.8,215.29 363.11,207.35 353.71,199.92 343.73,192.94 333.24,186.36 322.28,180.17 310.88,174.36 299.08,168.91 289.97,165.06 234.68,212.8 237.16,222.36 240.83,234.84 244.92,246.96 249.44,258.7 254.41,270.05 259.85,280.95 265.83,291.31 272.42,301.07 276.02,305.62 278.52,311.34 280.7,317.44 281.35,320.97 281.43,325.12 278.27,332.92 243.51,375.52 236.52,380.19 232.43,380.94 228.85,381 222.43,380.11 216.33,378.8 211.14,376.2 200.26,371.69 188.91,367.94 177.14,364.79 165.03,362.21 152.61,360.13 139.91,358.57 126.96,357.48 117.08,356.99 81.46,420.74 87.04,428.89 94.76,439.35 102.74,449.34 111.02,458.85 119.56,467.81 128.41,476.17 137.58,483.87 147.09,490.79 152.05,493.84 156.36,498.36 160.48,503.35 162.3,506.43 163.8,510.32 163.5,518.71 145.42,570.65 140.44,577.42 136.84,579.52 133.5,580.82 127.16,582.16 120.98,583.02 115.22,582.35 103.46,581.84 91.48,582.19 79.36,583.26 67.1,584.97 54.72,587.27 42.25,590.15 29.71,593.55 20.25,596.46 8.58,668.56 16.63,674.3 27.46,681.5 38.38,688.16 49.39,694.25 60.49,699.74 71.66,704.6 82.91,708.7 94.23,711.92 99.92,713.11 105.51,715.87 111.1,719.16 113.86,721.43 116.59,724.58 119.18,732.56 119.96,787.55 117.6,795.61 114.94,798.82 112.25,801.18 106.75,804.62 101.23,807.53 95.59,808.87 84.36,812.42 73.23,816.84 62.2,822 51.25,827.8 40.41,834.2 29.68,841.15 19.05,848.65 11.18,854.61 24.87,926.35 34.39,929 47.02,932.06 59.56,934.58 72,936.54 84.31,937.9 96.47,938.64 108.44,938.65 120.18,937.82 125.94,936.97 132.13,937.66 138.5,938.85 141.87,940.03 145.53,942.04 150.69,948.67 170.22,1000.08 170.75,1008.46 169.36,1012.39 167.64,1015.52 163.66,1020.63 159.46,1025.26 154.6,1028.46 145.28,1035.61 136.33,1043.58 127.72,1052.19 119.44,1061.39 111.43,1071.12 103.72,1081.32 96.31,1092.01 90.94,1100.29 128.33,1163.04 138.19,1162.27 151.11,1160.83 163.75,1158.89 176.12,1156.48 188.14,1153.56 199.82,1150.09 211.08,1146 221.83,1141.21 226.93,1138.45 233.01,1136.98 239.39,1135.9 242.97,1135.86 247.09,1136.52 254.21,1140.97 290.13,1182.6 293.5,1190.29 293.55,1194.46 292.99,1197.99 291,1204.16 288.65,1209.94 285.18,1214.6 278.86,1224.54 273.17,1235.08 268.03,1246.11 263.38,1257.58 259.2,1269.46 255.44,1281.7 252.12,1294.26 249.92,1303.89 306.52,1350.05 315.51,1345.97 327.15,1340.18 338.38,1334.05 349.18,1327.56 359.48,1320.7 369.27,1313.43 378.45,1305.75 386.9,1297.57 390.77,1293.22 395.96,1289.76 401.59,1286.57 404.95,1285.32 409.04,1284.52 417.25,1286.28 465.25,1313.09 471.05,1319.18 472.51,1323.08 473.19,1326.59 473.43,1333.06 473.21,1339.3 471.53,1344.86 468.99,1356.36 467.25,1368.21 466.2,1380.34 465.75,1392.71 465.88,1405.3 466.54,1418.07 467.73,1431.03 468.95,1440.83 537.93,1464.85 544.97,1457.92 553.95,1448.51 562.39,1438.91 570.31,1429.13 577.65,1419.14 584.35,1408.98 590.36,1398.62 595.5,1388.03 597.66,1382.63 601.34,1377.6 605.55,1372.68 608.28,1370.35 611.84,1368.19 620.16,1367.05 674.45,1375.83 681.97,1379.57 684.69,1382.73 686.52,1385.8 688.97,1391.8 690.88,1397.74 691.22,1403.54 692.75,1415.2 695.18,1426.94 698.34,1438.69 702.14,1450.48 706.57,1462.27 711.56,1474.05 717.09,1485.81 721.59,1494.61 794.63,1493.58 798.89,1484.66 804.1,1472.76 808.76,1460.84 812.85,1448.93 816.33,1437.05 819.16,1425.2 821.25,1413.41 822.47,1401.7 822.64,1395.91 824.38,1389.9 826.65,1383.83 828.42,1380.72 831.03,1377.47 838.46,1373.54 892.47,1363.24 900.82,1364.17 904.45,1366.21 907.22,1368.47 911.57,1373.28 915.4,1378.21 917.7,1383.55 923.15,1393.97 929.43,1404.16 936.42,1414.15 944.04,1423.9 952.21,1433.47 960.94,1442.83 970.17,1452 977.4,1458.72 1045.7,1432.78 1046.64,1422.94 1047.45,1409.97 1047.76,1397.18 1047.53,1384.6 1046.73,1372.24 1045.34,1360.13 1043.28,1348.34 1040.43,1336.93 1038.59,1331.41 1038.19,1325.17 1038.24,1318.7 1038.83,1315.17 1040.18,1311.23 1045.81,1305 1093.05,1276.84 1101.21,1274.84 1105.32,1275.53 1108.7,1276.7 1114.42,1279.73 1119.71,1283.05 1123.7,1287.28 1132.37,1295.22 1141.78,1302.65 1151.74,1309.63 1162.25,1316.21 1173.21,1322.39 1184.61,1328.2 1196.41,1333.67 1205.52,1337.52 1260.81,1289.78 1258.34,1280.21 1254.66,1267.74 1250.57,1255.62 1246.05,1243.86 1241.08,1232.52 1235.64,1221.63 1229.66,1211.24 1223.07,1201.51 1219.46,1196.95 1216.95,1191.24 1214.8,1185.12 1214.14,1181.61 1214.06,1177.44 1217.21,1169.66 1251.96,1127.05 1258.96,1122.38 1263.06,1121.62 1266.64,1121.56 1273.04,1122.45 1279.16,1123.76 1284.35,1126.38 1295.21,1130.86 1306.58,1134.63 1318.35,1137.78 1330.46,1140.37 1342.88,1142.43 1355.58,1144.01 1368.53,1145.08 1378.41,1145.59 1414.03,1081.83 1408.45,1073.69 1400.73,1063.21 1392.75,1053.23 1384.47,1043.73 1375.91,1034.77 1367.08,1026.4 1357.91,1018.69 1348.38,1011.78 1343.44,1008.73 1339.13,1004.22 1335.01,999.21 1333.19,996.13 1331.69,992.25 1331.99,983.85 1350.07,931.93 1355.05,925.15 1358.64,923.05 1361.99,921.76 1368.31,920.4 1374.51,919.55 1380.27,920.22 1392.03,920.73 1403.99,920.38 1416.13,919.31 1428.4,917.6 1440.77,915.3 1453.25,912.43 1465.78,909.01 1475.24,906.1 1486.91,834.01 1478.86,828.27 1468.03,821.07 1457.11,814.41 1446.09,808.31 1434.99,802.82 1423.83,797.98 1412.57,793.87 1401.26,790.63 1395.58,789.47 1389.97,786.71 1384.4,783.41 1381.63,781.14 1378.89,778 1376.3,770 "/>
     <polygon id="_1" class="fil1 str0" points="1375.53,715.03 1377.9,706.96 1380.55,703.75 1383.25,701.39 1388.74,697.95 1394.25,695.03 1399.9,693.7 1411.13,690.16 1422.25,685.73 1433.28,680.58 1444.22,674.78 1455.07,668.37 1465.8,661.41 1476.42,653.92 1484.31,647.96 1470.62,576.21 1461.1,573.57 1448.47,570.5 1435.92,567.98 1423.49,566.03 1411.18,564.65 1399.02,563.94 1387.05,563.92 1375.31,564.75 1369.56,565.58 1363.35,564.91 1356.99,563.73 1353.6,562.53 1349.96,560.52 1344.8,553.89 1325.27,502.49 1324.73,494.11 1326.11,490.18 1327.86,487.05 1331.84,481.94 1336.02,477.31 1340.87,474.11 1350.22,466.95 1359.16,458.99 1367.77,450.37 1376.06,441.19 1384.06,431.46 1391.76,421.24 1399.18,410.57 1404.55,402.26 1367.15,339.53 1357.29,340.31 1344.37,341.75 1331.72,343.67 1319.38,346.07 1307.33,349.02 1295.66,352.48 1284.4,356.57 1273.66,361.36 1268.56,364.11 1262.49,365.59 1256.1,366.66 1252.52,366.7 1248.4,366.06 1241.28,361.6 1205.34,319.96 1201.97,312.28 1201.94,308.11 1202.5,304.57 1204.49,298.42 1206.84,292.62 1210.31,287.97 1216.64,278.04 1222.3,267.5 1227.45,256.46 1232.11,244.98 1236.29,233.11 1240.05,220.88 1243.35,208.31 1245.58,198.68 1188.97,152.51 1179.96,156.61 1168.32,162.39 1157.09,168.53 1146.31,175.01 1135.99,181.88 1126.22,189.13 1117.04,196.81 1108.59,205 1104.73,209.33 1099.52,212.8 1093.9,215.99 1090.54,217.25 1086.46,218.05 1078.23,216.29 1030.24,189.48 1024.44,183.39 1022.97,179.5 1022.28,175.99 1022.06,169.5 1022.28,163.27 1023.96,157.7 1026.5,146.21 1028.22,134.36 1029.28,122.22 1029.73,109.85 1029.61,97.26 1028.94,84.49 1027.76,71.55 1026.55,61.73 957.56,37.71 950.51,44.64 941.55,54.06 933.1,63.66 925.18,73.45 917.85,83.41 911.12,93.59 905.13,103.95 899.98,114.53 897.84,119.92 894.15,124.96 889.93,129.89 887.22,132.22 883.65,134.36 875.33,135.53 821.04,126.73 813.52,123.01 810.81,119.85 808.96,116.78 806.53,110.77 804.61,104.83 804.28,99.03 802.74,87.36 800.32,75.64 797.15,63.88 793.34,52.1 788.93,40.31 783.93,28.52 778.39,16.77 773.88,7.97 700.85,8.99 696.6,17.9 691.39,29.82 686.73,41.73 682.64,53.64 679.16,65.53 676.33,77.38 674.24,89.17 673.02,100.87 672.85,106.67 671.09,112.66 668.82,118.73 667.07,121.86 664.45,125.09 657.02,129.03 603.02,139.33 594.67,138.4 591.05,136.36 588.25,134.11 583.92,129.3 580.09,124.36 577.79,119.03 572.34,108.6 566.05,98.41 559.07,88.43 551.45,78.67 543.26,69.1 534.56,59.73 525.32,50.58 518.07,43.85 449.8,69.79 448.85,79.63 448.04,92.6 447.74,105.39 447.96,117.98 448.74,130.34 450.15,142.44 452.21,154.23 455.06,165.65 456.89,171.16 457.3,177.39 457.24,183.87 456.65,187.4 455.31,191.35 449.67,197.58 402.44,225.73 394.28,227.71 390.18,227.03 386.79,225.88 381.06,222.84 375.77,219.52 371.8,215.29 363.11,207.35 353.71,199.92 343.73,192.94 333.24,186.36 322.28,180.17 310.88,174.36 299.08,168.91 289.97,165.06 234.68,212.8 237.16,222.36 240.83,234.84 244.92,246.96 249.44,258.7 254.41,270.05 259.85,280.95 265.83,291.31 272.42,301.07 276.02,305.62 278.52,311.34 280.7,317.44 281.35,320.97 281.43,325.12 278.27,332.92 243.51,375.52 236.52,380.19 232.43,380.94 228.85,381 222.43,380.11 216.33,378.8 211.14,376.2 200.26,371.69 188.91,367.94 177.14,364.79 165.03,362.21 152.61,360.13 139.91,358.57 126.96,357.48 117.08,356.99 81.46,420.74 87.04,428.89 94.76,439.35 102.74,449.34 111.02,458.85 119.56,467.81 128.41,476.17 137.58,483.87 147.09,490.79 152.05,493.84 156.36,498.36 160.48,503.35 162.3,506.43 163.8,510.32 163.5,518.71 145.42,570.65 140.44,577.42 136.84,579.52 133.5,580.82 127.16,582.16 120.98,583.02 115.22,582.35 103.46,581.84 91.48,582.19 79.36,583.26 67.1,584.97 54.72,587.27 42.25,590.15 29.71,593.55 20.25,596.46 8.58,668.56 16.63,674.3 27.46,681.5 38.38,688.16 49.39,694.25 60.49,699.74 71.66,704.6 82.91,708.7 94.23,711.92 99.92,713.11 105.51,715.87 111.1,719.16 113.86,721.43 116.59,724.58 119.18,732.56 119.96,787.55 117.6,795.61 114.94,798.82 112.25,801.18 106.75,804.62 101.23,807.53 95.59,808.87 84.36,812.42 73.23,816.84 62.2,822 51.25,827.8 40.41,834.2 29.68,841.15 19.05,848.65 11.18,854.61 24.87,926.35 34.39,929 47.02,932.06 59.56,934.58 72,936.54 84.31,937.9 96.47,938.64 108.44,938.65 120.18,937.82 125.94,936.97 132.13,937.66 138.5,938.85 141.87,940.03 145.53,942.04 150.69,948.67 170.22,1000.08 170.75,1008.46 169.36,1012.39 167.64,1015.52 163.66,1020.63 159.46,1025.26 154.6,1028.46 145.28,1035.61 136.33,1043.58 127.72,1052.19 119.44,1061.39 111.43,1071.12 103.72,1081.32 96.31,1092.01 90.94,1100.29 128.33,1163.04 138.19,1162.27 151.11,1160.83 163.75,1158.89 176.12,1156.48 188.14,1153.56 199.82,1150.09 211.08,1146 221.83,1141.21 226.93,1138.45 233.01,1136.98 239.39,1135.9 242.97,1135.86 247.09,1136.52 254.21,1140.97 290.13,1182.6 293.5,1190.29 293.55,1194.46 292.99,1197.99 291,1204.16 288.65,1209.94 285.18,1214.6 278.86,1224.54 273.17,1235.08 268.03,1246.11 263.38,1257.58 259.2,1269.46 255.44,1281.7 252.12,1294.26 249.92,1303.89 306.52,1350.05 315.51,1345.97 327.15,1340.18 338.38,1334.05 349.18,1327.56 359.48,1320.7 369.27,1313.43 378.45,1305.75 386.9,1297.57 390.77,1293.22 395.96,1289.76 401.59,1286.57 404.95,1285.32 409.04,1284.52 417.25,1286.28 465.25,1313.09 471.05,1319.18 472.51,1323.08 473.19,1326.59 473.43,1333.06 473.21,1339.3 471.53,1344.86 468.99,1356.36 467.25,1368.21 466.2,1380.34 465.75,1392.71 465.88,1405.3 466.54,1418.07 467.73,1431.03 468.95,1440.83 537.93,1464.85 544.97,1457.92 553.95,1448.51 562.39,1438.91 570.31,1429.13 577.65,1419.14 584.35,1408.98 590.36,1398.62 595.5,1388.03 597.66,1382.63 601.34,1377.6 605.55,1372.68 608.28,1370.35 611.84,1368.19 620.16,1367.05 674.45,1375.83 681.97,1379.57 684.69,1382.73 686.52,1385.8 688.97,1391.8 690.88,1397.74 691.22,1403.54 692.75,1415.2 695.18,1426.94 698.34,1438.69 702.14,1450.48 706.57,1462.27 711.56,1474.05 717.09,1485.81 721.59,1494.61 794.63,1493.58 798.89,1484.66 804.1,1472.76 808.76,1460.84 812.85,1448.93 816.33,1437.05 819.16,1425.2 821.25,1413.41 822.47,1401.7 822.64,1395.91 824.38,1389.9 826.65,1383.83 828.42,1380.72 831.03,1377.47 838.46,1373.54 892.47,1363.24 900.82,1364.17 904.45,1366.21 907.22,1368.47 911.57,1373.28 915.4,1378.21 917.7,1383.55 923.15,1393.97 929.43,1404.16 936.42,1414.15 944.04,1423.9 952.21,1433.47 960.94,1442.83 970.17,1452 977.4,1458.72 1045.7,1432.78 1046.64,1422.94 1047.45,1409.97 1047.76,1397.18 1047.53,1384.6 1046.73,1372.24 1045.34,1360.13 1043.28,1348.34 1040.43,1336.93 1038.59,1331.41 1038.19,1325.17 1038.24,1318.7 1038.83,1315.17 1040.18,1311.23 1045.81,1305 1093.05,1276.84 1101.21,1274.84 1105.32,1275.53 1108.7,1276.7 1114.42,1279.73 1119.71,1283.05 1123.7,1287.28 1132.37,1295.22 1141.78,1302.65 1151.74,1309.63 1162.25,1316.21 1173.21,1322.39 1184.61,1328.2 1196.41,1333.67 1205.52,1337.52 1260.81,1289.78 1258.34,1280.21 1254.66,1267.74 1250.57,1255.62 1246.05,1243.86 1241.08,1232.52 1235.64,1221.63 1229.66,1211.24 1223.07,1201.51 1219.46,1196.95 1216.95,1191.24 1214.8,1185.12 1214.14,1181.61 1214.06,1177.44 1217.21,1169.66 1251.96,1127.05 1258.96,1122.38 1263.06,1121.62 1266.64,1121.56 1273.04,1122.45 1279.16,1123.76 1284.35,1126.38 1295.21,1130.86 1306.58,1134.63 1318.35,1137.78 1330.46,1140.37 1342.88,1142.43 1355.58,1144.01 1368.53,1145.08 1378.41,1145.59 1414.03,1081.83 1408.45,1073.69 1400.73,1063.21 1392.75,1053.23 1384.47,1043.73 1375.91,1034.77 1367.08,1026.4 1357.91,1018.69 1348.38,1011.78 1343.44,1008.73 1339.13,1004.22 1335.01,999.21 1333.19,996.13 1331.69,992.25 1331.99,983.85 1350.07,931.93 1355.05,925.15 1358.64,923.05 1361.99,921.76 1368.31,920.4 1374.51,919.55 1380.27,920.22 1392.03,920.73 1403.99,920.38 1416.13,919.31 1428.4,917.6 1440.77,915.3 1453.25,912.43 1465.78,909.01 1475.24,906.1 1486.91,834.01 1478.86,828.27 1468.03,821.07 1457.11,814.41 1446.09,808.31 1434.99,802.82 1423.83,797.98 1412.57,793.87 1401.26,790.63 1395.58,789.47 1389.97,786.71 1384.4,783.41 1381.63,781.14 1378.89,778 1376.3,770 "/>
    </g>
    <polygon class="fil2 str0" points="1375.53,715.03 1377.9,706.96 1380.55,703.75 1383.25,701.39 1388.74,697.95 1394.25,695.03 1399.9,693.7 1411.13,690.16 1422.25,685.73 1433.28,680.58 1444.22,674.78 1455.07,668.37 1465.8,661.41 1476.42,653.92 1484.31,647.96 1470.62,576.21 1461.1,573.57 1448.47,570.5 1435.92,567.98 1423.49,566.03 1411.18,564.65 1399.02,563.94 1387.05,563.92 1375.31,564.75 1369.56,565.58 1363.35,564.91 1356.99,563.73 1353.6,562.53 1349.96,560.52 1344.8,553.89 1325.27,502.49 1324.73,494.11 1326.11,490.18 1327.86,487.05 1331.84,481.94 1336.02,477.31 1340.87,474.11 1350.22,466.95 1359.16,458.99 1367.77,450.37 1376.06,441.19 1384.06,431.46 1391.76,421.24 1399.18,410.57 1404.55,402.26 1367.15,339.53 1357.29,340.31 1344.37,341.75 1331.72,343.67 1319.38,346.07 1307.33,349.02 1295.66,352.48 1284.4,356.57 1273.66,361.36 1268.56,364.11 1262.49,365.59 1256.1,366.66 1252.52,366.7 1248.4,366.06 1241.28,361.6 1205.34,319.96 1201.97,312.28 1201.94,308.11 1202.5,304.57 1204.49,298.42 1206.84,292.62 1210.31,287.97 1216.64,278.04 1222.3,267.5 1227.45,256.46 1232.11,244.98 1236.29,233.11 1240.05,220.88 1243.35,208.31 1245.58,198.68 1188.97,152.51 1179.96,156.61 1168.32,162.39 1157.09,168.53 1146.31,175.01 1135.99,181.88 1126.22,189.13 1117.04,196.81 1108.59,205 1104.73,209.33 1099.52,212.8 1093.9,215.99 1090.54,217.25 1086.46,218.05 1078.23,216.29 1030.24,189.48 1024.44,183.39 1022.97,179.5 1022.28,175.99 1022.06,169.5 1022.28,163.27 1023.96,157.7 1026.5,146.21 1028.22,134.36 1029.28,122.22 1029.73,109.85 1029.61,97.26 1028.94,84.49 1027.76,71.55 1026.55,61.73 957.56,37.71 950.51,44.64 941.55,54.06 933.1,63.66 925.18,73.45 917.85,83.41 911.12,93.59 905.13,103.95 899.98,114.53 897.84,119.92 894.15,124.96 889.93,129.89 887.22,132.22 883.65,134.36 875.33,135.53 821.04,126.73 813.52,123.01 810.81,119.85 808.96,116.78 806.53,110.77 804.61,104.83 804.28,99.03 802.74,87.36 800.32,75.64 797.15,63.88 793.34,52.1 788.93,40.31 783.93,28.52 778.39,16.77 773.88,7.97 700.85,8.99 696.6,17.9 691.39,29.82 686.73,41.73 682.64,53.64 679.16,65.53 676.33,77.38 674.24,89.17 673.02,100.87 672.85,106.67 671.09,112.66 668.82,118.73 667.07,121.86 664.45,125.09 657.02,129.03 603.02,139.33 594.67,138.4 591.05,136.36 588.25,134.11 583.92,129.3 580.09,124.36 577.79,119.03 572.34,108.6 566.05,98.41 559.07,88.43 551.45,78.67 543.26,69.1 534.56,59.73 525.32,50.58 518.07,43.85 449.8,69.79 448.85,79.63 448.04,92.6 447.74,105.39 447.96,117.98 448.74,130.34 450.15,142.44 452.21,154.23 455.06,165.65 456.89,171.16 457.3,177.39 457.24,183.87 456.65,187.4 455.31,191.35 449.67,197.58 402.44,225.73 394.28,227.71 390.18,227.03 386.79,225.88 381.06,222.84 375.77,219.52 371.8,215.29 363.11,207.35 353.71,199.92 343.73,192.94 333.24,186.36 322.28,180.17 310.88,174.36 299.08,168.91 289.97,165.06 234.68,212.8 237.16,222.36 240.83,234.84 244.92,246.96 249.44,258.7 254.41,270.05 259.85,280.95 265.83,291.31 272.42,301.07 276.02,305.62 278.52,311.34 280.7,317.44 281.35,320.97 281.43,325.12 278.27,332.92 243.51,375.52 236.52,380.19 232.43,380.94 228.85,381 222.43,380.11 216.33,378.8 211.14,376.2 200.26,371.69 188.91,367.94 177.14,364.79 165.03,362.21 152.61,360.13 139.91,358.57 126.96,357.48 117.08,356.99 81.46,420.74 87.04,428.89 94.76,439.35 102.74,449.34 111.02,458.85 119.56,467.81 128.41,476.17 137.58,483.87 147.09,490.79 152.05,493.84 156.36,498.36 160.48,503.35 162.3,506.43 163.8,510.32 163.5,518.71 145.42,570.65 140.44,577.42 136.84,579.52 133.5,580.82 127.16,582.16 120.98,583.02 115.22,582.35 103.46,581.84 91.48,582.19 79.36,583.26 67.1,584.97 54.72,587.27 42.25,590.15 29.71,593.55 20.25,596.46 8.58,668.56 16.63,674.3 27.46,681.5 38.38,688.16 49.39,694.25 60.49,699.74 71.66,704.6 82.91,708.7 94.23,711.92 99.92,713.11 105.51,715.87 111.1,719.16 113.86,721.43 116.59,724.58 119.18,732.56 119.96,787.55 117.6,795.61 114.94,798.82 112.25,801.18 106.75,804.62 101.23,807.53 95.59,808.87 84.36,812.42 73.23,816.84 62.2,822 51.25,827.8 40.41,834.2 29.68,841.15 19.05,848.65 11.18,854.61 24.87,926.35 34.39,929 47.02,932.06 59.56,934.58 72,936.54 84.31,937.9 96.47,938.64 108.44,938.65 120.18,937.82 125.94,936.97 132.13,937.66 138.5,938.85 141.87,940.03 145.53,942.04 150.69,948.67 170.22,1000.08 170.75,1008.46 169.36,1012.39 167.64,1015.52 163.66,1020.63 159.46,1025.26 154.6,1028.46 145.28,1035.61 136.33,1043.58 127.72,1052.19 119.44,1061.39 111.43,1071.12 103.72,1081.32 96.31,1092.01 90.94,1100.29 128.33,1163.04 138.19,1162.27 151.11,1160.83 163.75,1158.89 176.12,1156.48 188.14,1153.56 199.82,1150.09 211.08,1146 221.83,1141.21 226.93,1138.45 233.01,1136.98 239.39,1135.9 242.97,1135.86 247.09,1136.52 254.21,1140.97 290.13,1182.6 293.5,1190.29 293.55,1194.46 292.99,1197.99 291,1204.16 288.65,1209.94 285.18,1214.6 278.86,1224.54 273.17,1235.08 268.03,1246.11 263.38,1257.58 259.2,1269.46 255.44,1281.7 252.12,1294.26 249.92,1303.89 306.52,1350.05 315.51,1345.97 327.15,1340.18 338.38,1334.05 349.18,1327.56 359.48,1320.7 369.27,1313.43 378.45,1305.75 386.9,1297.57 390.77,1293.22 395.96,1289.76 401.59,1286.57 404.95,1285.32 409.04,1284.52 417.25,1286.28 465.25,1313.09 471.05,1319.18 472.51,1323.08 473.19,1326.59 473.43,1333.06 473.21,1339.3 471.53,1344.86 468.99,1356.36 467.25,1368.21 466.2,1380.34 465.75,1392.71 465.88,1405.3 466.54,1418.07 467.73,1431.03 468.95,1440.83 537.93,1464.85 544.97,1457.92 553.95,1448.51 562.39,1438.91 570.31,1429.13 577.65,1419.14 584.35,1408.98 590.36,1398.62 595.5,1388.03 597.66,1382.63 601.34,1377.6 605.55,1372.68 608.28,1370.35 611.84,1368.19 620.16,1367.05 674.45,1375.83 681.97,1379.57 684.69,1382.73 686.52,1385.8 688.97,1391.8 690.88,1397.74 691.22,1403.54 692.75,1415.2 695.18,1426.94 698.34,1438.69 702.14,1450.48 706.57,1462.27 711.56,1474.05 717.09,1485.81 721.59,1494.61 794.63,1493.58 798.89,1484.66 804.1,1472.76 808.76,1460.84 812.85,1448.93 816.33,1437.05 819.16,1425.2 821.25,1413.41 822.47,1401.7 822.64,1395.91 824.38,1389.9 826.65,1383.83 828.42,1380.72 831.03,1377.47 838.46,1373.54 892.47,1363.24 900.82,1364.17 904.45,1366.21 907.22,1368.47 911.57,1373.28 915.4,1378.21 917.7,1383.55 923.15,1393.97 929.43,1404.16 936.42,1414.15 944.04,1423.9 952.21,1433.47 960.94,1442.83 970.17,1452 977.4,1458.72 1045.7,1432.78 1046.64,1422.94 1047.45,1409.97 1047.76,1397.18 1047.53,1384.6 1046.73,1372.24 1045.34,1360.13 1043.28,1348.34 1040.43,1336.93 1038.59,1331.41 1038.19,1325.17 1038.24,1318.7 1038.83,1315.17 1040.18,1311.23 1045.81,1305 1093.05,1276.84 1101.21,1274.84 1105.32,1275.53 1108.7,1276.7 1114.42,1279.73 1119.71,1283.05 1123.7,1287.28 1132.37,1295.22 1141.78,1302.65 1151.74,1309.63 1162.25,1316.21 1173.21,1322.39 1184.61,1328.2 1196.41,1333.67 1205.52,1337.52 1260.81,1289.78 1258.34,1280.21 1254.66,1267.74 1250.57,1255.62 1246.05,1243.86 1241.08,1232.52 1235.64,1221.63 1229.66,1211.24 1223.07,1201.51 1219.46,1196.95 1216.95,1191.24 1214.8,1185.12 1214.14,1181.61 1214.06,1177.44 1217.21,1169.66 1251.96,1127.05 1258.96,1122.38 1263.06,1121.62 1266.64,1121.56 1273.04,1122.45 1279.16,1123.76 1284.35,1126.38 1295.21,1130.86 1306.58,1134.63 1318.35,1137.78 1330.46,1140.37 1342.88,1142.43 1355.58,1144.01 1368.53,1145.08 1378.41,1145.59 1414.03,1081.83 1408.45,1073.69 1400.73,1063.21 1392.75,1053.23 1384.47,1043.73 1375.91,1034.77 1367.08,1026.4 1357.91,1018.69 1348.38,1011.78 1343.44,1008.73 1339.13,1004.22 1335.01,999.21 1333.19,996.13 1331.69,992.25 1331.99,983.85 1350.07,931.93 1355.05,925.15 1358.64,923.05 1361.99,921.76 1368.31,920.4 1374.51,919.55 1380.27,920.22 1392.03,920.73 1403.99,920.38 1416.13,919.31 1428.4,917.6 1440.77,915.3 1453.25,912.43 1465.78,909.01 1475.24,906.1 1486.91,834.01 1478.86,828.27 1468.03,821.07 1457.11,814.41 1446.09,808.31 1434.99,802.82 1423.83,797.98 1412.57,793.87 1401.26,790.63 1395.58,789.47 1389.97,786.71 1384.4,783.41 1381.63,781.14 1378.89,778 1376.3,770 "/>
   </g>
   <g id="G1Gear_0" data-id="0">
    <g>
     <polygon class="fil0" points="1004.49,775.48 1232.83,731.92 1268.67,761.66 1266.67,798.06 1262.14,834.23 1255.08,870.01 1245.53,905.19 1233.55,939.62 1219.19,973.14 1202.51,1005.55 1183.62,1036.73 1162.6,1066.52 1139.54,1094.76 1114.56,1121.31 1087.79,1146.05 1042.02,1137.4 930.03,933.68 936.58,871.01 960.36,820.47 "/>
     <polygon id="_1_1" class="fil1 str0" points="1004.49,775.48 1232.83,731.92 1268.67,761.66 1266.67,798.06 1262.14,834.23 1255.08,870.01 1245.53,905.19 1233.55,939.62 1219.19,973.14 1202.51,1005.55 1183.62,1036.73 1162.6,1066.52 1139.54,1094.76 1114.56,1121.31 1087.79,1146.05 1042.02,1137.4 930.03,933.68 936.58,871.01 960.36,820.47 "/>
    </g>
    <polygon class="fil2 str0" points="1004.49,775.48 1232.83,731.92 1268.67,761.66 1266.67,798.06 1262.14,834.23 1255.08,870.01 1245.53,905.19 1233.55,939.62 1219.19,973.14 1202.51,1005.55 1183.62,1036.73 1162.6,1066.52 1139.54,1094.76 1114.56,1121.31 1087.79,1146.05 1042.02,1137.4 930.03,933.68 936.58,871.01 960.36,820.47 "/>
   </g>
   <g id="G1Gear_2" data-id="0">
    <g>
     <polygon class="fil0" points="804.09,1002.94 916.06,1206.63 898.86,1249.93 863.61,1259.27 827.8,1266.13 791.61,1270.47 755.2,1272.26 718.75,1271.51 682.45,1268.2 646.45,1262.37 610.96,1254.03 576.14,1243.25 542.16,1230.04 509.18,1214.49 477.38,1196.68 471.47,1150.48 630.59,981.02 692.24,967.88 747.64,974.87 "/>
     <polygon id="_1_3" class="fil1 str0" points="804.09,1002.94 916.06,1206.63 898.86,1249.93 863.61,1259.27 827.8,1266.13 791.61,1270.47 755.2,1272.26 718.75,1271.51 682.45,1268.2 646.45,1262.37 610.96,1254.03 576.14,1243.25 542.16,1230.04 509.18,1214.49 477.38,1196.68 471.47,1150.48 630.59,981.02 692.24,967.88 747.64,974.87 "/>
    </g>
    <polygon class="fil2 str0" points="804.09,1002.94 916.06,1206.63 898.86,1249.93 863.61,1259.27 827.8,1266.13 791.61,1270.47 755.2,1272.26 718.75,1271.51 682.45,1268.2 646.45,1262.37 610.96,1254.03 576.14,1243.25 542.16,1230.04 509.18,1214.49 477.38,1196.68 471.47,1150.48 630.59,981.02 692.24,967.88 747.64,974.87 "/>
   </g>
   <g id="G1Gear_4" data-id="0">
    <g>
     <polygon class="fil0" points="525.82,882.63 366.68,1052.08 320.21,1049.08 300.44,1018.46 282.84,986.52 267.53,953.44 254.57,919.36 244.02,884.46 235.94,848.91 230.37,812.9 227.32,776.56 226.84,740.1 228.88,703.7 233.48,667.54 240.61,631.78 282.72,611.88 493.05,710.85 524.59,765.43 535.07,820.29 "/>
     <polygon id="_1_5" class="fil1 str0" points="525.82,882.63 366.68,1052.08 320.21,1049.08 300.44,1018.46 282.84,986.52 267.53,953.44 254.57,919.36 244.02,884.46 235.94,848.91 230.37,812.9 227.32,776.56 226.84,740.1 228.88,703.7 233.48,667.54 240.61,631.78 282.72,611.88 493.05,710.85 524.59,765.43 535.07,820.29 "/>
    </g>
    <polygon class="fil2 str0" points="525.82,882.63 366.68,1052.08 320.21,1049.08 300.44,1018.46 282.84,986.52 267.53,953.44 254.57,919.36 244.02,884.46 235.94,848.91 230.37,812.9 227.32,776.56 226.84,740.1 228.88,703.7 233.48,667.54 240.61,631.78 282.72,611.88 493.05,710.85 524.59,765.43 535.07,820.29 "/>
   </g>
   <g id="G1Gear_6" data-id="0">
    <g>
     <polygon class="fil0" points="554.25,580.8 343.93,481.83 332.41,436.7 355.42,408.43 380.36,381.83 407.09,357.05 435.49,334.18 465.42,313.36 496.74,294.7 529.27,278.26 562.89,264.14 597.4,252.42 632.65,243.12 668.47,236.32 704.68,232.04 736.62,265.95 707.47,496.57 665.34,543.43 616.39,570.33 "/>
     <polygon id="_1_7" class="fil1 str0" points="554.25,580.8 343.93,481.83 332.41,436.7 355.42,408.43 380.36,381.83 407.09,357.05 435.49,334.18 465.42,313.36 496.74,294.7 529.27,278.26 562.89,264.14 597.4,252.42 632.65,243.12 668.47,236.32 704.68,232.04 736.62,265.95 707.47,496.57 665.34,543.43 616.39,570.33 "/>
    </g>
    <polygon class="fil2 str0" points="554.25,580.8 343.93,481.83 332.41,436.7 355.42,408.43 380.36,381.83 407.09,357.05 435.49,334.18 465.42,313.36 496.74,294.7 529.27,278.26 562.89,264.14 597.4,252.42 632.65,243.12 668.47,236.32 704.68,232.04 736.62,265.95 707.47,496.57 665.34,543.43 616.39,570.33 "/>
   </g>
   <g id="G1Gear_8" data-id="0">
    <g>
     <polygon class="fil0" points="850.08,514.59 879.23,283.96 918.58,259.07 952.58,272.21 985.6,287.7 1017.43,305.48 1047.93,325.43 1076.98,347.47 1104.42,371.47 1130.1,397.34 1153.92,424.94 1175.75,454.15 1195.47,484.8 1213.01,516.76 1228.28,549.87 1205.89,590.72 977.56,634.27 919.97,608.69 879.24,570.45 "/>
     <polygon id="_1_9" class="fil1 str0" points="850.08,514.59 879.23,283.96 918.58,259.07 952.58,272.21 985.6,287.7 1017.43,305.48 1047.93,325.43 1076.98,347.47 1104.42,371.47 1130.1,397.34 1153.92,424.94 1175.75,454.15 1195.47,484.8 1213.01,516.76 1228.28,549.87 1205.89,590.72 977.56,634.27 919.97,608.69 879.24,570.45 "/>
    </g>
    <polygon class="fil2 str0" points="850.08,514.59 879.23,283.96 918.58,259.07 952.58,272.21 985.6,287.7 1017.43,305.48 1047.93,325.43 1076.98,347.47 1104.42,371.47 1130.1,397.34 1153.92,424.94 1175.75,454.15 1195.47,484.8 1213.01,516.76 1228.28,549.87 1205.89,590.72 977.56,634.27 919.97,608.69 879.24,570.45 "/>
   </g>
   <circle id="G1_sh" class="fil1 str0" cx="747.74" cy="751.28" r="79.86"/>
  </g>
 </g>
</svg>
