<?xml version="1.0" encoding="UTF-8"?>
<!DOCTYPE svg PUBLIC "-//W3C//DTD SVG 1.1//EN" "http://www.w3.org/Graphics/SVG/1.1/DTD/svg11.dtd">
<!-- Creator: CorelDRAW 2021.5 -->
<svg xmlns="http://www.w3.org/2000/svg" xml:space="preserve" width="38.8056mm" height="38.8056mm" version="1.1" style="shape-rendering:geometricPrecision; text-rendering:geometricPrecision; image-rendering:optimizeQuality; fill-rule:evenodd; clip-rule:evenodd"
viewBox="0 0 695.56 695.56"
 xmlns:xlink="http://www.w3.org/1999/xlink"
 xmlns:xodm="http://www.corel.com/coreldraw/odm/2003">
 <defs>
  <style type="text/css">
   <![CDATA[
    .str0 {stroke:black;stroke-width:12.65;stroke-miterlimit:2.61313}
    .str1 {stroke:black;stroke-width:6.32;stroke-miterlimit:2.61313}
    .str2 {stroke:black;stroke-width:6.32;stroke-miterlimit:2.61313}
    .fil1 {fill:none;fill-rule:nonzero}
    .fil4 {fill:white}
    .fil0 {fill:white}
    .fil3 {fill:black;fill-rule:nonzero}
    .fil2 {fill:white;fill-rule:nonzero}
   ]]>
  </style>
 </defs>
 <g id="Layer_x0020_1">
  <metadata id="CorelCorpID_0Corel-Layer"/>
  <g id="_2365295125680">
   <rect class="fil0 str0" x="6.32" y="6.32" width="682.91" height="682.91" rx="45.53" ry="45.53"/>
   <g>
    <path class="fil1 str1" d="M441.42 440.52c74.13,50.26 141.86,44.99 172.8,76.2 30.94,31.21 49.61,74.57 12.82,111.04 -36.79,36.47 -79.99,17.42 -110.93,-13.79 -30.94,-31.21 -25.08,-98.88 -74.69,-173.45z"/>
    <path class="fil2 str2" d="M53.17 60.72c-3.24,-3.27 -3.22,-8.54 0.05,-11.79 3.27,-3.24 8.54,-3.22 11.79,0.05l407.67 411.24c3.24,3.27 3.22,8.55 -0.05,11.79 -3.27,3.24 -8.55,3.22 -11.79,-0.05l-407.67 -411.24z"/>
   </g>
   <path class="fil3" d="M187.79 402.41l-57.06 0 -8.19 26.86 -51.41 0 61.35 -162.99 55.13 0 61.08 162.99 -52.74 0 -8.16 -26.86zm-10.66 -35.28l-17.79 -58.58 -17.87 58.58 35.66 0z"/>
   <path id="_1" class="fil3" d="M265.26 266.28l74.85 0c14.72,0 26.67,2.01 35.74,5.99 9.07,4.02 16.58,9.75 22.54,17.23 5.92,7.51 10.21,16.2 12.86,26.14 2.69,9.94 4.02,20.45 4.02,31.56 0,17.42 -1.97,30.92 -5.96,40.52 -3.95,9.6 -9.45,17.64 -16.5,24.13 -7.06,6.49 -14.61,10.81 -22.69,12.98 -11.04,2.96 -21.06,4.44 -30.01,4.44l-74.85 0 0 -162.99zm50.31 36.88l0 89.01 12.37 0c10.55,0 18.06,-1.18 22.54,-3.49 4.44,-2.35 7.93,-6.41 10.47,-12.22 2.54,-5.84 3.79,-15.25 3.79,-28.3 0,-17.26 -2.81,-29.06 -8.46,-35.44 -5.65,-6.37 -15.02,-9.56 -28.11,-9.56l-12.6 0z"/>
   <polygon id="_2" class="fil3" points="441.18,266.28 507.62,266.28 532.92,365.46 558.3,266.28 624.43,266.28 624.43,429.27 583.23,429.27 583.23,305.02 551.44,429.27 514.1,429.27 482.39,305.02 482.39,429.27 441.18,429.27 "/>
   <g>
    <path id="_3" class="fil4" d="M180.79 411.9l-43.08 0 -6.14 20.12c-1.24,4.08 -4.99,6.71 -9.04,6.71l0 0.04 -51.41 0c-5.24,0 -9.49,-4.25 -9.49,-9.49 0,-1.41 0.31,-2.75 0.87,-3.96l61.11 -162.36c1.43,-3.79 5.03,-6.13 8.86,-6.13l0 -0.02 55.13 0c4.36,0 8.03,2.94 9.14,6.95l60.8 162.23c1.82,4.89 -0.67,10.33 -5.56,12.15 -1.09,0.41 -2.2,0.6 -3.3,0.6l0 0.03 -52.74 0c-4.58,0 -8.4,-3.25 -9.29,-7.57l-5.86 -19.29zm6.99 -9.49l-57.06 0 -8.19 26.86 -51.41 0 61.35 -162.99 55.13 0 61.08 162.99 -52.74 0 -8.16 -26.86zm-10.66 -35.28l-17.79 -58.58 -17.87 58.58 35.66 0zm-12.75 -9.49l-5.06 -16.65 -5.08 16.65 10.14 0z"/>
   </g>
   <g>
    <path id="_4" class="fil4" d="M265.26 256.8l74.85 0c7.8,0 14.99,0.55 21.53,1.65 6.73,1.13 12.73,2.85 17.99,5.16 0.01,0 0.02,0.01 0.03,0.01l0.01 -0.01c5.2,2.31 9.99,5.13 14.36,8.47 4.38,3.35 8.31,7.19 11.77,11.54 0.01,0.01 0.02,0.03 0.03,0.04l0.01 -0c3.34,4.24 6.24,8.85 8.69,13.83 2.44,4.95 4.39,10.19 5.87,15.72 1.42,5.26 2.5,10.79 3.24,16.6 0.74,5.84 1.11,11.65 1.11,17.41 0,9.12 -0.53,17.31 -1.6,24.56 -1.1,7.52 -2.8,14.05 -5.1,19.59 -0.07,0.16 -0.14,0.32 -0.21,0.47 -2.19,5.25 -4.8,10.07 -7.8,14.46 -3.16,4.62 -6.77,8.8 -10.83,12.53 -4.07,3.74 -8.3,6.87 -12.66,9.37 -4.48,2.56 -9.15,4.5 -13.99,5.79 -5.87,1.57 -11.5,2.76 -16.86,3.55 -5.5,0.81 -10.71,1.22 -15.6,1.22l-74.85 0c-5.24,0 -9.49,-4.25 -9.49,-9.49l0 -162.99c0,-5.24 4.25,-9.49 9.49,-9.49zm0 9.49l74.85 0c14.72,0 26.67,2.01 35.74,5.99 9.07,4.02 16.58,9.75 22.54,17.23 5.92,7.51 10.21,16.2 12.86,26.14 2.69,9.94 4.02,20.45 4.02,31.56 0,17.42 -1.97,30.92 -5.96,40.52 -3.95,9.6 -9.45,17.64 -16.5,24.13 -7.06,6.49 -14.61,10.81 -22.69,12.98 -11.04,2.96 -21.06,4.44 -30.01,4.44l-74.85 0 0 -162.99zm50.31 36.88l0 89.01 12.37 0c10.55,0 18.06,-1.18 22.54,-3.49 4.44,-2.35 7.93,-6.41 10.47,-12.22 2.54,-5.84 3.79,-15.25 3.79,-28.3 0,-17.26 -2.81,-29.06 -8.46,-35.44 -5.65,-6.37 -15.02,-9.56 -28.11,-9.56l-12.6 0zm9.49 9.49l0 70.03 2.88 0c4.95,0 8.98,-0.25 12.1,-0.73 2.66,-0.41 4.67,-0.97 6.03,-1.65 1.15,-0.61 2.21,-1.48 3.16,-2.59 1.14,-1.33 2.16,-3.01 3.04,-5.03 0.92,-2.12 1.64,-5.08 2.15,-8.89 0.55,-4.16 0.83,-9.37 0.83,-15.63 0,-7.9 -0.62,-14.44 -1.85,-19.61 -1.05,-4.4 -2.45,-7.59 -4.2,-9.56 -1.7,-1.91 -4.11,-3.4 -7.23,-4.46 -3.67,-1.25 -8.27,-1.87 -13.81,-1.87l-3.11 0z"/>
   </g>
   <g>
    <path id="_5" class="fil4" d="M441.18 256.8l66.43 0c4.54,0 8.33,3.19 9.26,7.45l16.05 62.92 16.18 -63.21c1.09,-4.29 4.95,-7.15 9.19,-7.15l0 -0 66.13 0c5.24,0 9.49,4.25 9.49,9.49l0 162.99c0,5.24 -4.25,9.49 -9.49,9.49l-41.2 0c-5.24,0 -9.49,-4.25 -9.49,-9.49l0 -48.93 -13.12 51.27c-1.09,4.29 -4.95,7.15 -9.19,7.15l0 0 -37.33 0c-4.54,0 -8.33,-3.19 -9.26,-7.45l-12.97 -50.8 0 48.76c0,5.24 -4.25,9.49 -9.49,9.49l-41.2 0c-5.24,0 -9.49,-4.25 -9.49,-9.49l0 -162.99c0,-5.24 4.25,-9.49 9.49,-9.49zm0 9.49l66.43 0 25.31 99.17 25.38 -99.17 66.13 0 0 162.99 -41.2 0 0 -124.25 -31.79 124.25 -37.33 0 -31.72 -124.25 0 124.25 -41.2 0 0 -162.99z"/>
   </g>
  </g>
 </g>
</svg>
