<?xml version="1.0" encoding="UTF-8"?>
<!DOCTYPE svg PUBLIC "-//W3C//DTD SVG 1.1//EN" "http://www.w3.org/Graphics/SVG/1.1/DTD/svg11.dtd">
<!-- Creator: CorelDRAW 2021.5 -->
<svg xmlns="http://www.w3.org/2000/svg" xml:space="preserve" width="159.808mm" height="39.1584mm" version="1.1" style="shape-rendering:geometricPrecision; text-rendering:geometricPrecision; image-rendering:optimizeQuality; fill-rule:evenodd; clip-rule:evenodd"
viewBox="0 0 11120.31 2724.85"
 xmlns:xlink="http://www.w3.org/1999/xlink"
 xmlns:xodm="http://www.corel.com/coreldraw/odm/2003">
 <defs>
  <style type="text/css">
   <![CDATA[
    .str0 {stroke:black;stroke-width:73.64;stroke-miterlimit:2.61313}
    .str1 {stroke:black;stroke-width:73.64;stroke-linecap:round;stroke-miterlimit:2.61313}
    .fil1 {fill:none}
    .fil3 {fill:white}
    .fil0 {fill:white}
    .fil2 {fill:black;fill-rule:nonzero}
   ]]>
  </style>
 </defs>
 <g id="Layer_x0020_1">
  <metadata id="CorelCorpID_0Corel-Layer"/>
  <path class="fil0 str0" d="M213.57 36.82l2297.71 0c97.21,0 176.75,79.54 176.75,176.75l0 2474.45 -2474.45 0c-97.21,0 -176.75,-79.54 -176.75,-176.75l0 -2297.71c0,-97.21 79.54,-176.75 176.75,-176.75z"/>
  <line class="fil1 str1" x1="2246.16" y1="2688.01" x2="11083.48" y2= "2688.01" />
  <g id="Linux_Platform.svg">
   <g>
    <g>
     <g>
      <path class="fil2" d="M2298.8 2094c-61.24,-25.06 -111.6,-64.78 -108.06,-140.44 3.55,-75.66 -54.14,-125.79 -54.14,-125.79 0,0 50.37,-165.74 3.55,-302.64 -46.82,-137.13 -201.68,-356.55 -320.37,-522.29 -118.69,-165.75 -17.97,-356.78 -125.78,-601.5 -108.29,-244.72 -388.94,-230.53 -540.26,-126.03 -151.32,104.27 -104.51,363.65 -97.41,486.12 7.33,122.24 3.31,209.49 -10.64,241.17 -14.19,31.68 -111.6,147.77 -176.62,244.95 -64.78,97.18 -111.59,298.85 -158.65,381.85 -46.82,82.75 -14.43,158.41 -14.43,158.41 0,0 -32.39,10.64 -57.69,65.02 -25.3,53.91 -75.66,78.97 -165.75,96.94 -90.09,17.97 -90.09,75.9 -68.57,140.68 21.75,64.78 0,100.96 -25.06,183.48 -25.3,82.51 100.72,108.05 223.19,122.24 122.48,14.65 259.37,93.86 374.75,108.05 115.15,14.42 151.08,-79.21 151.08,-79.21 0,0 129.57,-29.08 266.47,-32.39 136.9,-3.55 266.46,28.84 266.46,28.84 0,0 25.29,57.69 72.11,82.76 46.82,25.29 147.77,28.84 212.56,-39.49 65.02,-68.56 237.86,-154.86 335.03,-209.01 97.41,-53.91 79.45,-136.67 18.21,-161.72zm-842.66 -1588.15c61.71,0 111.59,61.24 111.59,136.66 0,53.67 -25.06,99.78 -61.47,122.24 -9.22,-4.02 -19.15,-8.27 -29.55,-12.77 21.99,-10.88 37.59,-38.77 37.59,-71.64 0,-42.56 -26.24,-77.08 -58.87,-77.08 -32.16,0 -58.64,34.52 -58.64,77.08 0,15.84 3.79,30.97 10.17,43.27 -19.15,-7.56 -36.88,-14.66 -50.83,-20.1 -7.56,-18.45 -11.82,-39.25 -11.82,-61.24 0,-75.19 49.89,-136.42 111.84,-136.42zm-8.04 288.22c30.97,10.64 65.26,30.74 61.72,50.6 -3.55,20.1 -19.87,20.1 -61.72,45.63 -41.85,25.29 -132.4,81.57 -161.49,85.12 -29.08,3.54 -45.39,-12.77 -76.36,-32.63 -30.97,-20.1 -88.9,-67.39 -74.25,-92.69 0,0 45.16,-34.52 65.02,-52.72 20.1,-18.2 70.94,-61.71 101.67,-56.04 30.97,5.44 114.43,41.85 145.41,52.72zm-278.52 -266.7c48.71,0 88.19,57.93 88.19,129.57 0,13.24 -1.18,25.3 -3.78,37.12 -11.82,4.02 -23.88,10.64 -35.7,20.57 -5.91,4.96 -11.11,9.46 -16.32,13.95 7.81,-14.43 10.88,-34.99 7.33,-56.75 -6.62,-39.02 -32.63,-67.62 -58.4,-63.6 -25.77,4.49 -41.38,39.48 -34.76,78.97 6.62,39.25 32.63,67.86 58.17,63.6 1.42,-0.24 2.84,-0.71 4.26,-1.18 -12.53,12.05 -24.12,22.46 -35.94,31.21 -35.7,-16.55 -61.71,-65.73 -61.71,-123.9 0.7,-71.64 40.19,-129.57 88.66,-129.57zm-95.05 1819.86c-11.59,51.54 -71.87,89.14 -71.87,89.14 -54.85,17.26 -207.12,-48.94 -276.16,-77.79 -69.04,-28.61 -244.47,-37.59 -267.65,-63.13 -22.94,-26.01 11.59,-83.7 20.33,-138.08 8.52,-54.85 -17.26,-89.14 -8.75,-126.73 8.75,-37.36 120.82,-37.36 163.85,-63.13 43.27,-26 51.78,-100.72 86.3,-120.81 34.52,-20.34 97.65,51.54 123.65,92.21 25.77,39.96 123.66,212.79 163.85,256.06 40.67,42.79 78.03,100.49 66.44,152.27zm636.96 -501.95c-10.4,50.83 -10.4,234.31 -10.4,234.31 0,0 -111.6,154.63 -284.67,179.93 -172.84,25.3 -259.37,7.1 -259.37,7.1l-97.18 -111.36c0,0 75.42,-10.88 64.78,-86.54 -10.88,-75.66 -230.52,-180.16 -270.01,-273.8 -39.48,-93.39 -7.09,-252.04 43.28,-331.48 50.36,-79.21 82.51,-251.81 133.11,-309.73 50.36,-57.46 89.85,-179.93 71.87,-234.08 0,0 108.05,129.8 183.48,108.29 75.66,-21.75 245.19,-147.77 270.01,-126.02 25.06,21.75 241.17,496.99 262.68,648.31 21.75,151.08 -14.43,266.46 -14.43,266.46 0,0 -82.51,-21.75 -93.15,28.61zm552.79 339.28c-33.57,30.97 -220.84,106.4 -276.87,165.51 -55.79,58.4 -128.62,106.16 -173.31,92.21 -44.92,-14.18 -83.93,-75.66 -64.31,-165.26 19.39,-89.38 36.41,-187.26 33.57,-243.3 -2.83,-56.03 -14.18,-131.7 0,-142.8 13.95,-10.88 36.18,-5.44 36.18,-5.44 0,0 -10.88,106.16 53.2,134.3 64.31,27.66 156.52,-11.11 184.66,-39.49 28.13,-27.9 47.76,-69.75 47.76,-69.75 0,0 27.9,14.19 25.06,58.87 -2.84,44.69 19.39,109.23 61.71,131.46 41.62,22.23 105.93,53.2 72.35,83.7z"/>
     </g>
     <g>
     </g>
     <g>
     </g>
     <g>
     </g>
     <g>
     </g>
     <g>
     </g>
     <g>
     </g>
     <g>
     </g>
     <g>
     </g>
     <g>
     </g>
     <g>
     </g>
     <g>
     </g>
     <g>
     </g>
     <g>
     </g>
     <g>
     </g>
     <g>
     </g>
    </g>
    <g>
    </g>
    <g>
    </g>
    <g>
    </g>
    <g>
    </g>
    <g>
    </g>
    <g>
    </g>
    <g>
    </g>
    <g>
    </g>
    <g>
    </g>
    <g>
    </g>
    <g>
    </g>
    <g>
    </g>
    <g>
    </g>
    <g>
    </g>
    <g>
    </g>
   </g>
  </g>
  <polygon class="fil2" points="482.15,1046.05 677.45,1046.05 677.45,1523.26 983.23,1523.26 983.23,1678.8 482.15,1678.8 "/>
  <polygon id="_1" class="fil2" points="1071.6,1046.05 1594.77,1046.05 1594.77,1181.26 1267.79,1181.26 1267.79,1282 1570.91,1282 1570.91,1411.03 1267.79,1411.03 1267.79,1535.64 1604.49,1535.64 1604.49,1678.8 1071.6,1678.8 "/>
  <polygon id="_2" class="fil2" points="1709.8,1046.05 2232.97,1046.05 2232.97,1181.26 1905.99,1181.26 1905.99,1282 2209.11,1282 2209.11,1411.03 1905.99,1411.03 1905.99,1535.64 2242.69,1535.64 2242.69,1678.8 1709.8,1678.8 "/>
  <g>
   <path id="_3" class="fil3" d="M482.15 1009.22l195.3 0c20.33,0 36.82,16.49 36.82,36.82l0 440.39 268.95 0c20.33,0 36.82,16.49 36.82,36.82l0 155.54c0,20.33 -16.49,36.82 -36.82,36.82l-501.08 0c-20.33,0 -36.82,-16.49 -36.82,-36.82l0 -632.75c0,-20.33 16.49,-36.82 36.82,-36.82zm0 36.82l195.3 0 0 477.22 305.77 0 0 155.54 -501.08 0 0 -632.75z"/>
  </g>
  <g>
   <path id="_4" class="fil3" d="M1071.6 1009.22l523.17 0c20.33,0 36.82,16.49 36.82,36.82l0 135.21c0,20.33 -16.49,36.82 -36.82,36.82l-290.16 0 0 27.1 266.3 0c20.33,0 36.82,16.49 36.82,36.82l0 129.02c0,20.33 -16.49,36.82 -36.82,36.82l-266.3 0 0 50.96 299.88 0c20.33,0 36.82,16.49 36.82,36.82l0 143.16c0,20.33 -16.49,36.82 -36.82,36.82l-532.89 0c-20.33,0 -36.82,-16.49 -36.82,-36.82l0 -632.75c0,-20.33 16.49,-36.82 36.82,-36.82zm0 36.82l523.17 0 0 135.21 -326.98 0 0 100.75 303.12 0 0 129.02 -303.12 0 0 124.61 336.7 0 0 143.16 -532.89 0 0 -632.75z"/>
  </g>
  <g>
   <path id="_5" class="fil3" d="M1709.8 1009.22l523.17 0c20.33,0 36.82,16.49 36.82,36.82l0 135.21c0,20.33 -16.49,36.82 -36.82,36.82l-290.16 0 0 27.1 266.3 0c20.33,0 36.82,16.49 36.82,36.82l0 129.02c0,20.33 -16.49,36.82 -36.82,36.82l-266.3 0 0 50.96 299.88 0c20.33,0 36.82,16.49 36.82,36.82l0 143.16c0,20.33 -16.49,36.82 -36.82,36.82l-532.89 0c-20.33,0 -36.82,-16.49 -36.82,-36.82l0 -632.75c0,-20.33 16.49,-36.82 36.82,-36.82zm0 36.82l523.17 0 0 135.21 -326.98 0 0 100.75 303.12 0 0 129.02 -303.12 0 0 124.61 336.7 0 0 143.16 -532.89 0 0 -632.75z"/>
  </g>
 </g>
</svg>
