<?xml version="1.0" encoding="UTF-8"?>
<!DOCTYPE svg PUBLIC "-//W3C//DTD SVG 1.1//EN" "http://www.w3.org/Graphics/SVG/1.1/DTD/svg11.dtd">
<!-- Creator: CorelDRAW 2021.5 -->
<svg xmlns="http://www.w3.org/2000/svg" xml:space="preserve" width="1.4in" height="1.12956in" version="1.1" style="shape-rendering:geometricPrecision; text-rendering:geometricPrecision; image-rendering:optimizeQuality; fill-rule:evenodd; clip-rule:evenodd"
viewBox="0 0 534.55 431.29"
 xmlns:xlink="http://www.w3.org/1999/xlink"
 xmlns:xodm="http://www.corel.com/coreldraw/odm/2003">
 <defs>
  <style type="text/css">
   <![CDATA[
    .fil0 {fill:black}
   ]]>
  </style>
 </defs>
 <g id="Layer_x0020_1">
  <metadata id="CorelCorpID_0Corel-Layer"/>
  <path class="fil0" d="M14.66 292.17c4.98,-1.82 -4.06,0.04 1.24,-0.02l2.09 -0.4c5.35,-2.97 1.98,-1.4 6.95,-1.4 1.44,0 4.48,-2.08 4.76,-2.43 -0.02,-0.02 -1.57,0.54 -0.83,-3.43 -2.98,-8.68 -7.9,-12.79 -10.79,-29 -5.98,-33.56 4.57,-67.06 32.48,-83.33 5.71,-3.33 2.9,-2.59 6.64,-13.34 9.89,-28.39 34.85,-50.47 64.94,-54.12 6.01,-0.73 15.49,0.51 20.12,-0.54 3.44,-3.81 5.87,-12.02 8.51,-17 2.95,-5.58 6.32,-10.9 9.72,-15.79l11.55 -13.94c4.08,-4.4 8.58,-7.96 13.59,-11.91 49.83,-39.31 123.17,-33.01 165.31,11.74 9.34,9.92 28.1,34.49 30.33,46.74l-18.35 -0.1c-2.65,-0.33 -1.93,-0.98 -4.18,-2.01 -12.11,-5.53 -16.77,16 -3.03,15.81 4.76,-0.06 3.3,-2.49 10.64,-2.39 27.56,0.4 21.54,2.11 36.48,-13.59 3.36,-3.54 10.56,-9.28 12.46,-13.18 2.69,-5.51 1.3,-39.92 1.38,-48.81 6.8,-4.19 15.68,-8.76 13.57,-22.63 -3.52,-23.11 -36.44,-22.53 -39.36,0.34 -0.7,5.46 0.71,10.5 3.23,14.37 2.55,3.92 6.08,6.01 10.34,7.68 -0.48,10.44 -0.14,21.64 -0.14,32.16 0,10.13 2.21,10.71 -10.34,21.2 -3.3,-13.85 -22.01,-38.19 -32.23,-48.48 -2.39,-2.4 -4.69,-4.17 -6.97,-6.52l-7.74 -6.44c-33.25,-26.61 -84.52,-36.09 -128.91,-22.23 -14.37,4.49 -25.36,11.14 -36.37,18.24 -15.98,10.31 -29.49,25.95 -39.77,41.85 -3.62,5.59 -5.9,11.85 -9.63,17.74 -28.3,2.19 -47.33,9.91 -62.76,24.69 -3.82,3.66 -7.37,6.71 -10.83,11.21 -6.86,8.92 -11.85,17.25 -15.84,28.18 -3.41,9.36 -2.22,7.09 -9.12,12.74 -8.23,6.74 -14.35,13.18 -20.08,23.28 -15.46,27.23 -18.17,60.18 -6.49,89.73 2.14,5.42 5.21,10.4 7.44,15.36zm392.74 -280.34c-9.55,3.57 -5.86,21.31 6.03,16.78 10.8,-4.12 5.07,-20.93 -6.03,-16.78zm88.32 156.01c1.22,4.07 13.23,14.9 19.43,39.31 4.23,16.63 4.46,36.26 -0.18,52.85 -7.65,27.38 -27.73,51.93 -53.96,63.62 -16.87,7.52 -28.3,9.71 -49.27,9.73l-87.94 0.08c-8.67,0.02 -21.71,-2.18 -22.98,6.98 -1.67,12.05 13.45,9.3 20.85,9.31 9.88,0.01 19.77,-0.05 29.65,0.01l0.01 25.28c-6.34,-0.05 -12.72,-0.06 -19.06,0.02 -5.49,0.07 -4.18,0.51 -7.44,-2.36 -7.04,-6.19 -17.03,3 -11.41,10.66 4.92,6.7 13.95,-0.87 14.08,-0.91 6.49,-1.74 52.03,1.3 57.57,-1.22 4.66,-2.12 5.99,-5.26 11.05,-8.82 3.27,2.12 5.18,4.92 8.37,7.18 4.53,3.22 6.7,2.63 12.9,2.68 2.2,1.94 5.61,6.18 11.16,3.41 3.58,-1.79 6.21,-6.77 3.23,-11.37 -2.07,-3.2 -7.05,-5.1 -11.36,-1.84 -3.14,2.38 -0.78,2.59 -5.85,2.61 -8.86,0.04 -9.32,-6.98 -15.32,-9.53 -10.35,-4.39 -8.64,9.61 -23.7,9.49 -5.69,-0.05 -11.44,-0.06 -17.13,0.02l0.04 -25.31c50.44,0.4 94.83,5.68 133.8,-27.33 1.21,-1.03 2.4,-1.76 3.56,-2.87 24.53,-23.35 40.3,-51.66 38.55,-91.92 -0.64,-14.68 -4.03,-28.65 -9.11,-40.43 -4.11,-9.55 -9.6,-19.13 -16.03,-27.26l-2.02 -2.33c-0.99,-0.93 -0.17,-0.35 -1.38,-1.14 -1.14,4.58 0.34,-0.15 -1.5,2.96 -0.62,1.04 -0.4,0.51 -0.82,1.89l-0.33 1.18c-0.45,2.31 0.38,1.99 0.98,3.74 -2.5,-0 -1.37,-0.42 -2.99,0.59 -0.12,0.08 -0.28,0.22 -0.38,0.31l-0.57 0.81c-0.06,0.08 -0.19,0.58 -0.23,0.47 -0.04,-0.11 -0.15,0.32 -0.21,0.49 -0.14,-0.13 -0.33,-0.31 -0.42,-0.4 -3.65,-3.25 -2.93,-1.23 -3.68,-0.64zm-28.65 -121.28c-13.86,0.62 -22.17,-1.86 -29.39,7.76 -5.65,7.53 -3.54,22.91 -3.54,33.64 0,10.39 -4.94,9.84 -10.82,16.51 -7.41,8.39 -22.49,19.73 -22.09,24.46 0.25,3.01 4.91,10.37 12.52,1.42l26.29 -25.48c8.21,-7.74 5.89,-15.17 5.87,-31.13 -0.01,-14.01 -1.59,-16.89 21.87,-15.37 3.05,4.44 7.44,17.02 23.23,14.54 10.15,-1.6 18.13,-9.53 17.97,-21.15 -0.29,-21.94 -29.19,-27.8 -38.74,-11.65 -1.17,1.97 -2.07,4.78 -3.18,6.45zm17.66 -4.27c-12.21,3.35 -7.5,22.64 6.21,19.11 12.28,-3.16 6.44,-22.58 -6.21,-19.11zm10.99 125.55c0.75,-0.59 0.02,-2.61 3.68,0.64 0.09,0.08 0.28,0.27 0.42,0.4 0.06,-0.17 0.17,-0.6 0.21,-0.49 0.04,0.11 0.17,-0.39 0.23,-0.47l0.57 -0.81c0.1,-0.09 0.26,-0.23 0.38,-0.31 1.62,-1.01 0.5,-0.6 2.99,-0.59 -0.6,-1.75 -1.42,-1.43 -0.98,-3.74l0.33 -1.18c0.42,-1.38 0.2,-0.85 0.82,-1.89 1.84,-3.11 0.36,1.62 1.5,-2.96 -2.32,-5.14 -14.67,-15.36 -20.32,-19.67 -5.34,-4.08 -18.46,-11.96 -26.34,-13.84 1.12,-1.89 1.97,-2.24 3.94,-4.14 5.3,-5.1 9,-3.3 20.84,-3.23 6.41,18.44 34.12,13.43 33.59,-6.36 -0.37,-13.9 -16.09,-21.73 -27.23,-14.32 -3.38,2.25 -4.48,5.15 -6.99,8.85 -27.85,0.66 -18.88,-1.74 -37.76,14.5 -1.87,1.61 -3.88,3.33 -5.54,5.12 -4.63,5.01 -3.29,10.22 3.88,11.87 35.23,8.09 47.68,30.87 51.76,32.63zm1.6 -63.88c-6.77,3.38 -1.93,14.66 5.87,10.87 6.74,-3.28 1.67,-14.63 -5.87,-10.87zm-482.66 188.2c1.29,0.62 -1.09,-1.56 0.78,0.71 0.39,0.48 0.74,1.04 1.08,1.56 17.43,26.57 46.89,44.46 79.6,46.16 5.99,0.31 38.23,0.95 42.01,-0.71 5.22,-2.29 5.81,-9.65 1.72,-13.41 -5.71,-5.23 -36.56,1.78 -60.96,-5.03 -35.03,-9.79 -45,-32.4 -50.02,-36.96 -0.74,3.97 0.81,3.41 0.83,3.43 -0.28,0.36 -3.32,2.43 -4.76,2.43 -4.97,0 -1.6,-1.56 -6.95,1.4l-2.09 0.4c-5.3,0.06 3.74,-1.8 -1.24,0.02zm209.58 33.64c-3.96,1.87 -4.47,7.52 -6.13,12.49l-26.28 84.39c-1.47,5.99 3.07,10.01 8.86,8.16 4.35,-1.39 4.72,-7.25 6.34,-12.28 1.58,-4.93 2.83,-9.37 4.42,-14.02l22.21 -70.04c1.51,-6.47 -3.06,-11.69 -9.42,-8.69zm47.77 53.01c-2.94,2.26 -6.99,6.79 -9.99,9.69l-20.09 19.64c-4.45,4.84 -0.92,11.9 5.82,10.19 2.56,-0.64 27.03,-25.03 30.99,-28.72 2.59,-2.41 8.81,-6.81 9.16,-10.99 0.49,-5.81 -14.85,-17.92 -18.6,-21.32 -3.42,-3.1 -17.43,-18.25 -20.88,-18.86 -5.52,-0.98 -9.65,5.54 -5.98,10.23 2.57,3.29 7.43,6.33 10.23,9.69 3.69,4.43 5.64,5.47 9.9,9.94 2.38,2.5 8.13,7.95 9.45,10.5zm-119.01 0.04c2,-3.79 7.02,-6.6 10.06,-9.89l19.95 -19.75c5.72,-5.78 0.82,-11.67 -4.46,-10.97 -3.5,0.46 -18.61,16.74 -21.32,19.21 -6.52,5.97 -9.39,8.07 -15.24,14.53 -1.6,1.76 -4.39,3.12 -4.29,6.68 0.15,4.97 15.93,16.79 19.11,20.95 2.43,3.17 17.99,18.84 21.1,19.47 6.72,1.36 9.01,-5.62 5.85,-10.21l-30.76 -30.03z"/>
 </g>
</svg>
