<?xml version="1.0" encoding="UTF-8"?>
<!DOCTYPE svg PUBLIC "-//W3C//DTD SVG 1.1//EN" "http://www.w3.org/Graphics/SVG/1.1/DTD/svg11.dtd">
<!-- Creator: CorelDRAW 2021.5 -->
<svg xmlns="http://www.w3.org/2000/svg" xml:space="preserve" width="38.8056mm" height="38.8056mm" version="1.1" style="shape-rendering:geometricPrecision; text-rendering:geometricPrecision; image-rendering:optimizeQuality; fill-rule:evenodd; clip-rule:evenodd"
viewBox="0 0 2415.58 2415.58"
 xmlns:xlink="http://www.w3.org/1999/xlink"
 xmlns:xodm="http://www.corel.com/coreldraw/odm/2003">
 <defs>
  <style type="text/css">
   <![CDATA[
    .str0 {stroke:black;stroke-width:43.92;stroke-miterlimit:2.61313}
    .str1 {stroke:white;stroke-width:10.98;stroke-miterlimit:2.61313}
    .fil1 {fill:black}
    .fil2 {fill:white}
    .fil0 {fill:white}
    .fil3 {fill:black;fill-rule:nonzero}
   ]]>
  </style>
 </defs>
 <g id="Layer_x0020_1">
  <metadata id="CorelCorpID_0Corel-Layer"/>
  <g id="_2237835528624">
   <rect class="fil0 str0" x="21.96" y="21.96" width="2371.66" height="2371.66" rx="158.11" ry="158.11"/>
   <g>
    <path id="body" class="fil1" d="M1904.99 1237.32c-43.92,453.96 -187.46,1017.79 -656.39,1017.79 -446,0 -609.8,-510.04 -669.53,-950.49 -94.32,131.85 -136.15,325.14 -125.86,438.83 6.56,68.6 -158.53,102.4 -191.86,14.1 -20.13,-228.14 98.06,-659.19 289.83,-757.82 -4.98,-96.14 -5.91,-177.97 -5.91,-235.39 0,-333.5 308.59,-603.85 689.64,-603.85 380.67,0 689.44,270.34 689.44,603.85 0,48.31 -0.08,113.9 -2.26,190.75 215.86,52.94 446.02,720.89 -121.78,807.64 -33.33,88.31 47.03,-124.25 53.6,-192.85 139.76,-63.8 166.84,-202.69 51.07,-332.56z"/>
    <path id="face" class="fil2" d="M1230.39 1051.78c-299.41,0 -542.1,-172.34 -542.1,-384.81 0,-212.42 242.69,-384.76 542.1,-384.76 299.46,0 542.28,172.34 542.28,384.76 0,212.47 -242.82,384.81 -542.28,384.81l0 0z"/>
    <circle id="eye" class="fil1" cx="1012.23" cy="717.12" r="43.49"/>
    <circle id="eye_0" class="fil1" cx="1476.17" cy="717.12" r="43.49"/>
    <path id="Coffee-2346113.svg" class="fil0 str1" d="M1049.69 1746.86c-81.18,24.08 -119.85,89.54 -8.12,126.28 181.94,59.83 345.57,55.3 508.98,21.02 109.61,-22.99 151.06,-60.85 121.56,-107.2 55.81,54.64 -11.73,96.75 -109.54,122.69 -160.23,42.51 -393.96,36.18 -538.29,-18.53 -119.92,-45.47 -80.01,-116.19 25.37,-144.25l0.04 0zm355.29 -632.11c-43.2,23.57 -41.74,45.43 -32.82,61.62 0.95,-21.05 3.83,-29.13 44.4,-53.87 38.86,-23.65 24.27,-48.58 12.98,-62.9 5.81,22.22 9.5,36.55 -24.6,55.15l0.04 0zm23.98 185.45c-61.95,33.81 -92.33,61.84 -104.02,91.85 -35.71,-4.39 -83.81,-0.48 -135.05,15.02 -38.53,11.66 -88.74,42.87 -79.09,64.36 -55.23,132.97 -9.39,288.04 127.37,339.58 -73.83,-58.88 -158.73,-119.19 -117.51,-316.22 59.54,43.13 123.13,44.04 188.15,45.07 71.78,1.13 150.11,-5.96 204.38,-38.74 80.38,130.77 -42.43,263.04 -153.61,320.57 83.69,-34.98 165.01,-64.03 198.06,-175 18.46,-62.02 11.52,-124.41 -26.28,-196.34 -0.59,23.57 -5.01,30.33 -45.03,53.36 54.82,-37.03 -34.76,-77.92 -141.7,-82.02 3.14,-6.5 7.2,-12.9 12.5,-19.44 23.21,0.92 46.89,2.45 70.58,4.02 -17.65,-8.15 -43.89,-11.37 -66.85,-12.94 18.2,-20.5 49.01,-38.45 101.83,-70.58 112.94,-68.75 70.54,-141.11 37.69,-182.78 16.84,64.55 27.59,106.21 -71.45,160.23l0.04 0zm-105.77 101.27c-2.23,6.8 -3.51,13.45 -4.02,19.96 -54.31,0.99 -110.45,11.88 -152.74,37.79 41.41,-16.66 98.39,-26.17 152.55,-27.19 0.85,17.07 6.73,32.89 14.62,47.22 0.84,-18.35 2.19,-33.3 6.83,-47.18 44.26,1.02 84.87,8.04 111.14,21.82 54.86,28.76 26.83,53.73 -17.29,64.4 -33.51,5.19 -76.02,7.64 -128.14,6.9 -169.84,-2.41 -193.02,-56.94 -165.64,-78.8 45.76,-36.47 110.96,-45.28 182.64,-44.88l0.04 -0.04zm92.83 -213.41c-73.39,40.02 -70.94,77.16 -55.74,104.68 1.64,-35.74 6.5,-49.52 75.48,-91.48 66.05,-40.21 41.26,-82.49 22.04,-106.87 9.87,37.72 16.15,62.1 -41.77,93.68zm108.22 573.85c53.87,-46.31 157.12,-126.13 66.77,-191.66 -38.96,-28.25 -1.64,-73.76 46.09,-47.4 49.52,27.3 70.5,77.48 21.38,139.58 -38.45,48.57 -88.52,74.82 -134.24,99.52l0 -0.04z"/>
   </g>
   <polygon class="fil3" points="348.85,924.77 531.6,924.77 659.15,1332.17 784.85,924.77 962.32,924.77 752.17,1490.81 562.7,1490.81 "/>
   <polygon id="_1" class="fil3" points="1019.11,924.77 1487.12,924.77 1487.12,1045.73 1194.61,1045.73 1194.61,1135.85 1465.77,1135.85 1465.77,1251.27 1194.61,1251.27 1194.61,1362.74 1495.81,1362.74 1495.81,1490.81 1019.11,1490.81 "/>
   <polygon id="_2" class="fil3" points="1590.02,924.77 2058.03,924.77 2058.03,1045.73 1765.52,1045.73 1765.52,1135.85 2036.68,1135.85 2036.68,1251.27 1765.52,1251.27 1765.52,1362.74 2066.73,1362.74 2066.73,1490.81 1590.02,1490.81 "/>
   <g>
    <path id="_3" class="fil2" d="M348.85 891.83l182.75 0c15.46,0 28.44,10.66 31.98,25.02l95.35 304.58 94.51 -306.31c4.34,-14.12 17.35,-23.21 31.4,-23.21l0 -0.09 177.48 0c18.19,0 32.94,14.75 32.94,32.94 0,5.05 -1.14,9.84 -3.17,14.12l-209.17 563.37c-4.92,13.2 -17.44,21.37 -30.76,21.37l0 0.12 -189.47 0c-14.91,0 -27.51,-9.92 -31.57,-23.52l-213.03 -563.88c-6.39,-16.98 2.2,-35.94 19.18,-42.34 3.82,-1.44 7.73,-2.12 11.58,-2.11l0 -0.07zm0 32.94l182.75 0 127.55 407.4 125.7 -407.4 177.48 0 -210.16 566.04 -189.47 0 -213.85 -566.04z"/>
   </g>
   <g>
    <path id="_4" class="fil2" d="M1019.11 891.83l468.01 0c18.19,0 32.94,14.75 32.94,32.94l0 120.95c0,18.19 -14.75,32.94 -32.94,32.94l-259.56 0 0 24.24 238.22 0c18.19,0 32.94,14.75 32.94,32.94l0 115.42c0,18.19 -14.75,32.94 -32.94,32.94l-238.22 0 0 45.58 268.26 0c18.19,0 32.94,14.75 32.94,32.94l0 128.07c0,18.19 -14.75,32.94 -32.94,32.94l-476.7 0c-18.19,0 -32.94,-14.75 -32.94,-32.94l0 -566.04c0,-18.19 14.75,-32.94 32.94,-32.94zm0 32.94l468.01 0 0 120.95 -292.5 0 0 90.12 271.16 0 0 115.42 -271.16 0 0 111.47 301.2 0 0 128.07 -476.7 0 0 -566.04z"/>
   </g>
   <g>
    <path id="_5" class="fil2" d="M1590.02 891.83l468.01 0c18.19,0 32.94,14.75 32.94,32.94l0 120.95c0,18.19 -14.75,32.94 -32.94,32.94l-259.56 0 0 24.24 238.22 0c18.19,0 32.94,14.75 32.94,32.94l0 115.42c0,18.19 -14.75,32.94 -32.94,32.94l-238.22 0 0 45.58 268.26 0c18.19,0 32.94,14.75 32.94,32.94l0 128.07c0,18.19 -14.75,32.94 -32.94,32.94l-476.7 0c-18.19,0 -32.94,-14.75 -32.94,-32.94l0 -566.04c0,-18.19 14.75,-32.94 32.94,-32.94zm0 32.94l468.01 0 0 120.95 -292.5 0 0 90.12 271.16 0 0 115.42 -271.16 0 0 111.47 301.2 0 0 128.07 -476.7 0 0 -566.04z"/>
   </g>
  </g>
 </g>
</svg>
