<?xml version="1.0" encoding="UTF-8"?>
<!DOCTYPE svg PUBLIC "-//W3C//DTD SVG 1.1//EN" "http://www.w3.org/Graphics/SVG/1.1/DTD/svg11.dtd">
<!-- Creator: CorelDRAW 2021.5 -->
<svg xmlns="http://www.w3.org/2000/svg" xml:space="preserve" width="38.8056mm" height="38.8056mm" version="1.1" style="shape-rendering:geometricPrecision; text-rendering:geometricPrecision; image-rendering:optimizeQuality; fill-rule:evenodd; clip-rule:evenodd"
viewBox="0 0 1301.7 1301.7"
 xmlns:xlink="http://www.w3.org/1999/xlink"
 xmlns:xodm="http://www.corel.com/coreldraw/odm/2003">
 <defs>
  <style type="text/css">
   <![CDATA[
    .str0 {stroke:black;stroke-width:23.67;stroke-miterlimit:2.61313}
    .fil2 {fill:white}
    .fil0 {fill:white}
    .fil1 {fill:black;fill-rule:nonzero}
   ]]>
  </style>
 </defs>
 <g id="Layer_x0020_1">
  <metadata id="CorelCorpID_0Corel-Layer"/>
  <rect class="fil0 str0" x="11.83" y="11.83" width="1278.04" height="1278.04" rx="85.2" ry="85.2"/>
  <g id="Linux_Platform.svg">
   <g>
    <g>
     <g>
      <path class="fil1" d="M1102.24 1003.51c-29.52,-12.08 -53.8,-31.23 -52.09,-67.7 1.71,-36.47 -26.1,-60.64 -26.1,-60.64 0,0 24.28,-79.9 1.71,-145.89 -22.57,-66.11 -97.22,-171.88 -154.44,-251.77 -57.22,-79.9 -8.66,-171.99 -60.63,-289.96 -52.2,-117.97 -187.49,-111.13 -260.44,-60.75 -72.95,50.27 -50.38,175.3 -46.96,234.34 3.53,58.93 1.6,100.98 -5.13,116.26 -6.84,15.27 -53.8,71.23 -85.14,118.08 -31.23,46.84 -53.79,144.07 -76.48,184.07 -22.57,39.89 -6.95,76.36 -6.95,76.36 0,0 -15.61,5.13 -27.81,31.34 -12.2,25.99 -36.47,38.07 -79.9,46.73 -43.43,8.66 -43.43,36.59 -33.05,67.82 10.49,31.23 0,48.67 -12.08,88.45 -12.2,39.78 48.55,52.09 107.59,58.93 59.04,7.06 125.03,45.25 180.65,52.09 55.51,6.95 72.83,-38.18 72.83,-38.18 0,0 62.46,-14.02 128.45,-15.61 65.99,-1.71 128.45,13.9 128.45,13.9 0,0 12.19,27.81 34.76,39.89 22.57,12.19 71.23,13.9 102.46,-19.04 31.34,-33.05 114.66,-74.65 161.51,-100.75 46.96,-25.99 38.3,-65.88 8.78,-77.96zm-406.21 -765.58c29.75,0 53.79,29.52 53.79,65.88 0,25.87 -12.08,48.1 -29.63,58.93 -4.44,-1.94 -9.23,-3.99 -14.25,-6.16 10.6,-5.24 18.12,-18.69 18.12,-34.53 0,-20.52 -12.65,-37.16 -28.38,-37.16 -15.5,0 -28.27,16.64 -28.27,37.16 0,7.63 1.82,14.93 4.9,20.86 -9.23,-3.65 -17.78,-7.07 -24.5,-9.69 -3.65,-8.89 -5.7,-18.92 -5.7,-29.52 0,-36.24 24.05,-65.76 53.91,-65.76zm-3.88 138.94c14.93,5.13 31.46,14.82 29.75,24.39 -1.71,9.69 -9.58,9.69 -29.75,22 -20.17,12.19 -63.82,39.32 -77.85,41.03 -14.02,1.71 -21.88,-6.16 -36.81,-15.73 -14.93,-9.69 -42.86,-32.48 -35.79,-44.68 0,0 21.77,-16.64 31.34,-25.42 9.69,-8.78 34.2,-29.75 49.01,-27.01 14.93,2.62 55.16,20.17 70.09,25.42zm-134.26 -128.57c23.48,0 42.51,27.93 42.51,62.46 0,6.38 -0.57,12.2 -1.82,17.9 -5.7,1.94 -11.51,5.13 -17.21,9.92 -2.85,2.39 -5.36,4.56 -7.87,6.73 3.76,-6.95 5.24,-16.87 3.54,-27.36 -3.19,-18.81 -15.73,-32.6 -28.15,-30.66 -12.42,2.16 -19.95,19.03 -16.76,38.07 3.19,18.92 15.73,32.71 28.04,30.66 0.68,-0.11 1.37,-0.34 2.05,-0.57 -6.04,5.81 -11.63,10.82 -17.33,15.04 -17.21,-7.98 -29.75,-31.69 -29.75,-59.73 0.34,-34.53 19.38,-62.46 42.74,-62.46zm-45.82 877.28c-5.59,24.85 -34.65,42.97 -34.65,42.97 -26.44,8.32 -99.84,-23.59 -133.13,-37.5 -33.28,-13.79 -117.85,-18.12 -129.02,-30.43 -11.06,-12.54 5.59,-40.35 9.8,-66.56 4.11,-26.44 -8.32,-42.97 -4.22,-61.09 4.22,-18.01 58.24,-18.01 78.99,-30.43 20.86,-12.54 24.96,-48.55 41.6,-58.24 16.64,-9.8 47.07,24.85 59.61,44.45 12.42,19.26 59.61,102.58 78.99,123.44 19.6,20.63 37.61,48.44 32.03,73.4zm307.05 -241.97c-5.01,24.5 -5.01,112.95 -5.01,112.95 0,0 -53.8,74.54 -137.23,86.74 -83.32,12.2 -125.03,3.42 -125.03,3.42l-46.84 -53.68c0,0 36.36,-5.24 31.23,-41.72 -5.24,-36.47 -111.13,-86.85 -130.16,-131.99 -19.03,-45.02 -3.42,-121.5 20.86,-159.79 24.28,-38.18 39.78,-121.39 64.17,-149.31 24.28,-27.7 43.31,-86.74 34.65,-112.84 0,0 52.09,62.57 88.45,52.2 36.47,-10.49 118.2,-71.23 130.16,-60.75 12.08,10.49 116.26,239.58 126.63,312.53 10.49,72.83 -6.95,128.45 -6.95,128.45 0,0 -39.78,-10.49 -44.91,13.79zm266.48 163.56c-16.19,14.93 -106.46,51.29 -133.47,79.79 -26.9,28.15 -62,51.18 -83.55,44.45 -21.65,-6.84 -40.46,-36.47 -31,-79.67 9.35,-43.08 17.55,-90.27 16.19,-117.28 -1.37,-27.01 -6.84,-63.49 0,-68.84 6.73,-5.24 17.44,-2.62 17.44,-2.62 0,0 -5.24,51.18 25.64,64.74 31,13.33 75.45,-5.36 89.02,-19.04 13.56,-13.45 23.02,-33.62 23.02,-33.62 0,0 13.45,6.84 12.08,28.38 -1.37,21.54 9.35,52.66 29.75,63.37 20.06,10.71 51.06,25.64 34.88,40.35z"/>
     </g>
     <g>
     </g>
     <g>
     </g>
     <g>
     </g>
     <g>
     </g>
     <g>
     </g>
     <g>
     </g>
     <g>
     </g>
     <g>
     </g>
     <g>
     </g>
     <g>
     </g>
     <g>
     </g>
     <g>
     </g>
     <g>
     </g>
     <g>
     </g>
     <g>
     </g>
    </g>
    <g>
    </g>
    <g>
    </g>
    <g>
    </g>
    <g>
    </g>
    <g>
    </g>
    <g>
    </g>
    <g>
    </g>
    <g>
    </g>
    <g>
    </g>
    <g>
    </g>
    <g>
    </g>
    <g>
    </g>
    <g>
    </g>
    <g>
    </g>
    <g>
    </g>
   </g>
  </g>
  <polygon class="fil1" points="226.51,498.34 320.66,498.34 320.66,728.39 468.06,728.39 468.06,803.36 226.51,803.36 "/>
  <polygon id="_1" class="fil1" points="510.66,498.34 762.86,498.34 762.86,563.52 605.23,563.52 605.23,612.09 751.35,612.09 751.35,674.28 605.23,674.28 605.23,734.35 767.54,734.35 767.54,803.36 510.66,803.36 "/>
  <polygon id="_2" class="fil1" points="818.31,498.34 1070.51,498.34 1070.51,563.52 912.88,563.52 912.88,612.09 1059.01,612.09 1059.01,674.28 912.88,674.28 912.88,734.35 1075.19,734.35 1075.19,803.36 818.31,803.36 "/>
  <g>
   <path id="_3" class="fil2" d="M226.51 480.59l94.15 0c9.8,0 17.75,7.95 17.75,17.75l0 212.29 129.65 0c9.8,0 17.75,7.95 17.75,17.75l0 74.98c0,9.8 -7.95,17.75 -17.75,17.75l-241.55 0c-9.8,0 -17.75,-7.95 -17.75,-17.75l0 -305.02c0,-9.8 7.95,-17.75 17.75,-17.75zm0 17.75l94.15 0 0 230.05 147.4 0 0 74.98 -241.55 0 0 -305.02z"/>
  </g>
  <g>
   <path id="_4" class="fil2" d="M510.66 480.59l252.2 0c9.8,0 17.75,7.95 17.75,17.75l0 65.18c0,9.8 -7.95,17.75 -17.75,17.75l-139.87 0 0 13.06 128.37 0c9.8,0 17.75,7.95 17.75,17.75l0 62.2c0,9.8 -7.95,17.75 -17.75,17.75l-128.37 0 0 24.56 144.56 0c9.8,0 17.75,7.95 17.75,17.75l0 69.01c0,9.8 -7.95,17.75 -17.75,17.75l-256.89 0c-9.8,0 -17.75,-7.95 -17.75,-17.75l0 -305.02c0,-9.8 7.95,-17.75 17.75,-17.75zm0 17.75l252.2 0 0 65.18 -157.62 0 0 48.57 146.12 0 0 62.2 -146.12 0 0 60.07 162.31 0 0 69.01 -256.89 0 0 -305.02z"/>
  </g>
  <g>
   <path id="_5" class="fil2" d="M818.31 480.59l252.2 0c9.8,0 17.75,7.95 17.75,17.75l0 65.18c0,9.8 -7.95,17.75 -17.75,17.75l-139.87 0 0 13.06 128.37 0c9.8,0 17.75,7.95 17.75,17.75l0 62.2c0,9.8 -7.95,17.75 -17.75,17.75l-128.37 0 0 24.56 144.56 0c9.8,0 17.75,7.95 17.75,17.75l0 69.01c0,9.8 -7.95,17.75 -17.75,17.75l-256.89 0c-9.8,0 -17.75,-7.95 -17.75,-17.75l0 -305.02c0,-9.8 7.95,-17.75 17.75,-17.75zm0 17.75l252.2 0 0 65.18 -157.62 0 0 48.57 146.12 0 0 62.2 -146.12 0 0 60.07 162.31 0 0 69.01 -256.89 0 0 -305.02z"/>
  </g>
 </g>
</svg>
